<svg xmlns="http://www.w3.org/2000/svg" width="238" height="99" viewBox="0 0 238 99">
  <g id="Groupe_758" data-name="Groupe 758" transform="translate(-790 -537)">
    <g id="Groupe_693" data-name="Groupe 693" transform="translate(821.1 593.023)">
      <path id="Tracé_862" data-name="Tracé 862" d="M100.553,23.581a3.428,3.428,0,1,1,3.428,3.428,3.562,3.562,0,0,1-3.428-3.428Zm-.653,0a4.081,4.081,0,1,0,4.082-4.081A4.042,4.042,0,0,0,99.9,23.581Z" transform="translate(63.26 12.336)"/>
      <path id="Tracé_863" data-name="Tracé 863" d="M13.451,21.959H6.594v9.469h7.02c4.408,0,6.694-1.633,6.694-4.9a4.129,4.129,0,0,0-1.8-3.592,10.271,10.271,0,0,0-5.061-.98ZM6.594,8.9v8.326h6.041a10.96,10.96,0,0,0,3.755-.49,3.758,3.758,0,0,0,2.122-1.8A4.519,4.519,0,0,0,19,12.816a3.253,3.253,0,0,0-1.8-3.265A19.449,19.449,0,0,0,11.981,8.9ZM13.94,36.325H3.981a4.157,4.157,0,0,1-3.1-.98,4.157,4.157,0,0,1-.98-3.1V8.081a4.965,4.965,0,0,1,1.143-3.1A3.991,3.991,0,0,1,3.981,4H14.43a29.542,29.542,0,0,1,4.081.327,7.156,7.156,0,0,1,3.1,1.143,5.19,5.19,0,0,1,1.959,1.8,6.406,6.406,0,0,1,1.306,2.286,7.394,7.394,0,0,1,.49,2.612c0,3.265-1.633,5.551-4.9,7.02,4.245,1.306,6.367,3.918,6.367,8a8.638,8.638,0,0,1-1.469,4.9,9.131,9.131,0,0,1-3.755,3.265,10.574,10.574,0,0,1-3.428.816,31.576,31.576,0,0,1-4.245.163Z" transform="translate(0 2.53)"/>
      <path id="Tracé_864" data-name="Tracé 864" d="M24.777,16.044V33.513a4.67,4.67,0,0,1-.816,2.775,2.789,2.789,0,0,1-4.245,0,4.323,4.323,0,0,1-.816-2.775V16.208a3.834,3.834,0,0,1,.816-2.612,2.789,2.789,0,0,1,4.245,0,3.379,3.379,0,0,1,.816,2.449ZM21.839,9.677a3.439,3.439,0,0,1-2.122-.816A2.507,2.507,0,0,1,18.9,6.739a2.633,2.633,0,0,1,.98-2.122,3.167,3.167,0,0,1,4.245,0,2.632,2.632,0,0,1,.98,2.122,2.82,2.82,0,0,1-.816,2.122,3.977,3.977,0,0,1-2.449.816Z" transform="translate(12.019 2.404)"/>
      <path id="Tracé_865" data-name="Tracé 865" d="M42.659,21.444c0-2.449-.49-4.408-1.633-5.714a5.738,5.738,0,0,0-4.408-2.122,5.024,5.024,0,0,0-3.1.98A5.608,5.608,0,0,0,31.394,17.2a10.72,10.72,0,0,0-.653,4.081,10.2,10.2,0,0,0,.653,4.081,4.908,4.908,0,0,0,2.122,2.612,5.024,5.024,0,0,0,3.1.98,5.265,5.265,0,0,0,4.408-2.122,8.148,8.148,0,0,0,1.633-5.388Zm6.041,0a15.391,15.391,0,0,1-.816,4.9,9.926,9.926,0,0,1-2.449,3.918,9.37,9.37,0,0,1-3.755,2.449,12.221,12.221,0,0,1-5.061.816,15.391,15.391,0,0,1-4.9-.816,12.465,12.465,0,0,1-3.755-2.449,9.926,9.926,0,0,1-2.449-3.918,15.39,15.39,0,0,1-.816-4.9,17.286,17.286,0,0,1,.816-5.061,9.926,9.926,0,0,1,2.449-3.918,8.376,8.376,0,0,1,3.755-2.449,11.9,11.9,0,0,1,4.9-.816,17.286,17.286,0,0,1,5.061.816,12.464,12.464,0,0,1,3.755,2.449,12.205,12.205,0,0,1,2.449,3.918,17.286,17.286,0,0,1,.816,5.061Z" transform="translate(15.688 5.82)"/>
      <path id="Tracé_866" data-name="Tracé 866" d="M71.993,23.581v6.2a6.728,6.728,0,0,1-.163,1.959,3.555,3.555,0,0,1-.816,1.306,14.121,14.121,0,0,1-1.633,1.143,32.055,32.055,0,0,1-5.714,2.286,22.367,22.367,0,0,1-5.877.653,18.908,18.908,0,0,1-6.857-1.143,16.737,16.737,0,0,1-5.224-3.265,12.954,12.954,0,0,1-3.265-5.388,19.208,19.208,0,0,1-1.143-7.02,18.327,18.327,0,0,1,1.143-6.857,14.907,14.907,0,0,1,3.265-5.388A15.239,15.239,0,0,1,51.1,4.643,19.523,19.523,0,0,1,58.279,3.5a20.088,20.088,0,0,1,5.714.816A12.139,12.139,0,0,1,68.075,6.6,9.02,9.02,0,0,1,70.36,9.377a6,6,0,0,1,.816,2.612,2.874,2.874,0,0,1-.98,2.122,2.7,2.7,0,0,1-2.122.816,3.076,3.076,0,0,1-1.306-.327,2.195,2.195,0,0,1-1.143-.98A17.276,17.276,0,0,0,63.5,10.683a6.336,6.336,0,0,0-2.286-1.633A7.857,7.857,0,0,0,57.626,8.4a10.7,10.7,0,0,0-4.082.816,28.552,28.552,0,0,0-3.265,2.612,12.671,12.671,0,0,0-1.959,3.592,15.1,15.1,0,0,0-.653,4.735c0,3.755.816,6.694,2.612,8.816a9.058,9.058,0,0,0,7.347,3.1,12.174,12.174,0,0,0,4.245-.653,26.546,26.546,0,0,0,4.081-1.633V24.561H60.891a6.505,6.505,0,0,1-2.775-.49,1.875,1.875,0,0,1-.98-1.8,2.622,2.622,0,0,1,.816-1.8,3.011,3.011,0,0,1,2.122-.653h7.51c.98,0,1.633.163,2.286.163a2.077,2.077,0,0,1,1.469,1.143,3.389,3.389,0,0,1,.653,2.449Z" transform="translate(26.19 2.214)"/>
      <path id="Tracé_867" data-name="Tracé 867" d="M78.163,21.671a22.222,22.222,0,0,1-3.918.98c-1.633.327-2.775.653-3.428.816a3.892,3.892,0,0,0-1.8.98,2.332,2.332,0,0,0-.816,2.122,2.964,2.964,0,0,0,.98,2.286,3.84,3.84,0,0,0,2.775.98,7.432,7.432,0,0,0,3.265-.816,5.429,5.429,0,0,0,2.286-1.959,10.063,10.063,0,0,0,.816-4.408v-.98Zm.49,8.653a24.949,24.949,0,0,1-4.245,2.612,10.384,10.384,0,0,1-4.571.816,8.384,8.384,0,0,1-4.081-.98,8.127,8.127,0,0,1-2.775-2.449A6.036,6.036,0,0,1,62,26.9a5.782,5.782,0,0,1,1.633-4.245,7.2,7.2,0,0,1,4.245-2.286,23.965,23.965,0,0,1,2.775-.653c1.469-.327,2.775-.653,3.918-.816,1.143-.327,2.286-.49,3.592-.98a5.548,5.548,0,0,0-.98-3.592c-.49-.816-1.8-1.143-3.592-1.143a6.752,6.752,0,0,0-3.428.653A5.628,5.628,0,0,0,68.2,15.794a11.484,11.484,0,0,1-1.143,1.633q-.245.49-1.469.49a2.455,2.455,0,0,1-1.8-.653,2.267,2.267,0,0,1-.816-1.633,4.58,4.58,0,0,1,1.143-3.1,8.71,8.71,0,0,1,3.592-2.449,15.818,15.818,0,0,1,5.877-.98,15.89,15.89,0,0,1,6.2.98,6.425,6.425,0,0,1,3.265,2.939,12.216,12.216,0,0,1,.98,5.388v6.857a14.56,14.56,0,0,0,.49,3.592,12.145,12.145,0,0,1,.49,2.449,2.267,2.267,0,0,1-.816,1.633,3.392,3.392,0,0,1-1.959.816,2.622,2.622,0,0,1-1.8-.816,23.134,23.134,0,0,1-1.8-2.612Z" transform="translate(39.284 5.757)"/>
      <path id="Tracé_868" data-name="Tracé 868" d="M84.377,16.044V33.513a4.67,4.67,0,0,1-.816,2.775,2.789,2.789,0,0,1-4.245,0,4.323,4.323,0,0,1-.816-2.775V16.208a3.834,3.834,0,0,1,.816-2.612,2.789,2.789,0,0,1,4.245,0,2.809,2.809,0,0,1,.816,2.449ZM81.439,9.677a3.438,3.438,0,0,1-2.122-.816A2.507,2.507,0,0,1,78.5,6.739a2.632,2.632,0,0,1,.98-2.122,3.167,3.167,0,0,1,4.245,0,2.77,2.77,0,0,1,.653,2.122,2.82,2.82,0,0,1-.816,2.122,2.507,2.507,0,0,1-2.122.816Z" transform="translate(49.722 2.404)"/>
      <path id="Tracé_869" data-name="Tracé 869" d="M100.463,21.671a22.221,22.221,0,0,1-3.918.98c-1.633.327-2.775.653-3.428.816a3.892,3.892,0,0,0-1.8.98,2.332,2.332,0,0,0-.816,2.122,2.964,2.964,0,0,0,.98,2.286,3.84,3.84,0,0,0,2.775.98,7.431,7.431,0,0,0,3.265-.816,5.429,5.429,0,0,0,2.286-1.959,10.063,10.063,0,0,0,.816-4.408v-.98Zm.49,8.653a24.949,24.949,0,0,1-4.245,2.612,10.384,10.384,0,0,1-4.571.816,8.384,8.384,0,0,1-4.081-.98,8.127,8.127,0,0,1-2.775-2.449A6.036,6.036,0,0,1,84.3,26.9a5.782,5.782,0,0,1,1.633-4.245,7.2,7.2,0,0,1,4.245-2.286,23.964,23.964,0,0,1,2.775-.653c1.469-.327,2.775-.653,3.918-.816,1.143-.327,2.286-.49,3.592-.98a5.548,5.548,0,0,0-.98-3.592c-.49-.816-1.8-1.143-3.592-1.143a6.752,6.752,0,0,0-3.428.653A5.628,5.628,0,0,0,90.5,15.794a11.48,11.48,0,0,1-1.143,1.633q-.245.49-1.469.49a2.455,2.455,0,0,1-1.8-.653,2.267,2.267,0,0,1-.816-1.633,4.58,4.58,0,0,1,1.143-3.1,8.71,8.71,0,0,1,3.592-2.449,15.818,15.818,0,0,1,5.877-.98,15.89,15.89,0,0,1,6.2.98,6.425,6.425,0,0,1,3.265,2.939,12.216,12.216,0,0,1,.98,5.388v6.857a14.56,14.56,0,0,0,.49,3.592,12.147,12.147,0,0,1,.49,2.449,2.267,2.267,0,0,1-.816,1.633,3.392,3.392,0,0,1-1.959.816,2.622,2.622,0,0,1-1.8-.816,23.139,23.139,0,0,1-1.8-2.612Z" transform="translate(53.391 5.757)"/>
      <path id="Tracé_870" data-name="Tracé 870" d="M103.2,21.353h-.816V22.5h1.306a.57.57,0,0,0,.327-.163c0-.163.163-.163.163-.327s0-.163-.163-.327c0-.163-.163-.163-.327-.163,0-.163-.327-.163-.49-.163Zm-.49,1.633h-.327v1.469c0,.163,0,.327-.163.327,0,.163-.163.163-.327.163s-.163,0-.326-.163c0-.163-.163-.163-.163-.327V21.19c0-.163,0-.327.163-.327.163-.163.163-.163.326-.163h1.959c.163,0,.327,0,.327.163a.57.57,0,0,1,.327.163c.163.163.163.163.163.327v.49c0,.327-.163.49-.326.816a1.247,1.247,0,0,1-.816.327c.163,0,.327.163.49.327s.327.327.327.49c.163.163.163.327.326.49,0,.163.163.163.163.327v.163l-.163.163h-.326l-.163-.163a.57.57,0,0,1-.163-.327l-.327-.49c-.163-.163-.163-.327-.326-.49s-.163-.163-.327-.163c-.163-.163-.163-.327-.327-.327Z" transform="translate(64.209 13.095)"/>
      <path id="Tracé_871" data-name="Tracé 871" d="M82.577,12.381a5.994,5.994,0,0,0,5.877-6.041,5.88,5.88,0,1,0-11.755,0,5.994,5.994,0,0,0,5.877,6.041" transform="translate(48.583 0.19)"/>
      <path id="Tracé_872" data-name="Tracé 872" d="M22.977,12.244A5.994,5.994,0,0,0,28.855,6.2,6.139,6.139,0,0,0,22.977,0,5.994,5.994,0,0,0,17.1,6.041a6.139,6.139,0,0,0,5.877,6.2" transform="translate(10.881)"/>
    </g>
    <rect id="Rectangle_1600" data-name="Rectangle 1600" width="238" height="99" transform="translate(790 537)" fill="none"/>
  </g>
</svg>
