<svg xmlns="http://www.w3.org/2000/svg" xmlns:xlink="http://www.w3.org/1999/xlink" width="238" height="99.262" viewBox="0 0 238 99.262">
  <defs>
    <linearGradient id="linear-gradient" x1="0.5" y1="1.257" x2="0.5" y2="-0.018" gradientUnits="objectBoundingBox">
      <stop offset="0" stop-color="#3a6734"/>
      <stop offset="1" stop-color="#60a448"/>
    </linearGradient>
    <linearGradient id="linear-gradient-2" x1="0.5" y1="1.006" x2="0.5" y2="0.018" xlink:href="#linear-gradient"/>
    <linearGradient id="linear-gradient-3" x1="0.5" y1="0.945" x2="0.5" y2="-0.014" xlink:href="#linear-gradient"/>
    <linearGradient id="linear-gradient-4" x1="0.5" y1="1.247" x2="0.5" y2="0.047" xlink:href="#linear-gradient"/>
    <linearGradient id="linear-gradient-5" x1="0.5" y1="0.963" x2="0.5" y2="0.033" xlink:href="#linear-gradient"/>
    <linearGradient id="linear-gradient-6" x1="0.5" y1="1.231" x2="0.5" y2="-0.034" xlink:href="#linear-gradient"/>
    <linearGradient id="linear-gradient-7" x1="0.5" y1="0.982" x2="0.5" y2="0.002" xlink:href="#linear-gradient"/>
    <linearGradient id="linear-gradient-8" x1="0.5" y1="1.163" x2="0.5" y2="0.27" xlink:href="#linear-gradient"/>
    <linearGradient id="linear-gradient-9" x1="0.5" y1="0.971" x2="0.5" y2="0.013" xlink:href="#linear-gradient"/>
    <linearGradient id="linear-gradient-10" x1="0.5" y1="1.262" x2="0.5" y2="-0.514" xlink:href="#linear-gradient"/>
    <linearGradient id="linear-gradient-11" x1="0.5" y1="0.799" x2="0.5" y2="-2.953" xlink:href="#linear-gradient"/>
    <linearGradient id="linear-gradient-12" x1="0.5" y1="2.177" x2="0.5" y2="-3.769" xlink:href="#linear-gradient"/>
  </defs>
  <g id="Groupe_760" data-name="Groupe 760" transform="translate(-1616 -534)">
    <g id="Groupe_704" data-name="Groupe 704" transform="translate(-10934.003 -8975.489)">
      <path id="Tracé_929" data-name="Tracé 929" d="M152.762,76.229a6.761,6.761,0,1,1,6.759-6.761,6.759,6.759,0,0,1-6.759,6.761m0-21.774a15.016,15.016,0,1,0,6.808,28.4,4.658,4.658,0,0,0,8.153-2.356h.057V69.467a15.015,15.015,0,0,0-15.018-15.012" transform="translate(12489.395 9490.174)" fill="url(#linear-gradient)"/>
      <path id="Tracé_930" data-name="Tracé 930" d="M152.536,217.087a6.761,6.761,0,1,1,6.763-6.76,6.763,6.763,0,0,1-6.763,6.76m0-21.779a15.018,15.018,0,1,0,6.808,28.4,4.656,4.656,0,0,0,8.154-2.355h.051V210.327a15.016,15.016,0,0,0-15.014-15.019" transform="translate(12489.568 9381.637)" fill="url(#linear-gradient-2)"/>
      <path id="Tracé_931" data-name="Tracé 931" d="M297.836,76.233a6.763,6.763,0,1,1,6.765-6.761,6.763,6.763,0,0,1-6.765,6.761m0-21.778a14.925,14.925,0,0,0-6.809,1.633,4.659,4.659,0,0,0-8.153,2.356h-.056V90.1h.021a4.66,4.66,0,0,0,9.293,0h.021V83.369a15.016,15.016,0,1,0,5.683-28.914" transform="translate(12377.604 9490.174)" fill="url(#linear-gradient-3)"/>
      <path id="Tracé_932" data-name="Tracé 932" d="M27,64.134a4.559,4.559,0,0,0-4.1,2.537,4.725,4.725,0,0,1-1.057.883,7.132,7.132,0,1,1,0-12.171,4.675,4.675,0,0,1,1.057.883A4.564,4.564,0,1,0,30.1,50.9v0a14.782,14.782,0,0,0-3.038-2.651A16.058,16.058,0,0,0,2.036,61.372h0l0,.1,0,.1h0A16.06,16.06,0,0,0,27.058,74.692,14.806,14.806,0,0,0,30.1,72.041v0A4.565,4.565,0,0,0,27,64.134" transform="translate(12593.969 9497.067)" fill="url(#linear-gradient-4)"/>
      <path id="Tracé_933" data-name="Tracé 933" d="M27,211.7a4.559,4.559,0,0,0-4.1,2.541,4.962,4.962,0,0,1-1.057.882,7.134,7.134,0,1,1,0-12.173,4.715,4.715,0,0,1,1.057.88,4.564,4.564,0,1,0,7.2-5.366v0a14.818,14.818,0,0,0-3.038-2.654A16.06,16.06,0,0,0,2.036,208.938h0l0,.1,0,.1h0a16.056,16.056,0,0,0,25.021,13.122,14.805,14.805,0,0,0,3.038-2.65v0A4.565,4.565,0,0,0,27,211.7" transform="translate(12593.969 9383.354)" fill="url(#linear-gradient-5)"/>
      <path id="Tracé_934" data-name="Tracé 934" d="M427.046,62.9a6.9,6.9,0,0,1,1.86-5.187,4.464,4.464,0,0,1,2.931-1.071,5.524,5.524,0,0,1,2.144.337c2.706,1.071,2.932,3.665,3.042,4.737a10.669,10.669,0,0,1,.507-1.184,7.648,7.648,0,0,1,6.484-3.947c3.266,0,4.848,2.2,4.848,4.905,0,1.974-.85,4.283-3.893,4.62-.448.058-2.873.114-3.38.171-3.608.508-3.832,3.439-3.832,5.018V79.64a12.6,12.6,0,0,1-.4,3.268,5.164,5.164,0,0,1-8.735,2.367,6.744,6.744,0,0,1-1.579-4.963Z" transform="translate(12266.466 9488.535)" fill="url(#linear-gradient-6)"/>
      <path id="Tracé_935" data-name="Tracé 935" d="M283.682,203.776a6.884,6.884,0,0,1,1.859-5.187,4.462,4.462,0,0,1,2.934-1.071,5.51,5.51,0,0,1,2.143.337,5.106,5.106,0,0,1,3.041,4.735,10.343,10.343,0,0,1,.508-1.184,7.633,7.633,0,0,1,6.48-3.943c3.27,0,4.849,2.2,4.849,4.9,0,1.973-.846,4.285-3.891,4.624-.449.056-2.874.111-3.379.17-3.61.505-3.834,3.44-3.834,5.016v8.342a13.03,13.03,0,0,1-.394,3.271,5.167,5.167,0,0,1-8.737,2.367,6.731,6.731,0,0,1-1.58-4.962Z" transform="translate(12376.938 9379.975)" fill="url(#linear-gradient-7)"/>
      <path id="Tracé_936" data-name="Tracé 936" d="M529.248,20.2a6.171,6.171,0,0,1,1.074-3.718,4.967,4.967,0,0,1,4.281-2.257c2.65,0,5.3,1.918,5.3,6.033V38.016a7.055,7.055,0,0,1-.845,3.888,4.968,4.968,0,0,1-4.453,2.537,5.317,5.317,0,0,1-4.678-2.593,7.216,7.216,0,0,1-.677-3.267Zm0-13.359a5.326,5.326,0,1,1,5.355,5.353,5.341,5.341,0,0,1-5.355-5.353" transform="translate(12187.712 9530.948)" fill="url(#linear-gradient-8)"/>
      <path id="Tracé_937" data-name="Tracé 937" d="M400.619,208.209a6.765,6.765,0,0,0-.672-2.534,4.1,4.1,0,0,0-3.833-2.144,4.777,4.777,0,0,0-2.259.509,5.143,5.143,0,0,0-2.593,4.169Zm-9.3,5.694c.115,1.24.621,5.411,5.243,5.411a5.284,5.284,0,0,0,3.047-.9,24.071,24.071,0,0,0,2.254-1.862,4.162,4.162,0,0,1,2.762-1.072,4.231,4.231,0,0,1,4.449,3.947c0,2.708-4.223,7.5-13.02,7.5-11.048,0-15.109-8.059-15.109-15.78,0-8.288,4.906-15.167,15.224-15.167,10.145,0,14.543,7.162,14.543,13.644,0,2.48-1.016,4.282-3.323,4.282Z" transform="translate(12301.989 9381.12)" fill="url(#linear-gradient-9)"/>
      <path id="Tracé_938" data-name="Tracé 938" d="M536.793,251.336s-1.918-19.992,23.874-15.63c0,0-3.236,7.715-9.6,11.233-4.875,2.7-9.315,1.777-14.032,4.853,0,0,6.3-6.26,11.359-8.838,2.9-1.485,1.726-4.471-11.6,8.382" transform="translate(12181.922 9350.986)" fill="url(#linear-gradient-10)"/>
      <path id="Tracé_939" data-name="Tracé 939" d="M560.2,302.24s7.911-8.494,16.237,4.3c0,0-4.591,1.658-8.609.328-3.083-1.034-4.444-3.306-7.637-4.109a38.368,38.368,0,0,1,8.288,1.383c3.148,1.078,1.988-.925-8.279-1.9" transform="translate(12163.865 9301.367)" fill="url(#linear-gradient-11)"/>
      <g id="Groupe_700" data-name="Groupe 700" transform="translate(12737.479 9596.296)">
        <path id="Tracé_927" data-name="Tracé 927" d="M623.795,282.144a2.556,2.556,0,1,1-2.533-2.487A2.505,2.505,0,0,1,623.795,282.144Zm-4.474,0a1.936,1.936,0,0,0,1.941,1.987,1.9,1.9,0,0,0,1.9-1.971,1.92,1.92,0,1,0-3.837-.015Zm1.532,1.289h-.576v-2.487a6.7,6.7,0,0,1,.955-.076,1.323,1.323,0,0,1,.849.2.627.627,0,0,1,.258.531.642.642,0,0,1-.516.591v.031c.243.076.364.273.44.607a2.218,2.218,0,0,0,.182.607h-.607a1.966,1.966,0,0,1-.2-.607c-.045-.258-.2-.379-.516-.379h-.273Zm.015-1.4h.273c.318,0,.576-.106.576-.364,0-.227-.167-.379-.531-.379a1.38,1.38,0,0,0-.318.03Z" transform="translate(-618.684 -279.657)" fill="url(#linear-gradient-12)"/>
      </g>
    </g>
    <rect id="Rectangle_1598" data-name="Rectangle 1598" width="238" height="99" transform="translate(1616 534)" fill="none"/>
  </g>
</svg>
