<svg xmlns="http://www.w3.org/2000/svg" width="238" height="99" viewBox="0 0 238 99">
  <g id="Groupe_763" data-name="Groupe 763" transform="translate(-749 -1185)">
    <g id="Groupe_740" data-name="Groupe 740" transform="translate(789.104 1235.165)">
      <g id="Groupe_739" data-name="Groupe 739" transform="translate(80.802 8.31)">
        <path id="Tracé_977" data-name="Tracé 977" d="M93.052,38.292A18.8,18.8,0,0,1,85.221,39.7c-8.357,0-14.6-5.274-14.6-15.038C70.624,15.343,76.911,9.1,86.1,9.1a16.015,16.015,0,0,1,7.037,1.319l-.969,3.121a13.557,13.557,0,0,0-5.937-1.23c-6.951,0-11.567,4.44-11.567,12.221,0,7.3,4.175,11.915,11.346,11.915a15.4,15.4,0,0,0,6.29-1.231Z" transform="translate(-70.624 -6.918)" fill="#161615"/>
        <path id="Tracé_978" data-name="Tracé 978" d="M95.247,8.145h3.866V39.36H95.247Z" transform="translate(-66.924 -7.061)" fill="#161615"/>
        <rect id="Rectangle_1584" data-name="Rectangle 1584" width="3.872" height="21.28" transform="translate(39.927 11.019)" fill="#161615"/>
        <path id="Tracé_979" data-name="Tracé 979" d="M115.449,22.606c0-2.242-.045-4-.174-5.761H118.7l.222,3.474h.087a7.876,7.876,0,0,1,7.03-3.956c2.952,0,7.524,1.756,7.524,9.054V38.125h-3.872V25.857c0-3.432-1.273-6.333-4.925-6.333a5.587,5.587,0,0,0-5.187,3.958,5.807,5.807,0,0,0-.263,1.807V38.125h-3.868Z" transform="translate(-63.914 -5.826)" fill="#161615"/>
        <g id="Groupe_735" data-name="Groupe 735" transform="translate(38.525 0.308)">
          <path id="Tracé_980" data-name="Tracé 980" d="M109.621,12.289l-.007-.013-.011,0Z" transform="translate(-103.291 -6.749)" fill="#7c0e6f"/>
          <path id="Tracé_981" data-name="Tracé 981" d="M110.439,10.52a.524.524,0,0,1-.176.026C110.345,10.558,110.415,10.555,110.439,10.52Z" transform="translate(-103.192 -7.013)" fill="#7c0e6f"/>
          <path id="Tracé_982" data-name="Tracé 982" d="M109.808,9.608c.116-.024.358.035.309-.061C110,9.565,109.886,9.517,109.808,9.608Z" transform="translate(-103.261 -7.159)" fill="#7c0e6f"/>
          <path id="Tracé_983" data-name="Tracé 983" d="M110.5,11.924c.213-.035-.366-.234-.125-.235-.136-.1-.194,0-.307-.093C110.184,11.739,110.078,11.727,110.5,11.924Z" transform="translate(-103.222 -6.851)" fill="#7c0e6f"/>
          <path id="Tracé_984" data-name="Tracé 984" d="M110.074,11.607a.813.813,0,0,0-.078-.081A.527.527,0,0,0,110.074,11.607Z" transform="translate(-103.232 -6.861)" fill="#7c0e6f"/>
          <path id="Tracé_985" data-name="Tracé 985" d="M106.688,13.99l.026-.1c.008-.117-.008-.128-.046-.155Z" transform="translate(-103.732 -6.53)" fill="#7c0e6f"/>
          <g id="Groupe_734" data-name="Groupe 734">
            <path id="Tracé_986" data-name="Tracé 986" d="M104.684,12.165l-.289.113C104.446,12.359,104.554,12.24,104.684,12.165Z" transform="translate(-104.074 -6.765)" fill="#7c0e6f"/>
            <path id="Tracé_987" data-name="Tracé 987" d="M109.289,10.154v0C109.347,10.149,109.336,10.15,109.289,10.154Z" transform="translate(-103.339 -7.068)" fill="#7c0e6f"/>
            <path id="Tracé_988" data-name="Tracé 988" d="M105.117,9.813h.029C105.034,9.752,105.049,9.771,105.117,9.813Z" transform="translate(-103.974 -7.125)" fill="#7c0e6f"/>
            <path id="Tracé_989" data-name="Tracé 989" d="M109.685,12.351l-.631-.594q.362.423.7.866C109.547,12.307,109.6,12.324,109.685,12.351Z" transform="translate(-103.374 -6.827)" fill="#7c0e6f"/>
            <path id="Tracé_990" data-name="Tracé 990" d="M111.08,11.605a4.049,4.049,0,0,1,.374.393c-.429-.173-1.189-.585-1.081-.656a8.985,8.985,0,0,1,.934.3c-.145-.068-.253-.222-.143-.207l.224.127c.193-.053-.566-.276-.113-.281.037-.024.61-.006.338-.058A16.162,16.162,0,0,1,109.992,11c0-.023,0-.048.008-.071l.183.028,0-.016L110,10.914c0-.023,0-.047.007-.07.395.03.864.158,1.18.161a2.219,2.219,0,0,1-.326-.077c.112-.022.389.052.34-.029-.467-.049.047-.143-.395-.064-.131-.072.1-.063.082-.144a6.82,6.82,0,0,1-.865-.068c0-.021,0-.04,0-.061l.047,0c.039-.1.248-.177.237-.284a1.836,1.836,0,0,1,.442-.108c-.084,0-.243.006-.259-.025.388-.145.076.07.549-.068a1.909,1.909,0,0,1-.569-.045c-.41.106-.054.118.121.147-.2.031-.4.053-.595.071a2.307,2.307,0,0,0-.077-.3c.123-.115-.058-.217.127-.421a1.846,1.846,0,0,0-.265.1,1.86,1.86,0,0,0-.156-.239l0,0,0,0c-.021-.026-.038-.056-.06-.081.04-.033.076-.06.123-.1l-.15.066,0,0a1.379,1.379,0,0,0,.189-.171,2.546,2.546,0,0,1-.2.159c-.017-.02-.038-.032-.056-.049a.179.179,0,0,1,.014-.024s-.015.015-.021.018c-.017-.017-.036-.032-.054-.048.006-.01.018-.021.022-.031-.025.022-.023.01-.037.017a1.3,1.3,0,0,0-1.064-.28c0-.238,0-.477.025-.727-.089.58-.086-.88-.293-.041-.029-.135.031-.213.018-.366-.047.284-.083.342-.167.216l.007-.07c-.224.083-.316-.194-.63-.326l.082.317c-.062-.032-.1-.13-.139-.2.044.5.16,0,.208.544-.206-.643-.344.068-.623-.627-.093.026.147.35.059.375l-.092-.185.07.254c-.068-.023-.192-.247-.26-.406.023.013.024-.063.035-.082-.173-.193-.2.175-.253.116l.141.072c-.155.269-.6.234-.543.726l.112.109c.048.323-.222-.037-.277.2l-.022-.031c.082.137.1.222.059.25-.1-.16-.326-.158-.434-.34.1.36.113.242.5.681l-.223-.129c.167.168.266.24.276.34-.144-.177-.358-.163-.554-.392-.607-.1.344.531-.43.244.6.388.431.02.544.133.22.078.438.3.354.313-.035.032-.865-.29-.92-.112.01-.015-.04-.035-.03-.051-.2,0,.184.2-.116.184.4.164-.052.1.474.25l-.085-.17c.113.131.712.347.388.381a1.456,1.456,0,0,1-.312-.143c-.169,0,.089.092-.082.1-.535-.124-.079-.194-.452-.4-.237-.012.334.283-.227.089.711.24-.136.164.41.385l-.321-.06c.047.029.193.09.179.121l-.41-.124c.34.147-.338.167-.152.3.007-.219.4-.016.641-.076.423.253-.874.071-.717.4-.046-.045.2-.154.349-.09a.983.983,0,0,1-.362.17c.075.2.336-.045.539.029-.4.085.169.083.3.136l-.331.035c-.187.232.692-.035.46.163h-.468l.135.076-.377.045c.3.062.232.1.154.234.223-.079.588-.13.62-.059-.173.109-.313.054-.231.161-.207.037-.468.074-.191-.066l-.316.046c-.2.133.007.2.025.246a.125.125,0,0,1,.056-.078,4.579,4.579,0,0,0,.5.031.628.628,0,0,1-.309.1c.049.025.2-.006.251.035a1.47,1.47,0,0,1-.667.162c.122.031.242.058.36.077-.1.059-.247.237-.349.255-.082.2.605.017.5.25a.294.294,0,0,1,.151-.031c.028.143-.153.473.251.362l-.29.4c.176.028.36-.51.638-.479.209-.007-.252.334-.3.47.239-.113.646-.416.5-.022-.093.043-.077-.038-.133-.039l-.082.283c-.386.255-.388.051-.534.424.6-.7.474.239,1.008-.537l-.045.206c-.014-.02-.046.026-.058.006-.108.466.438-.526.5-.339a.38.38,0,0,1-.094.311l.215-.151c.024.029-.048.176-.076.144l.207,0-.011.025.266-.4c0,.141-.053.087-.082.2l.16-.184c-.035.244-.183.444-.243.384-.2.921.152-.191.2.385l-.132.086c-.078.531.06.369.121.724-.009-.179-.051-.873.124-1.071.012.077.048.121.145-.051-.069.328.008.26.082.252l-.082.434a1.75,1.75,0,0,0,.208-.526c.077.054.055.4.046.686.144.089-.039-.558.137-.619.094.176.193,0,.32-.26.069.154-.017.269.007.4l.068-.35c.016.008.011.117.009.171.052-.136,0-.441.074-.565,0-.485.189.7.253.145a4,4,0,0,1,.035.441l.035-.118.014-.047,0-.01.118-.018h0v-.028l.007-.13-.008-.429.117.273a3.624,3.624,0,0,1-.129-1.041l-.023-.076.021,0,0,.081.026.089-.02-.171.036-.009a3.227,3.227,0,0,1,.069.439l-.085-.259c.029.268.064.562.116.817a.431.431,0,0,1,.006-.123,1.574,1.574,0,0,0,.028.181c.01.045,0-.053,0-.167l.123.476-.03-.194a3.044,3.044,0,0,0,.267.247c.025-.519-.145-1.238-.114-1.472.114.344.228.544.4.936-.221-.4-.058.234-.2.185.069.028.127.223.136.3.016-.154.024-.306.025-.454.13.323.137.227.244.339-.316-.617-.07-.473-.108-.7.114.2.209.422.1.416.338.411-.265-.779.022-.431-.016.015-.044-.012.008.1-.061-.2.121-.118.207.064l-.017.016c.173-.009.389-.274,0-.726.053.056.453.545.522.644a11.2,11.2,0,0,0-.811-1.107.545.545,0,0,0,.046-.043,5.167,5.167,0,0,1,.946,1c.078.025.175.041.1-.14a3.456,3.456,0,0,1-.59-.5,2.966,2.966,0,0,0,.7.383,3.027,3.027,0,0,1-.646-.59c.09.079.62.476.671.544q-.259-.3-.541-.575a3.744,3.744,0,0,0,.733.484c-.136-.072.092-.106.047-.184l-.186-.043c.193-.09-.859-.692-.776-.758a4.083,4.083,0,0,0,.986.456c-.178-.122-.648-.381-1.088-.615.016-.035.036-.067.049-.1a6.706,6.706,0,0,1,1.162.68c.19.014.253.092.274-.01.213.045.275.178.271.215l.23-.2C111.4,11.892,111.454,11.708,111.08,11.605Zm-2.391,1.543c.014-.032.037-.026.084.051C108.783,13.309,108.742,13.263,108.688,13.148Zm-2.481-1.966,0,.017-.016,0C106.184,11.2,106.2,11.19,106.207,11.182Zm.71,2.877c.132-.36.1-.179.122-.061C107,14.059,106.885,14.253,106.917,14.059Z" transform="translate(-104.116 -7.471)" fill="#7c0e6f"/>
            <path id="Tracé_991" data-name="Tracé 991" d="M104.7,12.147v-.006l-.053.028Z" transform="translate(-104.036 -6.769)" fill="#7c0e6f"/>
            <path id="Tracé_992" data-name="Tracé 992" d="M108.968,9.225l.052-.1-.052.054Z" transform="translate(-103.387 -7.222)" fill="#7c0e6f"/>
            <path id="Tracé_993" data-name="Tracé 993" d="M109.7,9.447a1.5,1.5,0,0,1-.242.11l.411-.128Z" transform="translate(-103.313 -7.176)" fill="#7c0e6f"/>
            <path id="Tracé_994" data-name="Tracé 994" d="M105.763,13.384l.157-.375-.173.357Z" transform="translate(-103.871 -6.638)" fill="#7c0e6f"/>
            <path id="Tracé_995" data-name="Tracé 995" d="M104.672,13.095c.023.049.131.024.155.07C104.693,13.142,105.019,12.728,104.672,13.095Z" transform="translate(-104.032 -6.648)" fill="#7c0e6f"/>
          </g>
        </g>
        <g id="Groupe_736" data-name="Groupe 736" transform="translate(48.146)">
          <path id="Tracé_996" data-name="Tracé 996" d="M114.673,7.6l-.069-.3C114.517,7.336,114.619,7.461,114.673,7.6Z" transform="translate(-112.166 -7.188)" fill="#b37fb6"/>
          <path id="Tracé_997" data-name="Tracé 997" d="M115.95,12.453v0C115.948,12.51,115.948,12.5,115.95,12.453Z" transform="translate(-111.959 -6.414)" fill="#b37fb6"/>
          <path id="Tracé_998" data-name="Tracé 998" d="M116.92,8.379l0,.029C116.992,8.306,116.971,8.318,116.92,8.379Z" transform="translate(-111.814 -7.033)" fill="#b37fb6"/>
          <path id="Tracé_999" data-name="Tracé 999" d="M113.792,12.46l.013,0,.006-.011Z" transform="translate(-112.283 -6.415)" fill="#b37fb6"/>
          <path id="Tracé_1000" data-name="Tracé 1000" d="M113.565,12.542c.344-.158.32-.112.281-.029l.681-.534C114.211,12.176,113.892,12.364,113.565,12.542Z" transform="translate(-112.317 -6.485)" fill="#b37fb6"/>
          <path id="Tracé_1001" data-name="Tracé 1001" d="M119.91,10.014l-.093.13c-.244-.193-.141-.629-.637-.645l-.123.093c-.328,0,.068-.213-.158-.3l.033-.016c-.148.061-.235.069-.255.021.173-.077.2-.3.4-.378-.37.046-.255.075-.747.388l.16-.2c-.191.139-.277.225-.378.223.2-.116.215-.331.473-.49.186-.587-.579.26-.178-.462-.473.534-.083.423-.213.518-.11.206-.367.389-.363.3-.025-.04.418-.812.248-.893.014.012.04-.036.054-.023.025-.193-.222.153-.164-.141-.222.368-.086-.067-.317.429l.182-.056c-.147.091-.45.65-.434.326a1.5,1.5,0,0,1,.186-.288c.025-.166-.1.074-.083-.093.2-.513.2-.051.461-.389.047-.234-.328.286-.052-.238-.344.667-.143-.158-.443.349l.107-.309c-.036.041-.117.178-.146.16l.184-.388c-.2.315-.115-.359-.271-.193.215.039-.044.395-.021.645-.313.38.062-.875-.282-.767.051-.039.121.217.036.358a1,1,0,0,1-.115-.385c-.207.045-.006.339-.109.53-.024-.406-.106.154-.179.278l.016-.332c-.2-.221-.069.688-.231.43l.069-.462-.094.122.012-.38c-.106.285-.133.214-.253.116.046.232.041.6-.035.622-.083-.187-.008-.319-.124-.253-.007-.209,0-.474.093-.179V7.471c-.1-.215-.2-.023-.247-.013a.122.122,0,0,1,.07.068,4.077,4.077,0,0,0-.106.489.631.631,0,0,1-.053-.322c-.032.046-.025.2-.072.244a1.464,1.464,0,0,1-.06-.683c-.048.115-.092.229-.13.344-.044-.11-.2-.281-.2-.383-.182-.11-.107.595-.321.457a.307.307,0,0,1,.008.154c-.146.006-.445-.223-.4.193l-.353-.347c-.054.169.449.433.376.7-.025.207-.291-.3-.419-.374.076.254.315.7-.054.5-.029-.1.049-.07.058-.125l-.267-.123c-.194-.421.008-.391-.339-.592.6.7-.307.433.381,1.077l-.2-.076c.022-.009-.018-.048,0-.058-.444-.175.454.514.261.549a.375.375,0,0,1-.293-.139l.117.235c-.033.02-.168-.075-.132-.1l-.033.2-.023-.015.359.324c-.14-.026-.078-.066-.186-.112l.159.186c-.238-.071-.413-.248-.344-.3-.881-.339.166.178-.412.138l-.066-.145c-.513-.158-.374,0-.733.01.178.017.871.082,1.04.284-.077,0-.127.03.029.151-.314-.117-.259-.031-.262.043l-.415-.146c.094.123.311.184.488.285-.066.068-.4-.006-.686-.058-.109.129.557.045.592.229-.19.066-.03.191.208.353-.162.046-.263-.056-.392-.052l.335.121c-.01.014-.116-.007-.17-.018.127.072.435.07.546.16.481.068-.722.079-.182.227a3.688,3.688,0,0,1-.439-.032l.112.052.044.021.01,0h0v.123h.006l.018,0,.128.028.426.055-.288.076a3.633,3.633,0,0,1,1.048.026l.078-.012,0,.022-.081-.01-.091.014.173.006,0,.037a3.325,3.325,0,0,1-.443,0l.268-.045c-.269-.012-.566-.02-.825-.006a.386.386,0,0,1,.121.023,1.349,1.349,0,0,0-.182,0c-.047,0,.051.009.164.02l-.49.052h.2a3.4,3.4,0,0,0-.284.227c.51.1,1.246.043,1.474.108a10.152,10.152,0,0,0-.985.253c.427-.16-.224-.091-.155-.221-.037.063-.238.091-.312.091.148.037.3.068.445.091-.339.082-.245.1-.372.191.656-.22.477,0,.705,0-.216.082-.447.144-.426.036-.456.273.81-.145.423.085-.012-.017.018-.04-.1-.006.209-.03.1.138-.1.2l-.011-.018c-.017.171.211.423.717.109-.063.043-.608.365-.714.419a10.949,10.949,0,0,0,1.214-.636c.013.017.024.036.036.053a5.144,5.144,0,0,1-1.134.783c-.037.074-.067.167.124.12a3.443,3.443,0,0,1,.585-.507,2.954,2.954,0,0,0-.483.634,2.966,2.966,0,0,1,.68-.55c-.092.075-.562.541-.638.58q.338-.209.651-.447a3.77,3.77,0,0,0-.59.652c.093-.124.091.107.177.074l.068-.178c.06.2.813-.745.866-.653a4,4,0,0,0-.6.908c.146-.16.473-.584.771-.985.032.021.06.046.093.064A6.646,6.646,0,0,1,114.863,14c-.043.186-.13.237-.031.273-.077.2-.219.245-.254.237l.161.257c.214-.411.386-.326.544-.68a3.97,3.97,0,0,1-.444.311c.235-.4.758-1.087.81-.971a8.784,8.784,0,0,1-.437.878c.089-.132.257-.216.224-.109l-.158.2c.022.2.358-.519.293-.07.02.04-.085.6.007.344.059-.314.276-.994.468-1.57.023.008.047.012.07.018l-.055.176h.017l.051-.173c.022.007.046.009.068.016-.089.385-.286.829-.338,1.142a2.314,2.314,0,0,1,.128-.311c0,.114-.112.377-.024.342.12-.454.135.068.123-.381.092-.118.048.109.131.1a6.6,6.6,0,0,1,.2-.845l.062.006c0,.014,0,.036,0,.047.093.052.138.271.246.275a1.893,1.893,0,0,1,.039.454c.017-.083.031-.242.066-.253.084.4-.082.066-.016.553a1.918,1.918,0,0,1,.13-.556c-.044-.422-.109-.071-.164.1,0-.2.009-.4.02-.6a1.959,1.959,0,0,0,.307-.032c.093.141.223-.024.4.19a1.634,1.634,0,0,0-.056-.276,1.741,1.741,0,0,0,.261-.12l0,0,0,0c.028-.016.06-.029.087-.046.028.046.047.084.081.137l-.043-.158,0,0a1.229,1.229,0,0,0,.14.212,2.189,2.189,0,0,1-.125-.224c.021-.015.037-.033.058-.049.009.009.01.007.021.017a.243.243,0,0,0-.015-.022l.055-.047c.01.007.018.022.029.026-.018-.029-.008-.025-.013-.04a1.292,1.292,0,0,0,.436-1.01c.236.038.474.074.718.135-.56-.175.882.047.084-.284.137-.008.206.063.359.074-.273-.089-.324-.133-.189-.2l.069.017c-.048-.234.239-.284.416-.575l-.327.033c.041-.056.143-.074.223-.107-.5-.031-.02.159-.568.125.666-.108-.016-.351.713-.523-.013-.1-.369.092-.38,0l.2-.063-.263.031a1.054,1.054,0,0,1,.442-.2c-.016.021.06.033.075.047C120.2,10.141,119.842,10.061,119.91,10.014Zm-6.384-.284c-.055-.051-.229-.191-.041-.129C113.82,9.788,113.645,9.73,113.526,9.73Zm.53,1.836c-.113-.006-.061-.039.062-.075C114.147,11.51,114.138,11.532,114.056,11.566Zm2.376-2.233h-.016V9.318C116.421,9.309,116.428,9.328,116.432,9.333Z" transform="translate(-112.48 -7.203)" fill="#b37fb6"/>
          <path id="Tracé_1002" data-name="Tracé 1002" d="M114.673,7.616l.007,0-.02-.057Z" transform="translate(-112.152 -7.149)" fill="#b37fb6"/>
          <path id="Tracé_1003" data-name="Tracé 1003" d="M116.929,12.276l.09.066-.046-.058Z" transform="translate(-111.811 -6.44)" fill="#b37fb6"/>
          <path id="Tracé_1004" data-name="Tracé 1004" d="M116.594,13.139l.008-.168a1.43,1.43,0,0,1-.071-.255Z" transform="translate(-111.871 -6.374)" fill="#b37fb6"/>
          <path id="Tracé_1005" data-name="Tracé 1005" d="M116.437,13.363c0-.12.066-.223-.014-.315C116.43,13.166,116.336,13.4,116.437,13.363Z" transform="translate(-111.892 -6.324)" fill="#b37fb6"/>
          <path id="Tracé_1006" data-name="Tracé 1006" d="M114.07,13.379c0,.216.286-.326.251-.089.12-.118.03-.192.139-.29C114.3,13.1,114.327,13,114.07,13.379Z" transform="translate(-112.241 -6.331)" fill="#b37fb6"/>
          <path id="Tracé_1007" data-name="Tracé 1007" d="M112.843,9.327l-.26-.021.1.043C112.8,9.374,112.81,9.359,112.843,9.327Z" transform="translate(-112.465 -6.887)" fill="#b37fb6"/>
          <path id="Tracé_1008" data-name="Tracé 1008" d="M113.357,8.476l-.02.012.346.212Z" transform="translate(-112.351 -7.011)" fill="#b37fb6"/>
          <path id="Tracé_1009" data-name="Tracé 1009" d="M113.769,7.45c-.054.015-.044.125-.094.143C113.719,7.463,114.08,7.848,113.769,7.45Z" transform="translate(-112.3 -7.166)" fill="#b37fb6"/>
        </g>
        <g id="Groupe_737" data-name="Groupe 737" transform="translate(58.7 0.222)">
          <path id="Tracé_1010" data-name="Tracé 1010" d="M125.978,12.539c.023.071.044.122.058.122Z" transform="translate(-121.006 -6.623)" fill="#d7bede"/>
          <path id="Tracé_1011" data-name="Tracé 1011" d="M124.252,13.232l-.1.293C124.246,13.539,124.224,13.379,124.252,13.232Z" transform="translate(-121.28 -6.519)" fill="#d7bede"/>
          <path id="Tracé_1012" data-name="Tracé 1012" d="M125.707,8.393v0C125.739,8.346,125.733,8.355,125.707,8.393Z" transform="translate(-121.047 -7.251)" fill="#d7bede"/>
          <path id="Tracé_1013" data-name="Tracé 1013" d="M122.749,11.358l.018-.023C122.649,11.382,122.672,11.382,122.749,11.358Z" transform="translate(-121.501 -6.804)" fill="#d7bede"/>
          <path id="Tracé_1014" data-name="Tracé 1014" d="M127.55,9.518l-.013,0-.011.007Z" transform="translate(-120.774 -7.078)" fill="#d7bede"/>
          <path id="Tracé_1015" data-name="Tracé 1015" d="M127.891,9.643c-.376-.046-.331-.072-.254-.122l-.859.1C127.148,9.616,127.519,9.625,127.891,9.643Z" transform="translate(-120.886 -7.077)" fill="#d7bede"/>
          <path id="Tracé_1016" data-name="Tracé 1016" d="M128.375,9.654a3.367,3.367,0,0,1-.765.125,3,3,0,0,0,.744-.286,3.037,3.037,0,0,1-.868.112c.12-.016.764-.164.849-.159-.265,0-.529.014-.788.039a3.851,3.851,0,0,0,.843-.245c-.144.056-.021-.139-.11-.155l-.152.115c.056-.206-1.085.207-1.081.1a4.024,4.024,0,0,0,.986-.458c-.209.059-.711.247-1.174.433-.016-.033-.025-.069-.043-.1a6.668,6.668,0,0,1,1.268-.447c.133-.137.235-.133.169-.216.171-.132.315-.094.34-.069l0-.3c-.4.236-.5.074-.82.292a4.009,4.009,0,0,1,.542-.031c-.408.215-1.216.527-1.2.4a8.648,8.648,0,0,1,.832-.518c-.145.066-.331.049-.247-.025l.242-.09c.084-.181-.577.253-.288-.1,0-.044.389-.469.175-.3a16.266,16.266,0,0,1-1.224,1.09c-.015-.02-.033-.035-.049-.053l.14-.121-.015-.008-.133.121c-.016-.017-.035-.033-.051-.051.278-.282.68-.557.887-.8a2.1,2.1,0,0,1-.269.2c.055-.1.292-.262.2-.277-.34.324-.081-.129-.3.26-.14.053.016-.118-.057-.158a6.625,6.625,0,0,1-.611.618c-.016-.014-.032-.024-.048-.037l.026-.039c-.051-.093.025-.3-.064-.363a1.881,1.881,0,0,1,.2-.408c-.059.062-.153.19-.19.182.143-.389.1-.013.3-.461-.144.229-.281.276-.4.4-.185.383.054.117.19,0-.106.171-.22.339-.331.5a2.2,2.2,0,0,0-.277-.135c-.007-.168-.2-.1-.239-.368a2.036,2.036,0,0,0-.1.265,1.729,1.729,0,0,0-.284-.036l0,0v0c-.032,0-.066-.007-.1-.007,0-.052,0-.1,0-.159l-.046.158h-.006a1.221,1.221,0,0,0-.008-.254,2.34,2.34,0,0,1-.01.257c-.025,0-.049.009-.075.013a.139.139,0,0,1-.01-.026c0,.006,0,.021,0,.028-.024,0-.048.007-.071.01,0-.012,0-.028-.01-.037,0,.033-.007.024-.01.04a1.3,1.3,0,0,0-.905.635c-.178-.155-.36-.315-.535-.495.385.443-.726-.5-.221.2-.121-.064-.141-.161-.267-.25.186.219.207.283.056.267l-.049-.051c-.082.224-.352.115-.656.27l.3.143c-.064.026-.161-.012-.246-.025.41.288.1-.125.55.192-.623-.258-.171.306-.882.071-.039.087.362.114.324.2l-.2-.048.239.112a1.066,1.066,0,0,1-.479-.064c.025-.009-.032-.06-.039-.081-.259.008.006.266-.076.269l.148-.061c.106.292-.211.608.2.883l.154-.015c.278.173-.17.146-.025.342l-.038,0c.158.025.236.064.229.116-.188-.025-.331.147-.541.11.339.156.258.071.84.063l-.243.086c.236-.018.354-.047.439.009-.229-.006-.357.168-.659.169-.467.4.629.083-.091.485.682-.2.292-.316.453-.328.2-.117.515-.138.468-.068,0,.047-.781.472-.68.628-.006-.016-.053.009-.059-.008-.123.151.27-.014.066.207.383-.2.039.1.5-.2l-.185-.047c.173,0,.725-.317.541-.049a1.463,1.463,0,0,1-.309.147c-.109.128.127-.008.021.123-.442.329-.2-.064-.6.089-.163.174.429-.072-.082.23.644-.388.04.208.561-.064l-.254.207c.052-.017.193-.09.209-.06l-.361.234c.332-.164-.091.366.129.307-.162-.146.244-.313.358-.538.465-.159-.512.713-.163.8-.063.007.01-.25.158-.323a1,1,0,0,1-.1.388c.2.07.183-.285.372-.393-.192.359.171-.076.3-.143l-.187.274c.056.294.42-.55.422-.245l-.3.358.145-.054-.209.317c.24-.187.225-.113.277.033.084-.222.28-.533.357-.512-.03.2-.162.276-.028.282-.1.181-.246.4-.174.1l-.168.271c-.028.237.155.124.2.14a.125.125,0,0,1-.022-.094,4.655,4.655,0,0,0,.346-.361.64.64,0,0,1-.125.3c.053-.022.127-.159.19-.169-.1.253-.174.522-.307.613.1-.072.2-.147.292-.225-.022.117.02.343-.032.431.1.19.4-.45.514-.221a.314.314,0,0,1,.074-.135c.127.071.261.422.439.043l.118.482c.135-.116-.155-.605.047-.8.131-.163.092.407.162.537.068-.255.1-.763.309-.4-.028.1-.078.035-.115.077l.162.245c-.054.461-.212.329-.021.682-.148-.913.489-.207.24-1.116l.129.168c-.023,0-.01.051-.032.047.285.382-.118-.675.066-.6a.38.38,0,0,1,.177.273l.022-.261c.039,0,.1.151.062.151l.135-.155.013.025-.136-.465c.106.1.032.1.1.193l-.038-.242c.163.184.221.427.137.434.573.75-.048-.239.422.1l-.021.158c.355.4.322.192.63.376-.143-.11-.7-.527-.737-.788.067.04.124.041.055-.143.206.265.2.161.245.1l.278.343a1.77,1.77,0,0,0-.266-.5c.091-.023.338.215.552.408.162-.052-.45-.33-.383-.5.194.043.125-.147.007-.411.165.046.2.186.308.251l-.223-.28c.016-.006.1.068.137.1-.071-.128-.335-.286-.383-.421-.375-.311.658.311.274-.1a4.21,4.21,0,0,1,.358.26l-.068-.1-.028-.041,0,0v0h0l.062-.1-.007-.007-.014-.014-.094-.09-.332-.27.284.087a3.638,3.638,0,0,1-.878-.575l-.074-.031L126.8,11l.064.051.084.037-.144-.1.017-.031a3.14,3.14,0,0,1,.38.231l-.253-.1c.224.152.472.315.7.438a.381.381,0,0,1-.09-.083,1.412,1.412,0,0,0,.153.1c.043.021-.038-.036-.129-.1l.444.213-.168-.1c.118-.008.238-.023.361-.044-.381-.354-1.039-.69-1.2-.865.337.136.562.178.971.3-.446-.089.141.194.016.269.066-.035.251.047.314.086-.107-.11-.219-.215-.332-.312.332.109.263.041.418.033-.674-.158-.406-.252-.6-.368.228.044.457.113.381.193.531.007-.766-.3-.315-.3,0,.022-.037.025.078.055-.194-.084-.012-.169.184-.116V10.5c.1-.137.044-.472-.552-.469.076,0,.709.008.828.018a10.751,10.751,0,0,0-1.368-.1l0-.062a5.1,5.1,0,0,1,1.378-.071C128.488,9.778,128.563,9.715,128.375,9.654Zm-.882,1.568c.092.063.031.066-.092.031C127.386,11.221,127.405,11.208,127.493,11.221Zm-3.2.653.015.009-.007.014C124.3,11.9,124.3,11.884,124.3,11.875Zm2.686,1.187c.018.071.094.283-.033.132C126.761,12.859,126.879,13,126.983,13.062Z" transform="translate(-121.656 -7.384)" fill="#d7bede"/>
          <path id="Tracé_1017" data-name="Tracé 1017" d="M124.257,13.186l0,0-.013.059Z" transform="translate(-121.267 -6.527)" fill="#d7bede"/>
          <path id="Tracé_1018" data-name="Tracé 1018" d="M126.633,7.918c.062-.055.1-.109.094-.151A.5.5,0,0,1,126.633,7.918Z" transform="translate(-120.908 -7.34)" fill="#d7bede"/>
          <path id="Tracé_1019" data-name="Tracé 1019" d="M124.786,8.039l-.043-.1.009.074Z" transform="translate(-121.192 -7.315)" fill="#d7bede"/>
          <path id="Tracé_1020" data-name="Tracé 1020" d="M125.423,7.657a1.551,1.551,0,0,1-.072.254l.168-.395Z" transform="translate(-121.1 -7.378)" fill="#d7bede"/>
          <path id="Tracé_1021" data-name="Tracé 1021" d="M125.773,7.4c-.062.1-.173.155-.153.276C125.677,7.567,125.878,7.42,125.773,7.4Z" transform="translate(-121.06 -7.396)" fill="#d7bede"/>
          <path id="Tracé_1022" data-name="Tracé 1022" d="M127.577,8.582c-.163.038-.127.147-.27.173.186,0,.11.075.53-.117C127.949,8.452,127.423,8.765,127.577,8.582Z" transform="translate(-120.806 -7.219)" fill="#d7bede"/>
          <path id="Tracé_1023" data-name="Tracé 1023" d="M126.741,12.7l.209.154-.062-.089C126.8,12.686,126.786,12.691,126.741,12.7Z" transform="translate(-120.891 -6.6)" fill="#d7bede"/>
          <path id="Tracé_1024" data-name="Tracé 1024" d="M125.852,13.185h.024l-.184-.362Z" transform="translate(-121.049 -6.58)" fill="#d7bede"/>
          <path id="Tracé_1025" data-name="Tracé 1025" d="M124.952,13.829c.053.016.1-.084.154-.072C125,13.845,124.9,13.327,124.952,13.829Z" transform="translate(-121.162 -6.463)" fill="#d7bede"/>
        </g>
        <g id="Groupe_738" data-name="Groupe 738" transform="translate(69.303 0.736)">
          <path id="Tracé_1026" data-name="Tracé 1026" d="M133.557,7.843a2.6,2.6,0,1,1-.016,5.191,2.6,2.6,0,1,1,0-5.191Zm-.032.52a2.069,2.069,0,0,0,.032,4.135,1.982,1.982,0,0,0,1.972-2.052,2.012,2.012,0,0,0-1.988-2.083Zm-.393,3.408h-.6V9.184a6.885,6.885,0,0,1,.993-.079,1.372,1.372,0,0,1,.883.206.647.647,0,0,1,.269.552.668.668,0,0,1-.537.615v.031c.252.079.38.284.459.632a2.282,2.282,0,0,0,.189.63h-.632a2.072,2.072,0,0,1-.2-.63c-.047-.268-.206-.395-.537-.395h-.283Zm.016-1.45h.283c.332,0,.6-.112.6-.38,0-.237-.174-.395-.553-.395a1.4,1.4,0,0,0-.33.032Z" transform="translate(-130.873 -7.843)" fill="#161615"/>
        </g>
      </g>
      <path id="Tracé_1027" data-name="Tracé 1027" d="M29.709,30.664a.515.515,0,0,1,.127.052l-.1.082A.888.888,0,0,0,29.709,30.664Z" transform="translate(4.029 4.633)" fill="#7c0e6f"/>
      <path id="Tracé_1028" data-name="Tracé 1028" d="M31.6,32.48c-.192.118-.275-.107-.442-.039l.282.15c.008.158-.223.016-.329.067-.061-.278-.477-.257-.649-.527.03-.017.068-.041.1-.066-.251.022-.507.043-.765.062.053-.056.164-.035.174-.061.06-.092-.323.02-.243-.127.061-.022.131-.07.2-.048.01-.169-.1-.082-.252-.239,0,.14-.474.145-.525,0,.051-.206-.212-.345.182-.488l-.2-.091c.293.058.1-.131.152-.2.323-.023-.01.309.513.307.053-.136.213-.078.354-.035-.049-.147-.373-.053-.584-.117.13,0,.04-.251.323-.166.02-.125-.313-.144-.253-.237a2.894,2.894,0,0,0,.46.017c-.108-.01.025-.13.033-.154-.06.023-.274-.039-.181.069-.252-.025-.017-.259-.228-.25.291-.016.053-.237.171-.354-.686.023.268.209-.3.257-.237-.148-.036-.513-.345-.751.125-.216.262-.007.515-.058.115.194-.085.25.04.416a.485.485,0,0,0-.178-.626c-.037-.2.679-.247.5-.49-.221.041-.271.038-.351.117-.081-.063,0-.143-.006-.214-.141-.038-.167.116-.292.023a.221.221,0,0,1,.219-.113l.021.015c-.208-.227.533-.192.1-.377-.109.022.033.06-.037.112a.6.6,0,0,1-.492-.16c.152.009.023-.084.07-.152.25-.056.082.161.255.187l.028-.185-.038.04-.254-.185c.09.133-.309.081-.342.023a.316.316,0,0,1,.367-.277c-.284,0-.284-.171-.353-.288-.092.137-.24.03-.335,0l.269-.213c.094.2.251-.06.444-.024.3.041.154.178.121.291.51-.248-.3-.285-.063-.488.131-.009.283,0,.26.082.086-.04-.263-.154-.122-.291-.089.039-.345.13-.464.012l.311-.189c.059-.2-.346-.04-.506-.185l-.216.12c-.283.006-.013-.212-.324-.191-.006.1.24.133.158.243-.3.061-.17-.118-.336-.163.117-.221.133-.178.357-.358.474-.046.607.213,1.217.13-.093-.2-.286-.5-.118-.656-.161-.176-.531-.121-.8-.066-.06-.071-.023-.114.041-.171l.16.072c-.176-.216-.352-.329-.368-.572-.1-.127-.372-.038-.588.021l-.067-.14-.058.03c-.3,0-.217-.136-.217-.234.129-.017.166.038.246.023.1-.1.054-.228-.083-.28.129-.018.426,0,.347.118-.029.014-.078.016-.107.03l.189.152c-.183-.181.133-.343.444-.38-.183-.182-.3.207-.447-.017.564-.4-.27-.573.567-.889-.2-.121-.534-.246-.594-.473-.259.047-.125-.136-.441-.053-.3.275.568.319.121.576.137.077.351.008.5.03.036.085.02.173-.137.208-.2-.176-.638.045-.691-.206-.214.069-.1.258-.143.358a.529.529,0,0,0-.349.115c-.22-.032-.424-.144-.618-.186.124.006.186-.052.26-.043l-.412-.191a.724.724,0,0,1,.476-.141c.055-.156-.332-.33.054-.4-.092-.171-.219.1-.326.136l-.022-.01.062.185c-.442.1.071-.237-.36-.187-.818.125.212-.315.061-.427l.608.039-.152-.11a5.792,5.792,0,0,1,.887.031c-.012-.2.113-.511-.035-.612a1.657,1.657,0,0,1,.569-.177c-.415-.116.107-.353.072-.533a.158.158,0,0,0-.1-.01,3.43,3.43,0,0,0,.171-.537,12.346,12.346,0,0,0,.132-2.142.928.928,0,0,1,.023-.1c-.066-.048-.262.072-.183-.159-.085.193-.169.144-.265.223.231-.63-.355-.018-.323-.254-.041.092.006.118-.036.212-.061.114-.171.131-.177.037V18.3l-.152.109.078-.232c-.2.153-.3.741-.527.8-.147-.13.2-.508.235-.766l-.221.174c.213-.385-.206-.061.031-.4-.115-.078-.245.291-.35.306.071-.23-.167.059-.183-.085a.294.294,0,0,1-.025.116c-.238.024.148-.705-.352-.193-.051.11.062.052-.032.182-.015-.115-.262,0-.022-.323-.209.186-.1.265-.282.27-.078.176-.035.2-.062.316a.193.193,0,0,1-.209.091.376.376,0,0,1-.077.224c-.046-.029-.018-.143-.014-.236a.534.534,0,0,1,.242-.248c0-.068-.143.123-.114.012l.2-.277c-.084-.054-.293.311-.3.082a.863.863,0,0,1-.082.174c-.267.207-.141-.393-.342-.216-.116.365-.221.094-.357.4.076-.228-.055-.173-.166-.132a3.263,3.263,0,0,1,.139.638c.018.158.048.285.076.419a.3.3,0,0,1-.115-.064c-.047.017-.083.048-.128.068.1.007.182.024.247.023l.006.035c-.075.151-.452.331-.166.374-.189-.044-.292.113-.355-.029-.186-.013-.123.1-.3.191.071.015.319-.16.311-.035l-.048.014.4.043c-.109.225.522.239.193.482l.326-.139a1.166,1.166,0,0,0,.23.3.37.37,0,0,1-.338-.079c.022.2.25.335.564.4a1.321,1.321,0,0,0,.234-.22,1.009,1.009,0,0,1,.108.038l.055.022c-.082.068-.155.141-.036.19a3.334,3.334,0,0,0-.605.156c.244.012.227.146.443.177-.312.129-.606.122-.679-.045.247-.212-.284-.217-.041-.4l-.186.127c-.093-.071-.1-.143-.164-.2.023.175-.541.409-.232.436-.154.055-.3.191-.458.16-.112-.062.077-.184-.15-.128.035.09-.11.093-.036.222a2.546,2.546,0,0,1,.87.018c.184.07.212.219.145.328-.058-.1-.369-.141-.577-.059.32-.014-.191.271.223.136,0,.133.068.345-.292.439-.166-.086.026-.251-.077-.332,0,.029-.086.077-.176.083v-.155c-.147.154-.27.16-.2.289.028-.015.082-.046.1-.038.02.033.012.081.031.114l-.334.079c.182.071-.182.349.093.506l-.072,0c-.043.175.623.059.734.224a1.2,1.2,0,0,0-.459.067c.184.056-.085.155-.16.258.179-.138.368.006.466-.089.337-.064.369.122.345.223-.427.128-.289-.251-.712-.033-.022.1.23.082.3,0a.529.529,0,0,1-.3.436c.354.089.185.17.629.2-.032-.074-.343-.032-.191-.151l.339.056c.046.133-.217.282-.248.386l-.151-.083.051,0c-.143-.022-.089-.156-.323-.108.316.045.035.158.257.251l-.049,0c.273.183-.452.429.185.489-.015-.038.219-.145.339-.136-.144.068-.078.194-.26.212l-.066-.039c-.036.129-.058.2.007.242.225.01.392-.044.523.032-.116.232-.523-.032-.7.136l.252.174-.2.064c-.17.314.53.479.545.81a.493.493,0,0,1-.525-.268c-.292.124.128.235-.075.386-.043.127.265.2.456.166.131.147-.194.124-.252.15.374.023.255.228.344.347l-.209.018.274.179c.018-.052.211-.017.34-.025l-.016.052c.564-.229-.43-.407.212-.65.085.056.19-.035.274.022-.017.052-.046.064-.125.076.173.018.329.091.312-.017.444-.025.346.2.507.339-.275.136-.431-.1-.646-.145.033.054.229.089.123.177h-.334c.2.192.294.038.62.064.427.031-.007.187.026.24l-.085-.056c-.129.167.225.184.2.33l-.258.081c.321-.2-.479-.2-.315-.307-.294.276-.687-.021-.974-.083.067.107.033.209-.144.278.444.14-.138.342.383.475-.058.09-.234-.066-.242.026a.536.536,0,0,0,.227.516c-.008.093-.159.083-.3.113-.189.446.612.6.435,1.089l-.184-.067c-.037.1-.1.189.147.236-.567.135.36.434-.255.6-.113.216.383.224.474.395-.132,0-.375-.051-.436.038a8,8,0,0,1,.337,1.673.216.216,0,0,1-.109-.053c-.061.4.484.805.294,1.135.033.026.074.075.125.116a.111.111,0,0,1-.036.04.356.356,0,0,0-.1-.048.536.536,0,0,1,.028.083.251.251,0,0,0-.058.036.09.09,0,0,1,0-.025c-.059-.15-.115.061-.223-.094a.36.36,0,0,1,.078.187c.038.035.07.084.107.122a3.157,3.157,0,0,0,.032,1.145c.156-.1.051.6.216.565.16-.466.173.392.378-.016-.124.317.145.206-.033.546.014.223.246-.081.352,0,.008.067.014.132.02.2a.243.243,0,0,1-.037.086c.023-.021.03-.01.044-.014,0,.043.01.085.013.128l.054.036c0,.062.012.118.046.128l.014-.087.133.089c.037.075-.041.106-.028.338.053-.372.14-.182.227-.207l.016.01a.292.292,0,0,0-.052.083c-.015,0-.032.007-.051.055a1.47,1.47,0,0,0,.008.2c-.144.1-.307.1-.465.2,0,.112.242.181.29.19l.024-.052c.236-.043.183.13.278.216.114-.01.248-.012.389-.014.008.013.009.032.026.036,0-.016.006-.023.008-.036.094,0,.189-.006.285-.012l0,.031c.007-.009.01-.024.017-.033.078-.006.155-.013.231-.025a.714.714,0,0,0-.06.3l.11-.221.031.189-.018.016c.071-.062.139.032.1.156-.038.094-.09.079-.127.173.146-.186.129.671.415.061.01.127.107.154.03.351.108-.22.162.009.245.024a1.01,1.01,0,0,1,.055-.087,12.089,12.089,0,0,0,1.441-1.59,3.547,3.547,0,0,0,.294-.564c-.012-.028-.018-.044-.031-.078l-.022-.128c-.117-1.066.608-1.559,1.413-1.978a.559.559,0,0,0-.585.022l.008-.22a.762.762,0,0,1-.615.3c-.252-.09-.668-.023-.689-.243.178-.2.724.077.964-.031l-.238-.072.181-.093.018.017c-.075-.069,0-.181.133-.17.1.018.1.087.2.1-.213-.122.635-.37-.02-.535.121-.053.129-.182.338-.148-.288-.081.115-.276-.066-.375.1.02.267-.048.192-.118-.116.077-.224.015-.381-.056.217-.058.052-.285.406-.291a1.667,1.667,0,0,0-.687-.153c.217-.06.194-.3.594-.229-.054.06-.146.2.127.192.16-.112-.106-.062-.138-.167.072.014.252-.049.368-.021A.184.184,0,0,1,31.6,32.48ZM27.772,21.2c.055-.014.1-.014.16-.031a.17.17,0,0,1,.041,0,.266.266,0,0,1-.2.035Zm-.231.076c-.012-.008-.017-.02-.028-.028.058-.008.121-.022.183-.035-.03.072-.069.15-.1.213-.014-.1-.3-.021-.42-.017l-.021.173c-.355.072-.078-.187-.274-.217C27.211,21.337,27.215,21.309,27.54,21.279Zm2.142,10.856-.07,0c0-.015,0-.029.012-.044C29.64,32.109,29.664,32.122,29.682,32.136Z" transform="translate(3.097 2.722)" fill="#7c0e6f"/>
      <path id="Tracé_1029" data-name="Tracé 1029" d="M42.61,17.918c-.052-.025-.087-.052-.072-.087C42.562,17.86,42.585,17.89,42.61,17.918Z" transform="translate(5.957 2.704)" fill="#7c0e6f"/>
      <path id="Tracé_1030" data-name="Tracé 1030" d="M43.516,33.592l.022-.007a.654.654,0,0,1,.2.113.481.481,0,0,1-.246-.028A.725.725,0,0,0,43.516,33.592Z" transform="translate(6.101 5.072)" fill="#7c0e6f"/>
      <path id="Tracé_1031" data-name="Tracé 1031" d="M42.727,31.749c-.008-.015-.017-.03-.026-.044.018,0,.028.009.048.014Z" transform="translate(5.982 4.789)" fill="#7c0e6f"/>
      <path id="Tracé_1032" data-name="Tracé 1032" d="M43.881,33.583c.028.008.053.017.079.026a.143.143,0,0,1-.041.028A.314.314,0,0,1,43.881,33.583Z" transform="translate(6.159 5.072)" fill="#7c0e6f"/>
      <path id="Tracé_1033" data-name="Tracé 1033" d="M30.659,2.718c.025-.063-.217-.1-.246-.312-.1.018-.12.352.113.491-.121.014-.381,0-.476.024.125.189.11.017.206.066l-.285.125-.1-.251c-.038.3-.511-.041-.748-.041.268.273.391.19.6.253.228.436-.207-.13-.289.06a.7.7,0,0,0,.17.227l-.321-.148a.131.131,0,0,0,.1.114c-.447-.125-.354-.415-.7-.291.01-.3.3.069.391-.086-.114-.284-.464-.227-.605-.309-.055.2.317.641-.037.566.227.026.245.263.4.115.211.06.072.176.2.358-.084-.01-.246-.33-.313-.171l.044.038-.453-.12c-.02.328-.683.06-.487.508l-.252-.322a1.411,1.411,0,0,1-.412.26c.177.147.262.089.391.068-.136.251-.467.252-.82.16A2.194,2.194,0,0,1,26.6,3.56c-.52-.269.1.4-.254.38.273.282.283.184.513.5-.251-.116-.306.06-.538-.015.237.314.528.46.7.291-.121-.374.429-.094.3-.433l.11.237a1.627,1.627,0,0,0,.294-.117c-.11.2.282.721-.045.595.122.141.176.369.363.42.156-.014.045-.25.239-.069-.094.085.052.164-.114.274a2.289,2.289,0,0,0-.887-.42.316.316,0,0,0-.336.335c.117-.1.449.01.606.22-.309-.179.025.442-.3.06-.083.164-.273.4.022.71.215-.025.127-.336.278-.386-.017.038.037.145.123.2l.093-.2c.053.273.17.344.016.473-.018-.033-.052-.1-.079-.1-.038.031-.061.1-.1.129l.276.278c-.222-.006-.039.566-.413.588l.072.037c-.072.23-.645-.284-.859-.154a1.139,1.139,0,0,1,.4.342c-.216-.038-.018.231-.015.4-.083-.267-.359-.2-.39-.373-.284-.27-.435-.071-.477.061.328.4.441-.127.705.375-.043.131-.273-.038-.286-.17a.777.777,0,0,0,.007.692c-.4-.1-.288.1-.728-.138.078-.067.347.167.278-.064l-.357-.133c-.13.131.022.462-.02.591l.2,0-.047-.035c.152.068.185-.129.378.069-.328-.133-.137.163-.411.129l.046.033c-.384.035.132.749-.508.427.037-.037-.108-.3-.23-.361.087.161-.052.271.107.4l.085,0c-.047.174-.076.277-.161.282-.215-.127-.338-.292-.508-.284-.039.344.508.284.565.588l-.349.051.141.2c-.047.479-.795.245-1.032.6a.5.5,0,0,0,.664.032c.19.329-.274.184-.187.484-.047.173-.38.055-.533-.106-.217.081.1.266.135.33-.361-.215-.389.092-.55.169l.179.158-.37.023c.018-.069-.182-.158-.3-.251l-.018.068c-.365-.621.666-.177.237-.863-.114.007-.152-.161-.267-.154-.017.07,0,.1.068.167-.173-.092-.363-.113-.277-.222-.391-.315-.45,0-.688.047.163.33.46.174.688.26-.067.039-.268-.051-.23.117l.306.217c-.306.089-.294-.15-.611-.331-.412-.246-.116.211-.183.248l.116-.006c.009.27-.327.055-.4.231l.183.259c-.163-.43.565.1.488-.136.089.5.642.43.947.546-.133.076-.171.213-.055.408-.5-.136-.1.479-.667.281-.009.135.26.084.2.189a.713.713,0,0,1-.56.413c-.056.109.089.2.2.327-.135.632-.96.262-1.132.933l.211.049c-.036.14-.043.28-.293.164.42.545-.618.232-.186.843-.052.316-.5-.02-.7.1.116.092.368.206.36.344a7.12,7.12,0,0,0-.878.89l.227.2-.175.19c.049-.009.078.022.113.043a2.439,2.439,0,0,1-.228.151c.145-.082-.194.037-.342.092-.017-.006-.026,0-.037.014l-.033.013a1.934,1.934,0,0,0-.706.533c-.028.032-.037.068-.061.1a.6.6,0,0,0-.293.4c-.116.012-.347.138-.513-.087.028-.107-.222-.323-.386-.444-.433.146.271.456.062.615.338.369.352.1.669.331,0,.008-.009.015-.013.024l-.413.106c.01.275-.324.275-.237.577,0-.1.308.212.23-.023-.029,0-.047-.029-.077-.026.11-.238.231-.092.4-.118,0,.012,0,.022,0,.033a.841.841,0,0,0-.43.5c-.24-.253-.209.056-.412-.029l.018.033a.392.392,0,0,0-.326-.036l.308.315c-.1.045-.154-.159-.25-.114a.448.448,0,0,0-.112.741c-.114.116-.336,0-.382.176a1.567,1.567,0,0,0,.2.085c-.121.36-.476.637-.473,1.085a1.046,1.046,0,0,1-.765.271c.069-.041.114-.286-.158-.334-.184-.054-.2.085-.322.13.191.123,0,.38.254.29.35.367-.358.351.024.666-.147-.053-.265.277-.538.208.15.162.214-.051.328.045l-.138.079.113.1c-.067.32-.559-.028-.726.053l.048.032-.127.044.382.147c-.148.115-.472-.036-.649.079l.085.1-.175.012a.127.127,0,0,1,.1.063c-.352-.151-.39.164-.694.045,0,.1.314.469.01.349l.365.291c.2-.187-.192-.3.1-.426.339.572-.051,1.018-.308,1.316-.4.06-.375.828-.974.468l.232.166-.166.605c-.013.01-.022.025-.035.037a2.244,2.244,0,0,0,.158.189c.03.03.063.04.094.068a.619.619,0,0,0,.383.327c.017.129.148.383-.047.564-.1-.031-.28.242-.378.421.16.477.4-.294.554-.062.315-.368.067-.386.259-.734.008,0,.015.012.023.015l.123.454c.248-.008.27.361.539.268-.093,0,.174-.338-.036-.254.006.031-.023.052-.02.084-.223-.123-.1-.254-.133-.443h.031c.127.221.3.442.485.477-.215.262.064.232,0,.454l.029-.021a.507.507,0,0,0-.012.358l.267-.336c.047.106-.135.168-.087.274.054.168.415.5.68.129.114.128.02.37.184.424a1.923,1.923,0,0,0,.066-.222c.335.137.608.53,1.016.531a1.387,1.387,0,0,1,.3.844c-.041-.076-.267-.128-.293.17-.038.2.09.216.138.355.1-.208.345,0,.248-.276.311-.382.342.4.6-.021-.039.161.269.3.222.6.139-.163-.059-.237.021-.361l.082.153.079-.124c.294.077.01.617.094.8l.025-.053.048.14.109-.42c.114.164,0,.519.114.715l.085-.093.022.192a.129.129,0,0,1,.052-.1c-.115.386.174.431.084.763.1.006.407-.339.316-.007l.242-.4c-.183-.219-.261.209-.393-.113.5-.368.929.067,1.217.353.078.439.776.421.487,1.077l.136-.253.56.186c.293.416.793.581.833,1.131l.219-.118c-.2.875.759,1.127.339,2.016.292-.021.183-.317.274-.461.168.046-.038.692.347.468.094-.11-.075-.252.058-.253.258-.128-.055.314.236.171a.689.689,0,0,0-.139.764c-.035-.015-.035-.015-.067,0-.161.141-.028.2.008.278a.187.187,0,0,0,.031-.077,5.942,5.942,0,0,0,1.571,2.15c-.015-.063-.03-.131-.046-.2a1.083,1.083,0,0,0,.564.137,1.468,1.468,0,0,0,.4.245.209.209,0,0,1-.116,0,.483.483,0,0,0-.044.1c.319-.028-.117.529.324.321l0-.064c.212.245.655.035.705.449.28.058.409-.129.659-.154.092.114-.043.365-.074.411l-.062-.033c-.222.136-.038.268-.044.427-.319.245-.709.743-1.179.84-.055-.255-.572.332-.69.107.263-.5-.5.048-.329-.47-.166.36-.312-.04-.449.4-.254.153-.108-.574-.456-.442-.035.081-.1.14-.1.2-.022-.335-.283.071-.4-.059l.258-.278c.036-.143-.156.043-.154-.052a.4.4,0,0,0,.319-.213c0-.128.039-.27-.022-.335a.372.372,0,0,0-.1.267.222.222,0,0,0-.281.007c-.036.143.025.207-.075.411-.246-.1-.1.077-.38.212.32-.308-.023-.3-.049-.479-.129.123.028.113-.038.237-.7.393-.176-.386-.515-.506a.257.257,0,0,0-.036.141c-.025-.207-.375.021-.274-.247-.155-.052-.354.357-.5.176.351-.29-.246-.135.077-.5l-.314.084c.071-.314.579-.585.4-.844-.309-.072-.518.62-.8.691l.131-.251-.22.043v.031c0-.117-.154-.152-.25-.044-.064.092,0,.147-.069.238.068-.269-.807.178-.423-.468-.14.049-.252-.053-.389.138.16-.293-.314-.141-.254-.367-.062.094-.246.171-.245.053.152-.029.185-.166.248-.351-.216.124-.275-.2-.549.081.032-.258.244-.444.4-.684-.213.125-.4-.1-.635.288.089.008.27.049.059.266-.209.037.031-.139-.029-.253-.045.07-.231.166-.294.283a.212.212,0,0,0-.215-.151c.239-.059.118-.316.3-.4l-.089.358c.121.137.181-.17.3-.214-.182-.284.147-.607.049-.983a.943.943,0,0,1-.27.044c.062.086-.2.406-.293.431.085-.393-.358-.022-.5-.048.147,0,.261-.261.289-.374-.069-.395-.177.052-.382.123-.3-.334-.819-.075-.921-.545l.344-.2-.164.336c.258-.146.445-.688.521-.934-.082.089-.217-.115-.262.113l-.087-.271c.116-.112.191.037.2-.17-.121.047-.346-.031-.353.238a.29.29,0,0,1-.007-.424c-.137-.139-.244.4-.26.573-.13-.076-.291.2-.313.313l-.138-.168c-.021.112-.1.235-.124.347-.183.028-.033-.373-.294-.191l.13-.289c-.435-.029-.43.033-.724-.159l.171-.154c.015-.508-.353.182-.541-.184a.616.616,0,0,1,.089-.7c-.018-.187-.158-.022-.271.059.039-.228.089-.668-.147-.567a1.592,1.592,0,0,0,.068.389c-.216.288-.288-.13-.5-.081.01-.211-.018-.8,0-1.187a1.488,1.488,0,0,0,.452-.941c-.1.209-.3.047-.481.108-.068.219-.488.285-.342.521.117-.051.306-.291.323-.132a1.791,1.791,0,0,1-.666.35c-.051.1-.061.283.006.336a.457.457,0,0,1,.127-.229c.1.411-.327.4-.438.667-.023-.114-.183-.177-.009-.3-.418.376-.208-.562-.583-.286.023-.053.2-.147.175-.337-.114-.154-.24.076-.358.129.04-.168-.117-.429-.138-.345-.024-.189.386-.39.378-.695.106-.386-.184-.208-.236-.376-.265.128.032.252.02.4l-.273-.419a.213.213,0,0,0-.013.389c-.268.094-.34-.23-.224-.525-.125-.008-.138-.1-.288-.061l-.006.021a.369.369,0,0,0,.06,0c-.131.083.014.411-.209.584.206-.008.1-.21.243-.236l-.036.169.025-.006c.023-.017.043-.04.082-.028l-.008.014.038-.007c.069.113.009.2-.076.284.04.052.033.177.083.234.09-.032.048-.1.041-.169.141.137.353.084.281.482-.208.054-.331-.1-.452-.208-.079.163-.3.307-.331.5h.122l-.1.151a.113.113,0,0,1,.1-.033c-.329.181-.141.433-.419.6.068.076.519.074.24.236l.431-.093c0-.291-.326-.054-.221-.378.6.124.651.756.684,1.174-.219.366.313.886-.316,1.12l.261-.072.3.558c-.044.513.224,1.01-.092,1.422l.237.085c-.7.453-.145,1.362-1.019,1.659.231.209.337-.081.5-.11.1.16-.466.452-.037.59.14,0,.1-.232.2-.132.273.109-.238.177.068.3a.571.571,0,0,0-.585.423C11.8,43,11.8,43,11.767,42.99c-.211-.024-.148.12-.17.2a.164.164,0,0,0,.072-.031,6.187,6.187,0,0,0-.185,2.7c.03-.055.06-.115.091-.173a1.318,1.318,0,0,0,.335.526,1.741,1.741,0,0,0,.139.473c-.03-.028-.063-.038-.086-.09a.433.433,0,0,0-.094.035c.255.225-.421.278.04.47l.041-.041c0,.33.466.523.243.85.173.252.386.222.589.4,0,.15-.261.221-.314.229l-.024-.07c-.252-.076-.2.156-.3.263a3.348,3.348,0,0,1-1.409-.319c.12-.219-.636-.2-.583-.452.513-.146-.4-.349.052-.579-.35.124-.206-.266-.585-.064-.286-.09.282-.482-.061-.656-.076.029-.161.023-.2.066.2-.25-.255-.167-.263-.35l.368,0c.116-.071-.144-.091-.083-.154a.4.4,0,0,0,.372.1c.083-.086.2-.158.2-.248a.3.3,0,0,0-.244.108s-.043-.2-.215-.21c-.115.072-.112.163-.314.228-.12-.258-.12-.018-.416-.143.433.031.174-.228.265-.369-.174-.013-.049.1-.178.135-.768-.26.113-.4-.064-.745a.219.219,0,0,0-.116.071c.113-.163-.292-.273-.048-.381-.082-.154-.489-.023-.487-.263.444.067-.1-.281.376-.291l-.288-.182c.251-.164.8.035.83-.283-.185-.286-.778.036-1.033-.13l.257-.074L8.072,43.4l-.021.022c.076-.081-.018-.223-.158-.221-.107.014-.1.1-.2.113.221-.136-.714-.495-.02-.649-.137-.074-.155-.23-.377-.2.3-.083-.146-.339.041-.45-.106.018-.291-.069-.216-.151.132.1.243.026.407-.054-.239-.078-.079-.349-.46-.362.186-.155.461-.123.727-.173-.238-.077-.232-.373-.656-.286.062.074.171.24-.123.23-.179-.136.112-.074.138-.2-.078.016-.276-.061-.4-.028a.243.243,0,0,0-.066-.269c.215.141.288-.129.472-.049l-.291.182c0,.186.242.02.359.081.044-.336.492-.309.657-.645a1.132,1.132,0,0,1-.23-.176c-.008.107-.407.127-.49.075.312-.208-.253-.288-.345-.418.112.11.359.017.451-.039.2-.327-.164-.1-.362-.207-.016-.464-.564-.678-.343-1.082l.385.12-.334.108a1.572,1.572,0,0,0,.977-.251c-.116,0-.089-.246-.267-.122l.107-.255c.156.012.118.171.26.038-.121-.059-.239-.285-.414-.1a.254.254,0,0,1,.262-.3c-.014-.2-.433.091-.554.2-.049-.152-.343-.084-.431-.022l0-.222c-.086.062-.224.085-.312.147-.153-.121.211-.285-.1-.359l.278-.1c-.306-.352-.342-.3-.439-.663l.224.024c.334-.343-.377-.144-.285-.541.091-.232.161-.384.506-.419.1-.144-.1-.136-.239-.167.174-.129.488-.4.248-.506a1.309,1.309,0,0,0-.194.322c-.344.035-.132-.311-.32-.436.14-.138.49-.568.75-.824A1.238,1.238,0,0,0,7.61,33.8c-.207.069-.257-.2-.426-.291-.19.1-.545-.175-.584.1.118.053.412.031.324.154a1.879,1.879,0,0,1-.718-.267c-.1.035-.223.151-.207.238a.39.39,0,0,1,.239-.062c-.186.361-.5.031-.748.129.054-.1-.025-.262.185-.219-.55-.058.2-.549-.254-.645.049-.018.242.051.343-.1.013-.2-.228-.132-.349-.185.137-.085.183-.388.115-.345.1-.15.535.025.72-.193.323-.187,0-.285.061-.442-.277-.114-.133.2-.236.293l.06-.5a.19.19,0,0,0-.254.26c-.259-.139-.109-.42.164-.536-.089-.1-.038-.178-.177-.262-.136.143-.634.242-.681.429.091.275.36-.182.482.041l-.291.084c.19.066-.013.194-.012.309.086.046.1-.037.137-.086.02.2.212.328-.094.549-.33-.21-.046-.69-.409-.736l.3-.62c.138-.03.4.109.566-.085a.641.641,0,0,1-.658-.3c.395-.006.269-.4.6-.365-.17.138.156.117.191.124-.021-.2.342-.1.339-.216-.16-.346-.239.067-.45-.262a2.315,2.315,0,0,0-.61.619c-.171.022-.02-.2-.228-.244.224.072.342-.16.446-.082a4.844,4.844,0,0,0,.428-1.112c-.548.177-.3.682-.985.717.048-.19.321-.248.251-.376-.36-.044-.127-.395-.166-.63l.191.066c.118-.118-.021-.26-.076-.357l-.067.044.083-.125A.062.062,0,0,0,5.1,28.3c.148-.151-.078-.4-.024-.636.274-.061.056.211.109.306.068.014.227.186.395.048-.055-.268.234-.525.158-.828l.1.078c.169-.14.046-.25.026-.4-.245-.222-.338.28-.53.155-.22.158.093.277-.248.383l-.414-.082c.2-.191-.178-.267-.147-.376l.191.067c.29-.086.048-.135,0-.174l.446-.026c.107.136-.25.326.026.38.081-.3.441-.316.381-.645-.173.023-.049.077-.168.139-.14-.085.182-.281.007-.43-.083.127-.216.332-.476.251l.306-.169c-.07-.071-.19-.009-.208-.041-.087-.1.344-.048.22-.216-.069-.014-.156-.06-.223-.016-.058-.213.082-.127.2-.363.038.181.533.078.546-.121-.109-.252.127-.492-.322-.582l.185-.164c-.29.143-.141-.144-.212-.216-.343.047.1.393-.452.514-.09-.161-.243-.048-.377.039.012-.2.375-.155.577-.286-.136.029-.11-.311-.382-.135-.054-.155.286-.259.2-.362a2.64,2.64,0,0,1-.474.131c.109-.039-.062-.159-.078-.186.069.014.274-.117.208.043.255-.092-.06-.329.163-.369-.308.052-.127-.286-.285-.4.719-.141-.215.329.384.251.2-.247-.117-.658.132-1.039-.194-.24-.274.06-.55.061-.062.275.162.291.082.535a.713.713,0,0,1,0-.835c-.022-.263-.776-.131-.664-.483.24-.007.292-.025.4.054.064-.1-.038-.182-.055-.274.136-.087.2.1.308-.051-.052-.04-.1-.139-.258-.085l-.017.025c.153-.347-.6-.1-.209-.457.121,0-.015.084.071.132a.581.581,0,0,0,.461-.338c-.154.054-.051-.1-.121-.173-.275,0-.033.227-.2.307l-.087-.225.052.04.2-.3c-.049.193.345.017.361-.066-.086-.166-.173-.331-.465-.25.292-.082.239-.3.275-.465.137.147.257-.029.343-.1l-.344-.2c-.033.284-.276,0-.465.1-.292.138-.1.269-.035.4-.6-.168.222-.446-.086-.636-.137.028-.293.079-.242.179-.1-.024.223-.27.035-.4.1.024.4.063.481-.121l-.378-.147c-.122-.234.344-.153.464-.385l.259.089c.293-.076-.053-.273.275-.34.036.123-.207.242-.086.355.328-.009.138-.2.293-.307-.19-.247-.19-.19-.484-.346-.5.082-.55.45-1.205.527.035-.286.12-.7-.106-.845.1-.268.5-.314.794-.329.035-.108-.018-.15-.1-.2l-.139.14c.1-.324.242-.521.171-.828.054-.19.367-.17.606-.168l.026-.2.067.018c.314-.1.183-.246.154-.372-.138.021-.159.1-.245.112a.239.239,0,0,1,0-.384c-.138.021-.436.147-.321.268.033.009.085-.007.12,0l-.15.257c.133-.29-.239-.392-.568-.335.133-.291.37.163.453-.171-.707-.317.072-.811-.888-.91.164-.223.456-.493.434-.8.28-.036.079-.214.427-.228.4.239-.461.6.084.765-.11.144-.352.135-.492.213-.007.117.04.221.214.212.135-.289.663-.167.628-.5.24.009.192.289.273.4a.474.474,0,0,1,.395.022,6.719,6.719,0,0,0,.558-.454c-.124.051-.207,0-.278.038l.349-.395a.635.635,0,0,0-.535-.008c-.112-.178.219-.545-.2-.493.031-.253.258.046.378.053L5.56,13.5l0,.262c.485-.033-.158-.278.3-.376.872-.147-.329-.327-.215-.525l-.6.282.113-.2a5.792,5.792,0,0,0-.885.374c-.055-.251-.3-.592-.2-.77a1.5,1.5,0,0,0-.641,0c.362-.3-.259-.382-.3-.605.2-.259.355.207.643,0-.173-.056-.06-.2-.006-.268-.107.082.141.313.273.473-.029-.127.284-.143.408-.192l.094.206c.385-.052,0-.263.176-.38-.335.094-.351.061-.686.158a.442.442,0,0,0-.16-.612c-.153-.079-.162.093-.252.153-.242-.022.115-.2-.182-.209-.211.048-.006.116-.06.187-.013,0-.155-.545-.155-.545a.15.15,0,0,0-.115.238c-.171-.158-.1-.289.36-.521-.15-.178-.366-.385-.568-.309.082-.093.214-.043.354-.049-.089-.253.406-.308.407-.461l.265.1c-.282-.23.429-.077.213-.283a3.5,3.5,0,0,1-.874.024c.267-.048.022-.176.017-.273.273.049.238-.211.515-.069.206-.224-.167-.313.17-.481.091.1.27-.192.469-.11.01-.206-.321-.343-.611-.284.026.074.152.185-.076.183l.032-.384a.812.812,0,0,0-.528-.23c.35-.123-.27-.366.147-.458-.263.129.109.234.155.284l.056-.061a.069.069,0,0,0,.02.033l.53-.163c.224.158-.354.026-.331.25.516.191.743-.431,1.069-.23.17.162-.317.132-.495.266L4.389,7.9l-.2.3A.522.522,0,0,0,4.5,8.126c.02.37.292.421.378.812-.067-.026-.6-.092-.678.09-.122.132.191.138.23.243.06-.067.35-.133.151-.212l.367,0c.428-.3.793-.161.9-.552a.368.368,0,0,0,.3-.512l.248.1c.453-.215-.381-.041-.007-.316a2.876,2.876,0,0,0-1.469-.182c-.129-.2.127-.269.116-.452-.4-.121-.43.048-.83.018a.3.3,0,0,1,.433-.193l-.175-.26c-.087-.009-.082.081-.07.118-.092-.1.093-.288.242-.337-.021.02-.083.082-.016.11.1-.1.288-.282.4-.291-.2.145.258.176.006.327.108-.01.323-.03.265-.115.246.14.209.269.482.331-.208-.115.082-.176.123-.2a.265.265,0,0,1-.093.355c.454.025-.055.38.4.26-.161.017-.163.161-.052.236.194,0,.291-.192.514-.267.2-.369-.334,0-.48-.091L6.2,6.859c.067.031.311-.106.3.082.277-.081.462-.251.237-.4.129-.03.113.076.125.109.129-.029.595-.185.684.044-.026-.064-.211.1-.369-.018-.048.09.16.344.4.253-.069.108-.244.313-.292.4.208.031.083-.077.177-.121l-.1.32-.232-.1c.175.238-.358.385-.511.58.357-.028.381-.185.557-.311.439.121-.222.077-.146.278A.559.559,0,0,0,7.294,8l-.306.158a.109.109,0,0,0,.14,0c-.374.275-.508,0-.651.368-.194-.22.238-.192.2-.38-.266-.106-.452.219-.6.275.1.183.636.192.358.428.164-.167.335-.015.334-.243.176-.129.164.064.372.085-.061.061-.381-.031-.316.135l.052-.009L6.5,9.1c.207.246-.4.6.028.752L6.144,9.83a1.776,1.776,0,0,1-.091.516c.214-.04.229-.151.3-.27.081.286-.132.557-.422.78a1.856,1.856,0,0,1-.447-.271c-.516.234.336.2.09.473.367-.024.308-.1.666-.069-.24.122-.158.29-.358.427.363.029.65-.107.645-.362-.329-.164.215-.415-.1-.548l.231.076c.1-.193.028-.3.191-.474l-.054.009.362-.1,0,.085A1.534,1.534,0,0,0,7.7,9.783c-.041.262-.623.316-.94.464.035.24.684.285.381.467.174,0,.362.116.518,0,.091-.137-.139-.213.108-.244,0,.138.144.075.11.285a2.128,2.128,0,0,0-.856.427.372.372,0,0,0,.008.508c.008-.167.3-.358.539-.339-.321.127.313.29-.156.288.058.183.092.5.491.481.122-.193-.144-.339-.079-.5.015.04.121.07.212.037l-.075-.216c.217.148.342.1.328.317-.033-.008-.1-.029-.12-.007,0,.054.026.118.023.173l.366-.03c-.147.176.354.429.128.749l.07-.035c.108.221-.607.326-.658.591a.951.951,0,0,1,.489-.089c-.164.15.144.177.258.291-.234-.118-.369.15-.5.056-.366.041-.329.3-.268.43.481.015.2-.447.707-.311.061.127-.2.2-.3.114a.72.72,0,0,0,.469.481c-.326.248-.122.3-.564.495.006-.11.337-.166.137-.273l-.321.2c0,.2.326.306.385.431l.131-.162-.054.015c.144-.077.033-.242.292-.26-.3.173.021.225-.181.424l.053-.014c-.225.336.588.416-.043.712,0-.055-.268-.12-.391-.066.164.041.147.232.338.193l.053-.071c.085.16.136.257.084.328-.224.087-.414.071-.519.215.2.273.519-.215.759-.048l-.191.32.223.023c.291.374-.35.818-.266,1.26a.554.554,0,0,0,.452-.518c.343.076-.054.352.2.492.085.16-.208.347-.415.359-.087.234.24.109.308.123-.377.143-.19.381-.242.566l.221-.036-.223.317c-.036-.063-.223.037-.36.064l.033.063c-.653-.14.312-.666-.427-.8-.069.1-.206.01-.276.109.036.063.069.071.155.062-.173.076-.311.215-.328.07-.464.1-.293.361-.413.591.327.1.414-.252.62-.377-.018.083-.208.183-.071.269l.344-.1c-.138.311-.29.135-.618.265-.43.162.067.242.049.323l.071-.1c.187.182-.174.3-.107.49l.293.033c-.4-.169.43-.391.224-.492.395.282.7-.22.979-.386-.035.162.033.289.238.331-.412.309.257.418-.243.74.085.1.224-.153.258-.032a.844.844,0,0,1-.056.657l.036.051c.464.049-.168-.4.163-.582a.5.5,0,0,1,.635.141c.17-.009.02-.171-.055-.3.208.059.608.14.514-.125a1.166,1.166,0,0,0-.353.051c-.263-.257.116-.308.069-.543.191.025.725.031,1.079.078a1.409,1.409,0,0,0,.859.558c-.191-.124-.046-.337-.1-.536-.2-.089-.266-.556-.477-.408.047.131.268.354.123.363a2.355,2.355,0,0,1-.324-.756c-.1-.062-.258-.085-.3-.015.1.025.143.092.209.154-.373.082-.37-.385-.611-.525.1-.018.159-.191.276.008-.346-.484.51-.192.255-.623.047.029.136.229.307.214.14-.115-.071-.27-.12-.4.153.056.388-.1.312-.129.171-.015.358.45.635.46.353.14.189-.189.339-.236-.117-.3-.228.02-.362,0l.378-.274c-.079-.234-.317-.178-.354-.038-.087-.3.206-.361.475-.214.007-.138.094-.145.053-.313-.191-.018-.607-.359-.766-.276-.121.251.375.174.311.419L12.489,17c.09.2-.139.115-.216.191.031.1.1.06.155.055-.123.147-.072.384-.435.278-.091-.4.431-.484.207-.809l.627-.158c.116.093.206.393.453.406a.763.763,0,0,1-.257-.732c.28.317.458-.041.661.248-.212-.049.031.2.051.236.122-.148.308.212.384.137.12-.355-.213-.152-.14-.536a2.151,2.151,0,0,0-.843-.1c-.135-.125.123-.147,0-.344.108.23.346.175.367.311.286-.129.793-.141,1.048-.372-.5-.33-.667.2-1.172-.337.161-.083.392.1.429-.039-.224-.321.176-.358.307-.543l.09.2c.162.02.159-.185.186-.292l-.077-.026.143-.013a.079.079,0,0,0-.035-.051c.206.023.214-.322.411-.431.232.183-.1.182-.129.286.039.064.033.3.244.353.141-.219.515-.15.667-.408l.02.135c.213.048.2-.123.286-.235-.023-.344-.424-.094-.476-.331-.26-.077-.121.254-.431.046l-.236-.39c.27.04.054-.317.15-.362l.089.2c.262.179.124-.048.114-.116l.33.346c-.015.175-.393.007-.236.266.259-.129.522.154.7-.107-.136-.124-.086.01-.212-.047-.04-.168.316-.032.294-.273a.431.431,0,0,1-.5-.224l.328.139c0-.1-.127-.16-.117-.2.008-.139.273.248.3.038-.039-.064-.069-.164-.145-.192.1-.184.143-.015.382-.074-.094.147.322.484.465.366.093-.251.42-.215.166-.638l.24.045c-.3-.144,0-.208,0-.312-.273-.25-.2.331-.661-.036.045-.177-.138-.229-.291-.282.141-.12.366.2.6.284-.115-.091.13-.29-.177-.4.066-.146.375.066.382-.074a2.935,2.935,0,0,1-.42-.3c.1.064.062-.153.07-.184.039.066.27.146.117.2.24.148.179-.261.362-.107-.251-.216.1-.288.071-.492.6.493-.373.038.1.475.307,0,.359-.521.79-.565.024-.314-.232-.184-.428-.408-.227.128-.082.321-.3.413a.6.6,0,0,1,.559-.542c.161-.19-.457-.717-.14-.854.173.191.221.221.242.359.113-.014.1-.148.146-.223.154.054.074.235.25.219-.009-.068.021-.175-.123-.265l-.029,0c.34-.1-.354-.556.16-.465.086.1-.068.041-.04.143a.58.58,0,0,0,.551.156c-.144-.09.031-.1.031-.209-.191-.225-.175.12-.349.031l.09-.216.009.069.349-.031c-.166.084.23.291.3.251A.408.408,0,0,0,19.178,9c.26.185.368,0,.5-.077,0,.208.2.19.306.216l-.11-.406c-.214.156-.191-.227-.391-.315-.3-.148-.253.091-.294.234-.309-.6.456-.108.366-.482-.114-.094-.259-.187-.29-.082-.055-.1.339.008.3-.232.055.1.235.363.418.314l-.166-.4c.07-.25.343.182.583.128l.122.268c.258.19.146-.22.421,0-.058.108-.307-.012-.3.16.237.261.231-.016.413.04.032-.315-.007-.278-.108-.618-.4-.353-.687-.156-1.2-.64.216-.158.556-.359.493-.633.252-.091.561.2.778.431.1-.041.087-.112.062-.214l-.192-.023c.291-.125.52-.14.678-.4.166-.079.372.187.537.384l.153-.108.035.067c.284.192.294-.01.358-.115-.11-.1-.182-.062-.246-.128a.206.206,0,0,1,.259-.247c-.112-.1-.406-.26-.406-.089.017.035.064.066.083.1l-.277.045c.289-.079.1-.449-.174-.679.289-.081.151.407.434.258-.284-.78.595-.466-.013-1.311.266-.009.651.051.841-.162.22.2.2-.076.452.2.122.483-.729.016-.456.564-.175,0-.337-.2-.488-.263-.084.071-.12.177.008.312.288-.077.576.431.775.187.163.2-.059.344-.077.481a.592.592,0,0,1,.262.336,6.424,6.424,0,0,0,.7.159c-.121-.068-.145-.169-.221-.2l.51.028a.781.781,0,0,0-.37-.439c.041-.206.52-.175.192-.482.191-.138.15.239.229.342h.03l-.174.174c.362.373.076-.308.46,0,.711.614-.01-.479.2-.514l-.611-.308.212-.036a6.3,6.3,0,0,0-.871-.476c.13-.208.189-.627.374-.665a1.878,1.878,0,0,0-.453-.52c.456.1.075-.458.194-.636.317,0,.112.422.449.526-.083-.176.09-.176.176-.177-.13-.035-.11.317-.125.528.064-.107.3.138.414.207l-.071.209c.3.28.174-.174.378-.1-.3-.212-.286-.245-.587-.456a.4.4,0,0,0,.3-.526c-.053-.177-.175-.071-.278-.106-.155-.212.213-.036.013-.283-.179-.141-.082.07-.168.071-.01-.008.258-.479.258-.479a.134.134,0,0,0-.242.06c-.014-.24.123-.269.6-.044.015-.237,0-.546-.191-.661.121.006.179.146.282.257.108-.237.492.129.6.032l.117.281c-.044-.378.352.3.338-.009a4.353,4.353,0,0,1-.629-.7c.22.187.135-.1.2-.162.159.255.308.058.408.376.294.022.092-.339.442-.174,0,.137.319.1.4.311.145-.125.006-.483-.238-.681-.031.069-.018.243-.176.056l.281-.221a.986.986,0,0,0-.216-.58c.328.2.056-.456.412-.176-.273-.131-.082.24-.082.311l.079.007a.059.059,0,0,0-.008.036l.481.327c.052.285-.266-.27-.4-.108.235.544.811.326.905.72.01.244-.312-.173-.526-.23l.014-.032-.346.035a.61.61,0,0,0,.273.2c-.236.254-.079.51-.281.833-.03-.071-.36-.548-.536-.493-.174-.013.043.245,0,.345.087.006.335.2.247-.015l.261.3c.5.151.663.541,1,.376a.326.326,0,0,0,.556-.086l.107.268c.462.229-.239-.336.208-.211-.269-.475-.529-1.094-.909-1.312.047-.237.269-.071.384-.2C28.4.565,28.264.653,28,.309a.321.321,0,0,1,.434.227l.052-.311c-.054-.076-.112-.014-.129.02,0-.141.259-.11.4-.021-.028,0-.113-.015-.085.058a1.029,1.029,0,0,1,.473.135c-.235-.067.062.323-.215.216.083.081.246.243.262.139.078.292-.033.345.116.607-.069-.244.175-.048.219-.029a.222.222,0,0,1-.3.155c.3.385-.293.2.108.5-.124-.121-.222-.029-.194.11.139.156.334.114.539.246.386-.079-.234-.271-.275-.449l.2-.174c.026.074.29.184.153.293.248.174.493.214.438-.068.11.085.028.14.014.171C30.317,2.218,30.75,2.5,30.659,2.718ZM11.4,33.329c-.052-.049-.037-.107-.008-.166-.041-.085-.156-.167-.312-.025a.2.2,0,0,0-.091.133c0,.036-.007.075-.01.113l0,.016c0,.03-.007.059-.009.09a.164.164,0,0,1,.143.025.248.248,0,0,1,.078-.133C11.16,33.614,11.374,33.349,11.4,33.329ZM9.763,22.719h0l.079-.064a.454.454,0,0,0-.135-.087A.625.625,0,0,0,9.763,22.719Zm1.892,11.113a.761.761,0,0,1-.069.068.113.113,0,0,0,.047.029A.313.313,0,0,0,11.655,33.831Zm.092,1.181a.175.175,0,0,0-.23,0c-.008.013-.029.025-.032.039l.052-.016-.053.133Z" transform="translate(0 0)" fill="#7c0e6f"/>
      <path id="Tracé_1034" data-name="Tracé 1034" d="M63.55,19.958" transform="translate(9.115 3.024)" fill="#dd1728"/>
      <path id="Tracé_1035" data-name="Tracé 1035" d="M51.384,33.849" transform="translate(7.287 5.111)" fill="#7c0e6f"/>
      <path id="Tracé_1036" data-name="Tracé 1036" d="M65.6,19.113l0,.006-.3-.592Z" transform="translate(9.376 2.809)" fill="#dd1728"/>
      <path id="Tracé_1037" data-name="Tracé 1037" d="M65.284,18.536l0,0h0l.307.585-.007.008-.3-.585-.014.006Z" transform="translate(9.373 2.81)" fill="#dd1728"/>
      <path id="Tracé_1038" data-name="Tracé 1038" d="M64.78,19.824c-.033.022-.071.035-.117-.052Z" transform="translate(9.282 2.996)" fill="#dd1728"/>
      <path id="Tracé_1039" data-name="Tracé 1039" d="M64.146,18.771" transform="translate(9.204 2.846)" fill="#dd1728"/>
      <path id="Tracé_1040" data-name="Tracé 1040" d="M25.744,11.568a1.106,1.106,0,0,1-.062.349,1.62,1.62,0,0,0-.361.177c.1-.164-.209-.35-.334-.3.039.435-.495.389-.7.605.2-.167.33.066.363.183-.1.594-.229.125-.5.269-.359.8-.989,1.2-.959,1.98L23.6,14.6l-.261-.2c.312-.178.646.261.8.444-.122,0-.163.415-.292.213l.046.421c.145-.03.141-.288.245-.077-.122.1-.271.488-.4.2-.059.206.006.49.2.47-.017.334-.395-.087-.487-.268a.22.22,0,0,1-.4.1l-.009.4c-.075-.1-.2-.112-.275-.211-.147.258.178.48-.1.688l.255.117c-.04.136-.074.238-.1.328,1.158,1.05,3.061,1.025,4.662.446a.431.431,0,0,0-.22-.263c.048-.09.446-.143.175-.266l.395.041c.049.262-.278.092-.136.376.5-.217.462-.729.514-1.092-.208-.36.352-.675-.152-1l.211.117.383-.36c.12-.4.483-.627.447-1.064l.207.075c-.292-.749.64-.916.435-1.737.277.047.094.3.16.438.091-.021.129-.265.225-.365C29,11.841,27.048,11.825,25.744,11.568Z" transform="translate(2.971 1.763)" fill="#7c0e6f"/>
      <path id="Tracé_1041" data-name="Tracé 1041" d="M42.749,34.236a.653.653,0,0,1-.085-.07l.028-.013Z" transform="translate(5.976 5.157)" fill="#7c0e6f"/>
      <path id="Tracé_1042" data-name="Tracé 1042" d="M42.314,33.4a.26.26,0,0,0,.029.007.521.521,0,0,1,.026.078C42.35,33.478,42.332,33.462,42.314,33.4Z" transform="translate(5.924 5.044)" fill="#7c0e6f"/>
      <path id="Tracé_1043" data-name="Tracé 1043" d="M43.161,33.9a.564.564,0,0,1-.131-.007l.067-.106A.679.679,0,0,0,43.161,33.9Z" transform="translate(6.031 5.103)" fill="#7c0e6f"/>
      <path id="Tracé_1044" data-name="Tracé 1044" d="M42.851,33.733c.082-.047.236.144.28.235-.077-.014-.151-.024-.192.041-.236,0-.041-.21-.351-.13l-.129.1a3.8,3.8,0,0,1-.194-.334c.081.071.151-.069.222.1l0-.032c.122-.048.071-.1.013-.146V33.55a.128.128,0,0,0-.037-.02c-.014-.016-.029-.031-.028-.047a.273.273,0,0,0,.029-.036.2.2,0,0,1,.159.161c.056-.039.051-.161-.048-.28a.2.2,0,0,1,.04-.026A1.223,1.223,0,0,1,42.851,33.733Z" transform="translate(5.916 5.029)" fill="#7c0e6f"/>
      <path id="Tracé_1045" data-name="Tracé 1045" d="M72.187,31.59l-.271.118c-.491-.382.465-.361.2-.924-.214-.3-.374-.487-.79-.369-.189-.15.041-.235.175-.347-.286-.094-.82-.278-.641-.549a1.982,1.982,0,0,1,.449.326c.4-.135-.066-.5-.017-.764a9.865,9.865,0,0,0-1.609-.546,1.536,1.536,0,0,1-1.212.266c.27-.062.03-.361.036-.556.3-.026.217-.542.625-.294-.025.136-.3.3-.069.372a1.01,1.01,0,0,0,.231-.759.647.647,0,0,1,.511.106c-.166-.014-.2.052-.285.1.671.259.454-.311.794-.384-.19-.072-.383-.316-.477-.114.344-.487-1.044-.415-.91-.837-.061.021-.064.229-.385.17-.347-.16-.109-.281-.141-.419-.24.033-.837-.161-.724-.183-.329-.03-.222.436-.715.423-.487.116-.534-.173-.86-.214-.108-.282.439.006.664-.017l-.994-.236c-.123-.221.374-.186.606-.055-.175-.3-.819-.315-1.13-.139-.187-.112-.353-.1-.5-.246.324-.052.646-.408,1.073-.361.574.2-.483.2-.04.4l.261-.192c.091.178.411.1.652.168.064.1-.112.06-.225.058.413.143.588.357,1.161.275-.29-.407-1.4-.484-1.406-.781L65.5,25.06l-.707-.013c-.082.1.155.363-.281.422.1-.29-.152-.467-.571-.605-.014.083-.085.128-.178.158l-.006-.008-.014.013a4.136,4.136,0,0,1-.426.066c.055-.059.112-.112.162-.17a2.058,2.058,0,0,1,.234-.03c.024-.055-.059-.076-.161-.094.008-.016.018-.025.025-.043-.029-.043-.054-.086-.082-.129-.038.069-.07.127-.115.1-.022-.327-.257-.093-.415-.114l.036.168c-.087.114-.178,0-.24-.046l.035-.064-.092.084a.069.069,0,0,1,0-.051c-.117.15-.268-.052-.435-.007-.074.245.14.051.2.1,0,.051.064.138.045.248-.278.032-.552.059-.844.1.071-.068.148-.13.117-.215.144-.2.185.084.3-.222v-.193h0v-.176c-.16.181-.152-.155-.229-.125l.014.168c-.108.258-.1.043-.118,0L61.7,24.6a1.448,1.448,0,0,1-.257.084c.016-.044.047-.075.045-.133l-.091.135a.5.5,0,0,1-.084,0c.008-.028.018-.055.01-.062-.021-.031-.04.007-.062.056-.02-.032-.067-.044-.1-.063l0-.012a.085.085,0,0,0-.036-.007,1.607,1.607,0,0,0-.657-.038c.016-.025.032-.047.051-.082-.086-.1.037-.217.135-.323-.125-.013-.2.25-.33.415l-.035,0c-.015-.078-.155-.123.018-.3-.089-.066-.27.212-.317.123a2.99,2.99,0,0,0,.247-.385c-.063.09-.09-.069-.1-.086-.013.06-.174.215-.04.179-.154.209-.2-.1-.308.081.147-.25-.143-.159-.161-.311-.372.569.3-.121.022.366-.244.118-.4-.221-.775-.1-.072-.221.159-.207.282-.431.2.009.129.186.324.168a.434.434,0,0,0-.55-.176c-.163-.086.288-.64.017-.628-.127.181-.163.215-.166.315-.1.026-.1-.072-.145-.108-.125.081-.039.182-.191.221a.2.2,0,0,1,.079-.216l.024-.007c-.285.012.277-.477-.14-.289-.071.086.055.013.033.09a.644.644,0,0,1-.457.235c.121-.1-.029-.07-.033-.144.159-.2.154.047.3-.052l-.079-.131-.007.048-.3.049c.136.025-.14.214-.23.225.128-.217.342-.4.025-.743l.089.086,0,.012,0-.007.1.1.508-.25c.231-.383.684-.5.756-.965l.207.147a.66.66,0,0,1,.091-.493,2.264,2.264,0,0,1,.946-.489c.1-.031.2-.061.294-.083a5.077,5.077,0,0,1,1.276-.1c.107,0,.219.006.332.012a1.1,1.1,0,0,0,.939.343,1.636,1.636,0,0,0,.3-.066c.062-.337,1.212.958,1.5.949a1.7,1.7,0,0,0-.046.313c0,.143.031.277.166.311-.078-.02.1-.216-.053-.36a.292.292,0,0,1,.319.372,3.258,3.258,0,0,1,.442-.3c.037.2-.083.078-.129.169l.349-.09-.1-.229c.263.178.449-.354.687-.46-.06.346-.231.329-.382.51.12.429.1-.222.314-.116a.462.462,0,0,1,0,.255l.2-.273a.1.1,0,0,1-.014.136.8.8,0,0,0,.237-.428.25.25,0,0,0,.314-.052.246.246,0,0,1,.024-.25c.055.171.093.337.294.207-.219.11-.082.313-.33.251-.168.133.044.174.028.376.075-.044.033-.369.2-.266l-.018.047.4-.274c.191.3.787-.143.791.343l.115-.347a4.021,4.021,0,0,0,.592.213c-.133.148-.254.1-.41.1a1.128,1.128,0,0,0,.959.147l.037-.031a1.594,1.594,0,0,0-.072-.528c.373-.179.242.122.3.308a2.141,2.141,0,0,0,.222-.271c.2-.313.083-.418-.116-1.038-.129-.4-.275-.788-.413-1.18a.325.325,0,0,1-.274.035l.061.315c-.24-.422-.246.33-.474.014a2.006,2.006,0,0,0,.289-.786c-.151.216-.281-.084-.431-.147,0,.282-.382.1-.232.441-.375.058-.444-.3-.759-.053.127.122-.331.184-.243.4a.469.469,0,0,1-.244-.168.286.286,0,0,1,.055-.037c0-.084-.067-.128-.155-.156a.457.457,0,0,1,.014-.32c.108.035.259.211.288-.013,0-.017-.59-.072-.59-.072-.128-.16-.312-.255-.312-.562-.215.3-.568-.324-.726.083.122-.144.221-.079.3.01l-.094.26c-.146.061-.087-.182-.2-.163.061.07.155.288.021.388-.154.026-.294.091-.426.037a.259.259,0,0,1,.235-.16s-.276-.148-.244-.313c.141-.063.277-.008.442-.153-.36-.26.008-.118-.092-.46-.084.411-.406.022-.65.023.026-.168.167.012.259-.084-.2-.875-.687-.1-1.191-.428.022-.047.1-.068.14-.077-.291.037-.4-.414-.626-.207-.255-.127.029-.475-.4-.55.074.449-.491-.182-.545.276,0,0-.3-.328-.3-.321-.3.224.03.783-.506.778-.493-.212.051-.757-.252-1.025l-.124.244-.263-.2.038-.02c-.152.081-.443.016-.457-.122.015-.107.191-.11.209-.217-.229.246-1.174-.629-1.34.132-.183-.1-.514-.049-.526-.275-.069.315-.761.023-.914.291-.006-.112-.269-.22-.4-.093.26.052.161.2.082.406-.276-.175-.706.2-.947-.1-.193.3.037.5.1.775-.284-.148-.8.163-.926-.254.168-.046.551-.113.347-.344-.376-.013-.074.156-.281.319-.023-.079-.3-.146-.319-.28a1.131,1.131,0,0,1-.549.278c.416-.012-.018.368.263.407l.11-.434c.345-.219.2.163.395.183-.55.429-.2.707-.558,1.235a1.832,1.832,0,0,0-.438.064c.148-.139-.14-.436-.289-.42-.067.467-.637.243-.917.4.259-.108.343.179.35.313-.258.588-.281.054-.613.115-.595.722-1.381.929-1.545,1.752l.51-.108-.235-.293a.493.493,0,0,1,.48.244,13.812,13.812,0,0,1-1.646.923.387.387,0,0,0-.063.184l-.125-.107-.146.059a.249.249,0,0,0,.109.135h-.053c.335.316-.344.767.34.852-.026-.066.182-.259.312-.246-.13.12-.023.327-.2.369l-.079-.06c0,.225.021.354.109.407.238-.015.384-.122.558-.024,0,.384-.558.029-.648.327l.359.246-.161.146c.009.591.839.638,1.111,1.077-.3.184-.633-.09-.722-.2-.184.291.316.306.251.608.074.212.421.185.567.052.248.14-.063.254-.1.316.366-.143.452.176.648.285l-.164.133.411.084c-.035-.076.163-.138.266-.221l.036.072c.276-.574-.76-.282-.4-.895.125.025.143-.13.268-.106.028.07.013.1-.051.15.173-.062.372-.06.267-.173.376-.246.469.045.719.108-.123.3-.449.131-.679.184.077.046-.028.319-.028.319.336.118.454.513.477.3.033.464-.587.4-.889.465a.329.329,0,0,1,.176.42c.506-.115.274.488.822.3.055.135-.251.084-.154.189a.972.972,0,0,0,.764.36c.1.092-.014.192-.074.323.427.588,1.125.086,1.62.605l-.189.1c.107.113.189.232.381.067-.132.6.742-.012.658.629.238.238.477-.189.735-.164-.056.117-.231.3-.14.408.843.125,1.532.342,2.418.468a.2.2,0,0,1-.1.084c.549.215,1.228-.24,1.646.03a1.235,1.235,0,0,0,.253-.156c.1-.012.188-.016.239.039-.109.059-.183.068-.236.1a1.571,1.571,0,0,0,.206.143c0,.014-.009.016-.01.031l.031-.016c.217.135.447.276.4.5a2.457,2.457,0,0,0,.885.2c-.076-.032-.079-.217.259-.229.236-.021.227.086.38.136-.248.063-.1.284-.375.177-.527.214.3.317-.251.468.213-.015.166.246.515.27-.244.071-.219-.092-.389-.053l.117.087-.17.036c-.06.219.607.141.752.261l-.068,0,.11.077-.488-.036c.1.124.526.143.61.306l-.148.031.161.086a.206.206,0,0,0-.135,0c.458.058.251.3.6.378-.078.078-.635.145-.276.234l-.541-.013c-.032-.217.4-.092.239-.323a.982.982,0,0,0-.776.706l0-.013c-.069-.006-.072.1-.066.22l-.012.031c.009.01.007.02.013.03.006.063.006.122.009.186a.76.76,0,0,1-.079.132,2.731,2.731,0,0,0-.107-.281c-.025.191-.167-.06-.281-.116.166.155.054.365.163.445.12.322-.06.384-.163.377-.2-.4.2-.327-.083-.709-.1-.006-.044.24.046.294a.53.53,0,0,1-.48-.229c-.029.363-.138.21-.092.653.067-.044-.024-.344.118-.213v.343c-.124.068-.314-.168-.422-.181l.058-.163.01.051c0-.145.14-.113.054-.337.008.32-.151.06-.206.293l-.01-.048c-.135.3-.5-.375-.451.262.035-.02.178.192.189.314-.091-.131-.2-.047-.251-.222l.026-.071c-.132-.015-.211-.024-.237.046.028.223.107.38.054.521-.247-.076-.053-.521-.247-.665l-.131.277L61.7,34.2c-.338-.117-.386.6-.711.669a.493.493,0,0,1,.179-.561c-.17-.269-.212.164-.393-.012-.132-.021-.153.293-.09.477-.123.153-.154-.173-.187-.225.038.374-.184.29-.288.4l-.053-.2-.132.3c.026,0,.04.055.049.121l-.222.083a2.323,2.323,0,0,0,.054-.32c-.1.084-.2.068-.3-.1-.066.46-.359-.081-.406.456-.1-.043.026-.242-.066-.234a.533.533,0,0,0-.473.307c-.092.007-.107-.144-.16-.277-.47-.114-.491.7-1,.606l.037-.191c-.107-.021-.2-.064-.209.183-.224-.537-.369.426-.637-.154-.231-.076-.159.415-.313.531-.022-.129-.01-.377-.107-.423a7.978,7.978,0,0,1-1.6.605.236.236,0,0,1,.035-.116c-.4,0-.715.608-1.071.476a.6.6,0,0,0-.144.34,1.426,1.426,0,0,1,.048.145l-.13.171c-.066-.024-.032-.085-.006-.1a.593.593,0,0,0-.217.38.471.471,0,0,0-.374.124c.069.083.056.139.014.191-.1-.112-.17-.222-.395-.071.248-.141.048-.253.361-.275.181-.145-.083-.117-.1-.269-.084.052.021.281-.2.251l.015-.04-.436.311c-.132-.077-.345-.013-.543.043a2.936,2.936,0,0,0-1,1.808c.052-.079.109-.153.259-.076a1.23,1.23,0,0,0-.221.657c.147-.2.357-.015.55-.01-.053-.206.447-.178.209-.388.447-.146.59.1.933-.17-.175-.055.372-.228.227-.365a.685.685,0,0,1,.327.056.641.641,0,0,1-.062.041c.017.061.1.076.215.072a.219.219,0,0,1,.036.239c-.137,0-.349-.083-.347.089,0,.013.729-.109.729-.109.183.083.422.1.474.328.212-.281.745.082.87-.261a.293.293,0,0,1-.366.075l.071-.216c.168-.086.137.109.275.063-.085-.036-.235-.169-.089-.28a1.6,1.6,0,0,1,.511-.145c-.031.106-.167.152-.258.183,0,0,.361.032.349.162-.162.086-.337.083-.512.235.481.092.01.09.189.313.035-.326.49-.128.787-.2,0,.13-.2.037-.3.133.39.588.851-.115,1.52-.014-.02.04-.112.077-.158.1.346-.107.552.194.795-.021.331.023.045.358.577.294-.162-.311.629,0,.618-.353,0,0,.421.158.426.151.329-.247-.168-.567.484-.711.636.02.066.572.479.686l.11-.214.354.074-.044.025c.171-.1.537-.135.576-.037,0,.084-.214.135-.219.219.237-.244,1.533.139,1.608-.467.24.024.634-.1.684.059.032-.252.923-.228,1.064-.467.025.081.366.087.507-.043-.324.033-.23-.1-.168-.276.366.053.826-.343,1.171-.184.184-.278-.129-.362-.253-.543.37.031.943-.339,1.169-.068-.2.081-.652.235-.366.349.461-.094.064-.136.289-.312.041.052.385.025.435.117a1.858,1.858,0,0,1,.621-.355c-.5.124-.039-.275-.389-.227l-.062.349c-.383.257-.275-.063-.511-.025.6-.467.13-.575.474-1.062a3.686,3.686,0,0,0,.522-.169c-.158.144.242.283.421.23,0-.362.734-.354,1.049-.546-.3.151-.447-.037-.479-.133.216-.5.332-.117.727-.253.6-.7,1.525-1.065,1.587-1.715l-.6.22.335.152a1.124,1.124,0,0,1-1.047-.328c.169-.008.282-.358.431-.2l-.008-.351c-.2.033-.234.25-.349.079.182-.092.441-.424.579-.191.108-.177.056-.412-.211-.384.067-.282.534.051.636.2a.416.416,0,0,1,.561-.1l.064-.338c.092.077.262.083.353.161.238-.224-.184-.392.235-.582l-.337-.085C72.04,32.122,72.134,32.171,72.187,31.59Zm-4.14-11.543c-.021-.071-.017-.6.263-.606.222-.067.161.232.3.324-.109.021-.261.255-.33.045l-.085.343a1.052,1.052,0,0,0-.3.259l-.3-.641A1.765,1.765,0,0,0,68.047,20.047ZM61.23,24.966a2.5,2.5,0,0,0,.687-.2c0,.013.008.009.008.028-.223.069-.294.4-.523.329.046-.152.062-.037.128-.14C61.495,24.858,61.31,25.106,61.23,24.966Zm1.9.447a.72.72,0,0,1,.078-.178c.091,0,.125.044.132.1A.514.514,0,0,1,63.135,25.413ZM52.15,38.949c.037.046.121.437-.22.518-.259.11-.234-.127-.414-.156.129-.046.275-.26.393-.124l.046-.275a1.3,1.3,0,0,0,.316-.273l.467.39A2.614,2.614,0,0,0,52.15,38.949Zm1.48-1.452a.292.292,0,0,1,.018-.068c0,.016.008.029.012.044S53.641,37.491,53.631,37.5Z" transform="translate(7.159 2.375)" fill="#7c0e6f"/>
      <path id="Tracé_1046" data-name="Tracé 1046" d="M52.12,38.892c.47-.3-.461-.278.041-.626.033-.232-.418-.083-.553-.208.12-.043.355-.072.382-.171a7.674,7.674,0,0,1-.832-1.406.213.213,0,0,1,.115.014.526.526,0,0,0-.132-.247l-.044,0c-.089-.2-.643-.163-.967-.236-.01-.2.6-.334.277-.436.164-.026.322-.15.49-.077.11.1-.094.193.145.182-.028-.11.123-.082.054-.247a2.3,2.3,0,0,1-.885-.221.28.28,0,0,1-.083-.414c.038.135.345.246.571.194-.326-.054.245-.282-.2-.211.022-.158,0-.421.38-.464.148.138-.076.3.012.416.008-.036.1-.076.193-.062l-.031.187c.178-.153.3-.135.253-.308-.03.013-.091.039-.112.024-.013-.044,0-.1-.008-.144l.35-.031c-.17-.121.261-.4-.01-.628l.072.017c.063-.2-.632-.175-.726-.383a1.062,1.062,0,0,0,.477,0c-.182-.1.1-.166.192-.275-.2.131-.376-.067-.485.029-.353.021-.365-.2-.329-.311.452-.083.268.335.725.147.035-.112-.225-.129-.3-.048a.591.591,0,0,1,.359-.46c-.351-.154-.168-.227-.62-.32.025.09.347.085.177.2l-.338-.113c-.03-.161.253-.3.288-.408l.153.113-.053,0c.148.041.074.192.321.168-.316-.094-.02-.186-.245-.319l.052,0c-.271-.239.483-.427-.166-.573.01.045-.232.137-.358.112.148-.059.1-.211.286-.208l.062.051c.052-.144.084-.229.022-.28-.228-.038-.4,0-.529-.1.146-.253.529.1.727-.075l-.238-.231.208-.052c.209-.349-.475-.614-.473-.986a.514.514,0,0,1,.518.354c.312-.114-.113-.278.106-.433.053-.141-.258-.251-.456-.23-.123-.177.208-.124.269-.145-.382-.061-.245-.282-.328-.424l.215,0-.267-.225c-.022.058-.217,0-.352,0l.021-.056a.472.472,0,0,0-.1.054l-1.033-.029c-.1-.072.174-.171.15-.222l.084.07c.145-.176-.219-.222-.186-.383l.27-.071c-.344.2.476.255.3.367.323-.288.7.075.994.169-.061-.127-.02-.24.167-.306-.444-.19.169-.378-.36-.565.062-.1.239.09.25-.013a.662.662,0,0,0-.213-.595c.014-.1.169-.083.315-.108.222-.5-.59-.719-.377-1.266l.184.086c.045-.115.11-.212-.137-.276.6-.129-.347-.506.29-.673.123-.24-.385-.268-.474-.462.136,0,.384.07.449-.028a6.222,6.222,0,0,1-.207-1.094l.273,0-.037-.227a.151.151,0,0,0,.108.035,2.4,2.4,0,0,0-.094-.229c.067.137-.129-.135-.212-.255a.033.033,0,0,1-.021-.03l-.018-.028a1.821,1.821,0,0,1-.262-.757c0-.037.008-.067.006-.1a.508.508,0,0,1-.017-.435c-.082-.074-.191-.29-.431-.231-.033.087-.334.091-.519.079-.252-.343.438-.152.361-.378.444-.056.315.133.675.156,0-.008,0-.016,0-.023l-.257-.3c.148-.178-.1-.368.115-.522-.052.069.342.032.162.146-.02-.018-.049-.008-.071-.025-.039.222.127.192.243.306l.018-.021a.727.727,0,0,1-.067-.582c-.311.035-.13-.156-.326-.214l.031-.012a.414.414,0,0,1-.265-.16l.395-.038c-.051-.084-.2.02-.247-.064a.359.359,0,0,1,.294-.56c-.026-.143-.255-.189-.2-.335a1.544,1.544,0,0,1,.2.058c.093-.309-.033-.7.2-1a1.057,1.057,0,0,0-.439-.614c.031.066-.06.257-.29.135-.166-.068-.1-.168-.176-.269.206.025.193-.255.339-.052.452-.048-.09-.437.359-.433-.138-.048-.058-.337-.3-.444.2-.025.136.155.27.155l-.063-.132h.135c.113-.252-.437-.3-.521-.446l.052.006-.072-.1.365.116c-.054-.16-.375-.243-.45-.42l.115-.018-.125-.107a.123.123,0,0,0,.1.012c-.343-.1-.211-.331-.5-.422.051-.071.476-.138.185-.228l.424.01c.054.238-.3.093-.143.342.549-.192.482-.712.441-1.058-.271-.266.14-.767-.5-.865l.26.021.185-.5c-.132-.411.035-.855-.337-1.142l.209-.106c-.745-.263-.378-1.087-1.257-1.2.183-.2.334.015.489.016.062-.145-.52-.3-.138-.476.133-.017.138.174.214.078.239-.13-.257-.108.012-.255a.578.578,0,0,1-.628-.257c-.009.031-.009.031-.038.048-.194.052-.162-.075-.2-.137a.169.169,0,0,1,.074.014A4.57,4.57,0,0,1,48.32,6.32l.115.127a1.016,1.016,0,0,1,.224-.477,1.256,1.256,0,0,1,.048-.406c-.023.026-.053.04-.066.086a.474.474,0,0,1-.1-.015c.2-.221-.447-.163-.045-.389l.047.029c-.056-.27.347-.5.079-.728.118-.232.327-.24.487-.412-.029-.12-.286-.14-.337-.139l-.012.061c-.224.1-.215-.1-.331-.169a3.531,3.531,0,0,0-1.277.469c.152.161-.565.263-.47.457.51.041-.32.344.151.462-.353-.048-.148.247-.543.14-.254.115.352.351.058.543-.077-.013-.155,0-.2-.023.228.174-.213.174-.189.324l.347-.058c.123.04-.12.094-.051.137a.406.406,0,0,1,.335-.133c.093.058.216.1.228.174a.323.323,0,0,1-.25-.052.218.218,0,0,1-.166.2c-.122-.041-.135-.117-.338-.139-.067.229-.109.033-.368.179.4-.091.2.159.316.261-.162.036-.066-.074-.193-.084-.681.327.178.312.071.617a.231.231,0,0,1-.123-.04c.136.116-.228.266.022.317-.051.138-.458.092-.414.286.408-.12-.044.244.407.182l-.24.191c.267.1.751-.148.835.106-.124.261-.741.087-.952.26l.255.022-.158.141L45.5,8.817c.085.053.022.184-.11.2-.1,0-.108-.067-.211-.062.231.077-.59.508.094.531-.116.079-.106.209-.321.22.3.022-.078.3.118.36-.1,0-.263.1-.177.154.107-.1.224-.058.393-.016-.212.1-.013.3-.372.363a1.738,1.738,0,0,0,.719.032c-.212.1-.154.338-.569.331.045-.069.12-.222-.156-.169-.146.137.117.043.164.141-.076,0-.251.091-.372.082a.177.177,0,0,1-.014.229c.178-.147.294.062.454-.031l-.307-.1c-.03-.153.224-.052.324-.118.1.267.521.178.735.427a1.009,1.009,0,0,0-.186.177c-.025-.085-.406-.041-.476.013.331.123-.189.271-.253.392.086-.107.337-.069.434-.036.244.236-.138.1-.307.222.068.381-.412.636-.132.932l.343-.154-.335-.038a1.757,1.757,0,0,1,.969.058c-.11.018-.041.214-.231.139l.146.192c.146-.033.082-.158.239-.07-.1.067-.176.268-.373.147-.01.1.1.231.3.2.023.166-.424-.009-.56-.079-.02.131-.308.12-.4.083l.041.179c-.092-.037-.227-.035-.32-.072-.124.121.248.2-.031.306l.282.041c-.228.332-.269.3-.3.605l.208-.053c.375.229-.331.174-.175.483a.511.511,0,0,0,.552.265c.124.1-.074.125-.2.171.186.079.531.25.324.375a1.177,1.177,0,0,1-.242-.234c-.33.024-.069.273-.224.4.156.091.562.389.854.558a1.36,1.36,0,0,1,.934.112c-.207-.025-.207.2-.351.3-.2-.054-.484.223-.569,0,.1-.061.383-.086.278-.175a1.882,1.882,0,0,0-.63.324c-.1-.012-.239-.089-.238-.162a.433.433,0,0,0,.237.015c-.239-.266-.476.049-.73.007.069.07.023.217.214.151-.51.129.285.416-.127.562.051.008.22-.077.342.03.046.156-.192.141-.3.2.145.049.242.288.17.263.121.107.5-.1.714.049.338.106.046.234.136.351-.243.135-.162-.143-.275-.2l.145.4a.178.178,0,0,1-.286-.174c-.221.152-.029.358.25.412-.066.1,0,.151-.121.24-.153-.1-.642-.1-.719-.248.037-.237.372.1.449-.106l-.291-.024c.168-.083-.046-.156-.066-.25.074-.051.1.014.145.049-.017-.169.141-.3-.186-.433-.275.22.078.568-.257.66l.393.46c.135,0,.355-.148.549-.016-.343.044-.5.173-.568.345.374-.054.326.286.627.208-.184-.087.128-.12.159-.13.017.169.342.032.36.125-.091.306-.238-.018-.38.281a2.28,2.28,0,0,1-.686-.413c-.166.008.018.168-.171.234.2-.093.351.078.436,0a1.215,1.215,0,0,0,.089.118l-.391.053c.037.144.294.14.114.242a.245.245,0,0,0-.044-.009c-.144-.118-.521-.251-.217-.389-.238-.053-.559.026-.529.228-.382,0,.084-.418.286-.521a.226.226,0,0,1-.128-.412l-.459.008c.107-.083.12-.214.23-.3-.3-.144-.539.207-.788-.079l-.124.271a3.412,3.412,0,0,0-1.552-.215l.153.187c-.534.442-.479-.293-1.254.008-.42.215-.672.368-.523.667-.209.169-.317.008-.468-.075-.137.235-.4.674-.766.583a2.468,2.468,0,0,1,.456-.4c-.171-.285-.681.135-1.041.144a7.166,7.166,0,0,0-.788,1.323.712.712,0,0,1,.33.881c-.078-.2-.492.04-.757.069-.028-.223-.732-.074-.385-.428.186,0,.408.178.5-.012a2.049,2.049,0,0,0-1.028-.046.381.381,0,0,1,.159-.408c-.023.128.064.144.129.2.37-.557-.412-.294-.5-.542-.1.158-.441.347-.168.385-.653-.181-.595.87-1.166.839.028.043.311.009.223.266-.228.292-.385.131-.576.179.04.177-.242.668-.268.584-.049.257.589.1.559.474.144.353-.251.438-.315.7-.388.13.02-.338-.006-.5l-.347.8c-.306.132-.246-.254-.06-.453a.559.559,0,0,0-.221.887c-.156.162-.147.288-.349.422-.061-.239-.538-.426-.462-.759.285-.473.263.335.544-.038l-.254-.167c.245-.1.146-.33.246-.527.135-.066.078.075.072.162.2-.339.5-.511.4-.934-.562.291-.7,1.155-1.1,1.208l-.051.557-.037.543c.133.046.5-.181.568.143a.872.872,0,0,0-.84.539c.421-.014.129.666.5.571-.131-.213.213-.206.252-.217-.1.332.331.143.288.324-.271.564-.248-.089-.541.466a1.8,1.8,0,0,1-.468-.973c-.175-.024-.11.352-.339.452.253-.155.327.231.453.084.051.538.262,1.176.307,1.746-.594-.15-.27-1.043-.978-.977.02.321.288.361.216.591-.373.158-.132.7-.166,1.1l.2-.167c.118.163,0,.429-.035.6l-.076-.048.106.174a.054.054,0,0,1-.055.031c.182.187-.013.669.113,1.017.276-.01,0-.346.036-.521.066-.048.192-.373.386-.215-.013.437.338.718.378,1.18l.074-.154c.211.135.129.338.161.558-.16.423-.422-.259-.566,0-.267-.141,0-.447-.37-.466l-.374.3c.261.2-.077.485-.007.641l.159-.19c.154,0,.178.046.159.1a.47.47,0,0,1-.052.087l0,.006v0h0l.036.2h0l-.006.01-.013.017-.018.032.212-.089.01,0,0,0h0l-.031-.189h0l.021-.008.039-.015.069-.025.068-.026c.056-.245-.353-.374-.1-.573a.766.766,0,0,0,.34.357.567.567,0,0,1,.16.146l.03.052.006.015,0,0,.026.145h0v0l0,.006.016.026a.734.734,0,0,1,.049.136c-.17.053-.082-.071-.221-.091-.087.169.3.258.214.523-.138-.116-.36-.3-.559-.085l.363.064c-.03.121-.17.1-.171.147-.03.169.339-.1.306.162-.056.049-.114.146-.2.124.054.292.124.1.384.391-.09-.294.416-.391.559-.118.074.426.434.615.118,1.018l.273.11c-.349-.009,0,.277,0,.414-.313.158-.243-.573-.771-.419.04.3-.164.232-.344.183.164.29.428-.013.7.043-.135.045.166.49-.194.429.086.252.441.162.457.36a1.671,1.671,0,0,0-.479.145c.118-.023.086.263.1.313.041-.068.308-.032.122-.2.259-.052.276.482.473.376-.271.155.193.467.2.74.637-.366-.482-.268.018-.614.358.17.6.919,1.194,1.157.168.433-.232.161-.4.385-.36-.284-.242-.488-.571-.724a1.649,1.649,0,0,0,1,1c.337.3-.244.848.347,1.117.112-.209.16-.238.092-.412.175.044.246.216.37.323.179-.037-.061-.286.2-.23.035.086.153.23.015.319l-.043-.009c.548.194-.069.665.612.611.044-.109-.137-.056-.185-.179.047-.184.45-.209.666-.15-.13.1.131.128.222.252-.074.265-.353-.151-.527-.056l.32.269-.046-.083s.527.045.531.035c-.323-.083.06-.334.191-.3.232.185.474.372.292.6.182-.224.513-.046.795-.009-.021-.02-.017-.03-.03-.047.1.06.2.121.307.184-.087.064.138.3,0,.408-.251.221-.47-.033-.686-.168.239.666.771.03,1.082.376-.046.123-.139.257-.319.171.045.108.482-.123.718.1-.051-.11-.117-.4.193-.433l.079.124a.969.969,0,0,1,.092-.248c.015,0,.043,0,.047-.014-.015-.016-.017-.023-.029-.037.017-.032.016-.07.038-.1l.017-.022c.114,0,.252.016.132-.158l0,0c.2.222.231-.036.441.259.238.1-.049-.408.26-.3.046.053.109.093.125.135-.059-.212.24.061.3-.013l-.266-.194c-.059-.094.133.037.11-.024a.522.522,0,0,1-.3-.156c-.03-.084-.087-.179-.053-.22a.353.353,0,0,1,.136.182.2.2,0,0,1,.222.023c.059.1.025.133.148.271.168-.047.092.055.34.164-.316-.223-.051-.192-.069-.3.124.092,0,.07.081.158.615.322.046-.232.276-.28a.241.241,0,0,1,.056.1c-.024-.136.281.058.15-.132.1-.016.328.284.414.178-.319-.239.168-.063-.14-.355l.257.1c-.1-.227-.538-.472-.437-.633.228-.015.492.491.72.575l-.139-.19.174.055.006.023c-.022-.089.087-.106.177-.018.064.072.029.11.092.183-.1-.206.628.182.234-.328.112.046.177-.024.311.128-.171-.231.217-.086.137-.259.061.075.214.144.2.055-.121-.03-.166-.135-.242-.277.183.107.181-.131.433.1a1.992,1.992,0,0,0-.406-.534c.183.107.29-.049.53.254-.067,0-.2.018-.007.193.167.04-.044-.106-.014-.186.045.055.2.137.267.229,0-.061.053-.1.144-.1-.192-.059-.138-.243-.286-.313l.121.27c-.072.094-.163-.137-.262-.177.1-.2-.2-.46-.184-.732a.922.922,0,0,0,.214.049c-.035.059.216.313.289.337-.124-.3.271.007.386,0-.117-.012-.242-.211-.28-.294,0-.284.147.051.32.117.193-.224.641,0,.656-.337l-.083-.048.037-.018c.021-.1-.183-.1-.185-.171a4.528,4.528,0,0,1,.519.056.192.192,0,0,1,.092.1c-.144.06-.07-.026-.187-.013-.074.113.258.093.182.262a.413.413,0,0,0-.473.051l.307-.028c-.025.075-.143.089-.144.115-.024.1.286-.12.259.039-.047.038-.1.1-.167.107.044.156.116.041.3.137-.045-.128.382-.28.474-.164.018.2.3.245-.01.5l.212.018c-.283.04-.051.151-.076.225-.284.123-.089-.283-.56-.116,0,.14-.168.138-.309.143.091.118.354-.069.565-.078-.117.043.043.239-.239.252,0,.028.028.043.055.053a1.063,1.063,0,0,1,.185.024,6.528,6.528,0,0,0,4.11-.144,2.852,2.852,0,0,1,.5-.611.363.363,0,0,1-.161-.309l.188,0C52.33,38.955,52.356,38.858,52.12,38.892Zm-3.983-4.835a6.27,6.27,0,0,1-.9-.173c-.008.213-.177.528-.058.658a1.679,1.679,0,0,1-.607.093c.4.19-.177.35-.178.537.238.181.3-.222.607-.1-.153.071-.022.169.043.219-.116-.051.078-.275.175-.426-.006.108.293.075.419.1l.053-.181c.374-.016.043.214.234.283-.334-.028-.342,0-.675-.026a.349.349,0,0,1,.1.228l-.107-.074c.066.2-.436.06-.4.377L46.8,35.5c-.052.018-.039.084-.009.163-.183-.01-.018-.093-.081-.141a3.387,3.387,0,0,0-.043.375h0c.01.056,0,.078-.029.085-.112-.006-.168-.1-.13-.168a.191.191,0,0,0-.054.109.564.564,0,0,0-.128-.047c.229.1.148.342.294.388a.393.393,0,0,1,.089.178.328.328,0,0,1-.251.078.3.3,0,0,0,.238.008.277.277,0,0,1-.2.177c-.294-.344.178-.4-.231-.694-.112.022,0,.255.116.281a.614.614,0,0,1-.6-.121c0,.38-.151.221-.083.669.09-.054-.039-.344.151-.228l.007.345c-.175.086-.414-.121-.549-.136l.078-.167.012.051c0-.148.175-.133.063-.353.014.327-.176.082-.251.315l-.009-.049c-.194.327-.549-.376-.583.267.045-.02.2.2.19.326-.1-.137-.258-.054-.282-.236l.046-.07c-.161-.013-.255-.053-.3.016-.018.225.047.392-.063.526-.3-.113.07-.527-.133-.7a2.485,2.485,0,0,1-.236.243l-.058-.2c-.335-.2-.676.454-1.1.372a.589.589,0,0,1,.462-.443c-.066-.3-.294.064-.4-.168-.121-.064-.308.194-.347.384-.217.061-.06-.231-.061-.3-.181.338-.37.159-.534.164l.085-.2-.334.153c.026.023-.007.081-.052.147l-.323-.09a1.841,1.841,0,0,0,.346-.225c-.144-.01-.23-.1-.185-.289-.435.291-.207-.339-.707-.021-.044-.1.235-.133.152-.2a.782.782,0,0,0-.632-.237c-.071-.089.066-.181.159-.3-.161-.488-1.015-.185-1.18-.851l.22-.007c-.028-.136-.022-.259-.292-.206.469-.373-.606-.393-.082-.827-.01-.3-.487-.133-.661-.32.139-.036.413-.047.444-.162a3.446,3.446,0,0,1-.544-1.2l-.058-.178-.03-.09c0,.007,0,0,0,0,0,.022.012.068.036.2h0V31.9l0-.018-.007-.037-.06-.3c-.041-.206-.085-.418-.129-.641a.244.244,0,0,1,.123.069c.049-.549-.536-1.139-.261-1.583-.09-.1-.15-.372-.415-.334-.061.1-.376.074-.571.037-.167-.488.506-.138.487-.434.492.013.27.237.691.313l-.213-.441c.2-.171.036-.443.309-.553-.078.062.334.138.112.207-.014-.025-.048-.022-.063-.048-.145.282.153.221.178.5a.906.906,0,0,1,.127-.755c-.326-.074-.052-.2-.216-.332h.038c-.131-.054-.158-.216-.177-.274l.4.124c-.009-.107-.2-.063-.2-.173-.022-.159.231-.594.6-.389.072-.135-.085-.3.064-.4.078.074.087.129.125.164.274-.209.493-.589.914-.591a1.475,1.475,0,0,0,.3-.711.185.185,0,0,1-.306-.159c-.022-.176.123-.187.2-.313.078.179.383.03.231.257.277.366.441-.285.632.112-.015-.16.339-.169.381-.441.091.174-.13.183-.082.306l.123-.1.043.125c.3.008.21-.489.377-.62l0,.051.108-.1-.062.38c.171-.094.208-.427.433-.519l.039.108.122-.138a.1.1,0,0,0,0,.1c.091-.36.413-.243.534-.525.1.047.179.461.309.171l-.032.415c-.3.062-.115-.286-.434-.127.268.52.849.454,1.264.492.4-.232.783.34,1.139-.2l-.125.224.426.386a.684.684,0,0,1,.085.032c0,.081.032.182-.039.247.541.006.1-.136.13-.214a2.6,2.6,0,0,1,.3.137c.039.19-.018.443.2.641-.143.224-.27-.007-.531.032-.107-.214.1-.261-.017-.447a.532.532,0,0,0,.145.68c.025.219-.711.223-.542.493.227-.03.28-.023.366-.1.078.072,0,.154,0,.231.145.051.176-.115.3,0-.043.04-.075.129-.229.107l-.021-.017c.206.26-.551.173-.117.4.115-.015-.03-.067.044-.118a.6.6,0,0,1,.5.206c-.155-.021-.031.089-.084.159-.259.044-.071-.179-.247-.219l-.043.2.041-.04.247.219c-.082-.151.323-.066.353,0a.327.327,0,0,1-.4.273c.291.023.28.206.342.337.1-.14.248-.015.342.028l-.291.21c-.082-.227-.26.045-.457-.01-.3-.068-.145-.2-.1-.322-.539.227.29.33.03.53-.133,0-.29-.021-.26-.109-.092.035.26.186.1.322.093-.036.362-.11.476.026l-.332.177c-.074.207.352.072.506.244l.229-.112c.291.018,0,.231.32.237.012-.106-.237-.166-.144-.277.312-.04.166.143.331.206-.136.23-.146.184-.4.355-.485.007-.6-.285-1.232-.25.083.229.236.554.049.7.143.2.527.182.807.151.052.082.009.123-.062.178l-.156-.093c.154.248.32.388.308.649.085.146.376.084.6.046l.061.159.06-.025c.313.032.216.174.212.28-.135,0-.169-.06-.252-.054-.108.1-.069.239.069.313-.135,0-.438-.055-.351-.169.03-.014.082-.008.113-.021l-.186-.186c.177.216-.158.354-.479.357.177.217.322-.187.459.072-.613.363.21.649-.68.874.2.156.518.334.552.584.269-.013.112.162.442.122.339-.255-.542-.423-.054-.636-.131-.1-.357-.058-.5-.1-.026-.094,0-.186.166-.2.177.215.656.037.681.313.227-.044.131-.265.187-.367a.509.509,0,0,0,.369-.077,6.489,6.489,0,0,1,.607.288c-.125-.023-.2.031-.269.009l.4.27a.691.691,0,0,1-.5.086c-.074.161.3.411-.1.431.074.2.235-.076.347-.1l.022.018-.043-.215c.465-.045-.1.25.347.262.85-.01-.254.315-.112.459L48,33.914Zm1.438,2.256a.747.747,0,0,0-.131-.275c.208,0,.243.089.329.176.026-.245-.223-.434-.537-.571a1.711,1.711,0,0,0-.374.286c-.53-.113.281-.216,0-.4a3.17,3.17,0,0,0,.642-.043c-.25-.064-.2-.214-.414-.294.339-.077.634-.01.674.2-.282.183.277.306.007.459l.2-.1c.128.144.081.244.266.358h-.053l.36.028-.01-.069a1.664,1.664,0,0,1,.559.177A12.666,12.666,0,0,1,49.575,36.313Z" transform="translate(4.375 0.609)" fill="#7c0e6f"/>
    </g>
    <rect id="Rectangle_1603" data-name="Rectangle 1603" width="238" height="99" transform="translate(749 1185)" fill="none"/>
  </g>
</svg>
