<svg xmlns="http://www.w3.org/2000/svg" width="238" height="99.429" viewBox="0 0 238 99.429">
  <g id="Groupe_765" data-name="Groupe 765" transform="translate(-380 -1190)">
    <g id="Groupe_731" data-name="Groupe 731" transform="translate(104.803 960.988)">
      <g id="Groupe_729" data-name="Groupe 729">
        <path id="Tracé_964" data-name="Tracé 964" d="M420.065,323.026c-.493,0-1.253-.057-1.69-.076v4.959a.365.365,0,0,1-.361.38h-1.9a.381.381,0,0,1-.38-.38V314.838c0-.38.228-.512.608-.569a25.929,25.929,0,0,1,3.723-.248c2.926,0,5.472,1.026,5.472,4.389v.171C425.537,321.943,422.991,323.026,420.065,323.026Zm2.85-4.616c0-1.6-.949-2.2-2.85-2.2-.4,0-1.348.037-1.69.075V320.8c.3.019,1.368.057,1.69.057,2.052,0,2.85-.76,2.85-2.28Z" fill="#e95a00"/>
        <path id="Tracé_965" data-name="Tracé 965" d="M436.956,328.175a20.629,20.629,0,0,1-3.229.265c-2.47,0-4.389-.664-4.389-3.894v-9.992a.381.381,0,0,1,.38-.38H431.6a.381.381,0,0,1,.38.38v9.992c0,1.254.379,1.634,1.481,1.634h3.5a.381.381,0,0,1,.38.38v1.216C437.336,328.042,437.24,328.118,436.956,328.175Z" fill="#e95a00"/>
        <path id="Tracé_966" data-name="Tracé 966" d="M450.161,328.118c-.665.094-3.058.322-4.218.322-3.058,0-5.185-1.291-5.185-5.337v-8.568a.365.365,0,0,1,.38-.361h1.881a.364.364,0,0,1,.379.361V323.1c0,2.165.494,3.153,2.545,3.153.761,0,1.919-.076,2.622-.152V314.535a.35.35,0,0,1,.362-.361h1.88a.365.365,0,0,1,.38.361v12.424C451.187,327.757,450.845,328.022,450.161,328.118Z" fill="#e95a00"/>
        <path id="Tracé_967" data-name="Tracé 967" d="M459.3,328.44a14.527,14.527,0,0,1-3.362-.341.406.406,0,0,1-.362-.38v-1.368a.361.361,0,0,1,.362-.361h.037c.76.1,2.66.19,3.363.19,1.69,0,2.2-.608,2.2-1.71,0-.741-.36-1.121-1.614-1.862l-2.508-1.5c-1.767-1.044-2.242-2.146-2.242-3.476,0-2.089,1.216-3.61,4.75-3.61a21.1,21.1,0,0,1,3.647.343.385.385,0,0,1,.342.361v1.4a.325.325,0,0,1-.323.342h-.038c-1.254-.114-2.508-.19-3.742-.19-1.407,0-2,.494-2,1.349,0,.627.324,1.007,1.559,1.691l2.279,1.273c2.09,1.158,2.641,2.374,2.641,3.875C464.3,326.389,463.1,328.44,459.3,328.44Z" fill="#e95a00"/>
      </g>
      <path id="Tracé_968" data-name="Tracé 968" d="M471.151,306.2a2.462,2.462,0,1,1-.01,0Zm-.01.382a1.991,1.991,0,1,0,.01,0Zm-.463,3.486h-.439v-2.726a4.82,4.82,0,0,1,.781-.065,1.46,1.46,0,0,1,.857.206.647.647,0,0,1,.254.565.677.677,0,0,1-.539.661v.023c.243.044.408.262.463.663a2.293,2.293,0,0,0,.176.673h-.463a2.009,2.009,0,0,1-.187-.694.517.517,0,0,0-.594-.479h-.309Zm0-1.51H471c.361,0,.669-.129.669-.467,0-.239-.175-.477-.669-.477a2.194,2.194,0,0,0-.321.021Z" fill="#7ccdf5"/>
      <g id="Groupe_730" data-name="Groupe 730">
        <path id="Tracé_969" data-name="Tracé 969" d="M314.2,282.717h0a5.332,5.332,0,0,1,5.332,5.332v17.6h2.685a5.084,5.084,0,0,1,5.084,5.084H314.2Z" fill="#0070bf"/>
        <path id="Tracé_970" data-name="Tracé 970" d="M330.194,282.717h0a5.294,5.294,0,0,1,5.294,5.294v17.424a5.294,5.294,0,0,1-5.294,5.294h0Z" fill="#0070bf"/>
        <path id="Tracé_971" data-name="Tracé 971" d="M339.945,282.717h0a9.428,9.428,0,0,1,7.9,4.288l9.2,14.145v-13.1a5.332,5.332,0,0,1,5.332-5.332h0v28.012h0a9.463,9.463,0,0,1-7.928-4.3l-9.172-14.079V305.4a5.332,5.332,0,0,1-5.332,5.332h0Z" fill="#0070bf"/>
        <path id="Tracé_972" data-name="Tracé 972" d="M366.512,282.717h13.9a5.2,5.2,0,0,1-5.2,5.2h-3.408V293h8.608a5.123,5.123,0,0,1-5.123,5.123h-3.485l-.228,7.52a5.251,5.251,0,0,1-5.066,5.086h0Z" fill="#0070bf"/>
        <path id="Tracé_973" data-name="Tracé 973" d="M397.6,282.012a13.912,13.912,0,0,1,10.223,4.3,14.322,14.322,0,0,1,4.278,10.493,14.162,14.162,0,0,1-4.221,10.378,14.623,14.623,0,0,1-20.722-.114A14.719,14.719,0,0,1,397.6,282.012Zm-.058,5.218a8.791,8.791,0,0,0-6.538,2.7,9.418,9.418,0,0,0-2.649,6.875,8.956,8.956,0,0,0,3.336,7.35,9.143,9.143,0,0,0,5.947,2.114,8.686,8.686,0,0,0,6.462-2.742,9.882,9.882,0,0,0-.019-13.53A8.766,8.766,0,0,0,397.542,287.23Z" fill="#0070bf"/>
        <path id="Tracé_974" data-name="Tracé 974" d="M412.865,282.717h0a4.623,4.623,0,0,1,4.248,2.8l8.083,18.841,8.225-18.866a4.625,4.625,0,0,1,4.238-2.775h.019l-12.187,28.012h-.61Z" fill="#7ccdf5"/>
        <path id="Tracé_975" data-name="Tracé 975" d="M441.2,282.717h0a2.8,2.8,0,0,1,2.8,2.8v22.412a2.8,2.8,0,0,1-2.8,2.8h0Z" fill="#7ccdf5"/>
        <path id="Tracé_976" data-name="Tracé 976" d="M449.791,282.717h5.58a33.839,33.839,0,0,1,6.322.381,7.224,7.224,0,0,1,4.057,2.45,7,7,0,0,1,1.56,4.624,7.474,7.474,0,0,1-1.075,4.023,6.719,6.719,0,0,1-3.075,2.622,14.149,14.149,0,0,1-5.524.906l10.075,13.006h0a7.062,7.062,0,0,1-5.584-2.738l-7.954-10.268H452.59v10.206a2.8,2.8,0,0,1-2.8,2.8h0Zm2.8,2.742v9.522l4.826.038a12.01,12.01,0,0,0,4.148-.533,4.318,4.318,0,0,0,2.1-1.7,4.735,4.735,0,0,0,.753-2.618,4.539,4.539,0,0,0-.763-2.562,4.25,4.25,0,0,0-2-1.647,12.165,12.165,0,0,0-4.119-.495Z" fill="#7ccdf5"/>
      </g>
    </g>
    <g id="Groupe_764" data-name="Groupe 764">
      <rect id="Rectangle_1602" data-name="Rectangle 1602" width="238" height="99" transform="translate(380 1190)" fill="none"/>
    </g>
  </g>
</svg>
