<svg xmlns="http://www.w3.org/2000/svg" width="238" height="99" viewBox="0 0 238 99">
  <g id="Groupe_759" data-name="Groupe 759" transform="translate(-1203 -534)">
    <g id="Groupe_472" data-name="Groupe 472" transform="translate(1251 593)">
      <g id="Groupe_457" data-name="Groupe 457" transform="translate(6.248 17.749)">
        <path id="Tracé_642" data-name="Tracé 642" d="M5.3,16.8Z" transform="translate(-5.3 -14.743)" fill="#e73137"/>
        <path id="Tracé_643" data-name="Tracé 643" d="M5.3,16.6Z" transform="translate(-5.3 -14.779)" fill="#e73137"/>
        <path id="Tracé_644" data-name="Tracé 644" d="M6.313,17.008c-.118,0-.118-.118,0,0Z" transform="translate(-5.134 -14.716)" fill="#e73137"/>
        <path id="Tracé_645" data-name="Tracé 645" d="M9.5,18.2Z" transform="translate(-4.549 -14.493)" fill="#e73137"/>
        <path id="Tracé_646" data-name="Tracé 646" d="M6.3,17.013Z" transform="translate(-5.121 -14.721)" fill="#e73137"/>
        <path id="Tracé_647" data-name="Tracé 647" d="M6.5,15.108Z" transform="translate(-5.085 -15.056)" fill="#e73137"/>
      </g>
      <g id="Groupe_471" data-name="Groupe 471">
        <g id="Groupe_465" data-name="Groupe 465">
          <g id="Groupe_458" data-name="Groupe 458">
            <path id="Tracé_648" data-name="Tracé 648" d="M5.7,31.313Z" transform="translate(1.02 5.587)" fill="#e73137"/>
            <path id="Tracé_649" data-name="Tracé 649" d="M5.5,31.4Z" transform="translate(0.984 5.618)" fill="#e73137"/>
            <path id="Tracé_650" data-name="Tracé 650" d="M5.4,30.5Z" transform="translate(0.966 5.457)" fill="#e73137"/>
            <path id="Tracé_651" data-name="Tracé 651" d="M6.108,27.7Z" transform="translate(1.084 4.956)" fill="#e73137"/>
            <path id="Tracé_652" data-name="Tracé 652" d="M.3,13.1Z" transform="translate(0.054 2.344)" fill="#e73137"/>
            <path id="Tracé_653" data-name="Tracé 653" d="M19.688,11.671c.118-.354-.354-.354-.472-.589.118,0,.354.118.472,0-.236-.825-.236-1.415-.472-2.24h.118c0-.589-.707-.943-.589-1.415-.118-.118-.236-.236-.472-.118,0,.118-.236.236-.472.236-.354-.236.354-.236.236-.472.354-.236.354.118.707,0l-.354-.236c.118-.236-.236-.354-.118-.589,0,.118.354-.118.236.118h-.118c.118.354.236.118.472.354a1.019,1.019,0,0,1-.354-.707c-.236.118-.236-.118-.354-.118h0a.433.433,0,0,1-.354-.118l.354-.236c-.118-.118-.118.118-.236,0s-.354-.472-.118-.707c-.118-.118-.354-.118-.354-.236h.236a10.954,10.954,0,0,1-.589-1.179,1.07,1.07,0,0,0-.825-.354c.118,0,.118.236-.118.354-.118,0-.236-.118-.354-.118.118-.118-.118-.354.236-.236.236-.354-.472-.354-.118-.589-.118,0-.354-.236-.589-.118.118-.118.236,0,.354-.118l-.354-.472h0c-.236-.354-.589.118-.707,0H14.5l.354-.236c-.236-.118-.472.118-.707,0V1.415h-.236a.115.115,0,0,0,.118-.118c-.236.236-.472,0-.707.118,0-.118,0-.472-.236-.236l.236-.354c.354.118,0,.354.354.354,0-.589-.707-.825-1.179-.943-.472.118-.943-.354-1.179.236l.118-.236C11.2.118,10.964.118,10.846,0c-.589.118-1.179-.118-1.533.236L9.2.118C8.96.825,7.9.707,8.017,1.533c-.236-.118,0-.354,0-.472-.118,0-.236.589-.472.236,0-.118.118-.236,0-.236-.236-.118-.118.354-.354.118a.724.724,0,0,1-.118.707h0c.118.118,0,.118,0,.236V2A6.282,6.282,0,0,1,4.716,3.537V3.3a.231.231,0,0,1-.236.236h0c-.472-.118,0,.472-.354.236h0c-.236.236-.589,0-.707.354h0c.236-.236-.472-.118,0-.472h0c-.118-.236.236-.589,0-.707.118-.236.236-.236.472-.472a1.175,1.175,0,0,0-.472-.118v.118c-.236,0-.236-.118-.354-.236a2.776,2.776,0,0,0-1.179.589c.118.118-.472.354-.354.472.472,0-.236.354.236.472-.354,0-.236.236-.589.236-.236.118.354.236.118.472H1.061c.236.118-.236.236-.118.354L1.3,4.716c.118,0-.118.118-.118.118a.516.516,0,0,1,.354-.118c.118,0,.236,0,.236.118H1.533a.365.365,0,0,1-.118.236c-.118,0-.118-.118-.354-.118,0,.236-.118,0-.354.236.354-.118.236.118.354.236-.118,0-.118-.118-.236-.118-.589.236.236.236.118.472H.825c.118.118-.236.236,0,.354,0,.118-.472.118-.354.236.354-.118,0,.236.354.118L.589,6.72c.236.118.707-.118.825.118-.118.236-.707.118-.943.236H.707l-.118.118h0c.118,0,0,.236-.118.236S.354,7.309.236,7.309c.236.118-.472.472.118.589,0,.118,0,.236-.236.236.236,0,0,.354.118.354,0,0-.236.118-.118.118a.221.221,0,0,1,.354,0c-.236.118,0,.354-.354.354.236.118.472,0,.707,0-.118.118-.118.354-.472.354,0-.118.118-.236-.118-.118s0,0,.118.118c-.118,0-.236.118-.354.118v.236c.118-.118.236,0,.472,0L.118,9.549c0-.118.236,0,.354-.118.118.236.472.118.707.354-.118,0-.118.118-.118.236,0-.118-.354,0-.472,0,.354.118-.118.236-.236.472.118-.118.354-.118.354,0,.236.118-.118,0-.236.118.118.354-.354.707-.118.943l.354-.236H.354c.236-.118.707,0,.943,0-.118.118-.118.354-.236.236l.118.236c.118,0,.118-.118.236-.118-.118,0-.118.236-.354.118,0,.118.118.236.354.236,0,.118-.354,0-.589,0,0,.118-.236.118-.354.118v.118H.118c-.118.118.236.236,0,.354H.354c-.236.354-.236.354-.236.589l.236-.118c.354.236-.354.236-.118.472a.693.693,0,0,0,.589.236c.118.118-.118.118-.236.236.236,0,.589.118.354.236-.118-.118-.236-.118-.236-.236-.354,0,0,.236-.236.354a5.126,5.126,0,0,0,.825.472.946.946,0,0,1,.943.118c-.236,0-.236.236-.354.354-.236,0-.472.236-.589,0,.236,0,.472,0,.354-.118-.236.118-.354.236-.589.354a.412.412,0,0,1-.236-.118h.236c-.236-.236-.472.118-.707,0,.118.118,0,.236.236.118-.472.118.236.354-.118.589,0,0,.236-.118.354,0,0,.118-.118.118-.236.236.118,0,.236.236.236.236.118.118.472-.118.707,0,.354.118,0,.236.118.354-.236.118-.118-.118-.236-.236l.118.354c-.118.118-.354,0-.236-.118-.236.118,0,.354.236.354,0,.118,0,.118-.118.236-.236,0-.707.118-.825-.118,0-.236.354.118.472-.118H.825c.118-.118,0-.118-.118-.236H.825c0-.118.118-.354-.236-.472-.236.236.118.589-.236.707l.354.472c.118,0,.354-.118.472,0-.354.118-.472.236-.472.354.472-.118.472.236.707.118-.236-.118.118-.118.118-.118,0,.118.354,0,.354.118-.118.354-.236,0-.354.354a3.875,3.875,0,0,1-.707-.354c-.118,0,0,.118-.118.236.236-.118.354.118.354,0,.118.236.472.472.589.825-.472,0-.354-.472-1.061-.354.118.118.354.118.354.236-.354.118,0,.354,0,.589l.236-.236c.118.118,0,.236,0,.354H1.061l.118.118h0c.118.118,0,.354.118.472.236,0,0-.236,0-.236a.258.258,0,0,1,.354-.118c0,.236.354.354.354.589l.118-.118c.236.118.118.236.118.354-.118.236-.354-.118-.472,0-.236-.118,0-.236-.354-.236l-.354.118c.236.118-.118.236,0,.354l.118-.236c.236,0,.118.118,0,.118l.354-.118c.118-.118-.236-.236,0-.354.118.236.472.118.472.472-.118,0-.118,0-.236-.118-.118.118.236.236.118.354-.118-.118-.236-.236-.472-.118l.354.118c0,.118-.118,0-.118.118s.354,0,.236.118a.163.163,0,0,1-.236,0c0,.236.118.118.236.236,0-.118.472-.118.472,0,0,.236.236.354-.118.472l.118.354c-.236,0-.118.118-.118.236-.354,0,0-.354-.472-.354,0,.118-.236.118-.354,0,0,.118.354,0,.589.118-.118,0,0,.236-.354.236,0,.118.354.118.236.236H1.415c.118,0,0,.118,0,.118s.236,0,.118-.118c.236,0,0,.236.236.236-.236,0,0,.236-.118.354.707,0-.236-.236.236-.236.236.118,0,.589.354.825-.118.236-.236,0-.472.118-.118-.236.118-.236,0-.472-.118.236,0,.472.236.707,0,.236-.707.236-.472.472.236,0,.236,0,.354-.118.118.118,0,.118,0,.236.118,0,.118-.118.236,0a.412.412,0,0,1-.236.118h0c.236.236-.472.236-.118.354.118,0,0-.118,0-.118.118,0,.354.118.472.118-.118,0,0,.118-.118.118-.236,0-.118-.118-.236-.236v.236h0l.236.236c-.118-.118.354-.118.354,0s-.118.354-.354.236c.236,0,.236.236.354.354.118-.118.236,0,.354,0l-.236.236c-.118-.236-.236,0-.472,0S2,26.644,2,26.526c-.472.236.236.354,0,.472-.118,0-.236,0-.236-.118-.118,0,.236.118.118.354.118,0,.354-.118.472,0L2,27.469c0,.236.354,0,.472.236l.236-.118c.236,0,0,.236.354.236,0-.118-.236-.118-.118-.236.236,0,.118.118.354.236-.118.236-.118.236-.354.354-.472,0-.589-.236-1.179-.236.118.236.236.589.118.707.118.236.472.118.825.118V29l-.118-.118c.118.236.354.354.354.589a.526.526,0,0,0,.589,0l.118.118h0c.354,0,.236.118.236.236H3.655c-.118.118,0,.236.118.354-.118,0-.472,0-.354-.118h.118L3.3,29.945c.118.236-.118.354-.472.354.118.236.354-.236.472,0-.589.354.236.589-.589.943a1.421,1.421,0,0,1,.589.589c.236,0,.118.118.472.118.354-.236-.589-.354-.118-.589-.118-.118-.354,0-.472-.118,0-.118,0-.236.118-.236.236.236.589,0,.707.236.236,0,.118-.236.118-.354a.433.433,0,0,0,.354-.118c.236,0,.354.236.589.236H4.834l.354.236a.709.709,0,0,1-.472.118c-.118.118.354.354-.118.472.118.236.236-.118.354-.118h0v-.236c.472-.118-.118.236.354.236.825,0-.236.354-.118.472L4.6,32.067l.118.118c-.236-.118-.589,0-.825-.118,0,.236-.118.589,0,.707a1.063,1.063,0,0,1-.589.118c.354.118-.118.354-.118.589.236.118.236-.236.589-.118-.118.118,0,.118,0,.236-.118,0,0-.236.118-.472,0,.118.236,0,.354.118V33.01c.354,0,0,.236.236.236H3.89c.118.118.236.354,0,.472-.118.118-.118,0-.236-.118-.236.118.118.118-.118.236-.236,0,0-.118-.118-.118v.472c-.118,0-.236-.118-.118-.118-.118.118,0,.236.472.354-.118.118-.236.354-.472.354h.354c0,.236.472.118.472.236l.236-.118c-.236.236.354,0,.236.236-.236,0-.472.118-.825.118.236,0,0,.118.118.236.236-.118.236.118.472,0,.236.118-.118.236.236.354.118-.118.236.118.472,0a.526.526,0,0,1-.472.354c0-.118.118-.118-.118-.118l.118.354c-.118.118-.118.236-.472.236.354,0-.118.354.236.354-.236,0,0-.236.118-.236H4.6l.118-.236c.118-.118-.354,0-.354-.118.472-.236.707.236.943,0,.118-.118-.354,0-.472-.118h0L4.6,36.075h.236c-.118-.354.118-.354.118-.707,0,0-.472.236-.589.118s.118-.118.118-.236c.118,0,.354,0,.118.118l.354-.118c.472.118.707,0,.943.236.236,0,.472.118.354.354l.236-.118c.472.118-.354.118.118.236a2.472,2.472,0,0,1-1.3.472c-.118.236.118.236.236.354-.354.118-.354,0-.707.118.118.118.236.236.472.118l-.118.236c-.118,0-.118,0-.118-.118,0,.118.118.236.354.236,0,0-.118,0,0-.118a.709.709,0,0,0,.472.118c-.236-.118.236-.236-.118-.236h.236c.236-.118.118-.236.354-.354-.118.118.118.118.118.118,0-.118,0-.236-.118-.236.354-.118-.118-.236.236-.236-.118,0-.236-.118-.118-.118s.354.118.472.118c.236.236-.354.118-.354.118l.118.236s.354,0,.236-.118c.236,0,.472.118.354.236a.115.115,0,0,0,.118-.118c.118,0,.589,0,.589-.118a.582.582,0,0,0-.354.118c-.118-.118,0-.354.236-.236-.118-.118-.236-.236-.354-.236.118-.118.118,0,.236,0l-.118-.236-.236.118c.118-.236-.354-.236-.589-.354.354,0,.354.118.589.118.354-.236-.236,0-.236-.236a.365.365,0,0,0,.236-.118H7.191c-.354-.118-.472.118-.707-.118-.118.236.236.118.236.236-.236.118-.472-.118-.589-.118,0-.118.472-.236.236-.354.236.118.354,0,.354.118.236,0,.236-.118.354-.236-.118,0-.354.118-.354,0h0l-.354-.118c.118-.236-.472-.354-.118-.589l-.354.118a1.187,1.187,0,0,0-.118-.354c.236,0,.236.118.354.118a.783.783,0,0,0-.472-.589c-.236.118-.236.118-.354.354-.472-.118.236-.236,0-.354a1.063,1.063,0,0,0,.589-.118c-.236,0-.236-.236-.472-.236a.661.661,0,0,1,.707.118c-.236.236.236.236,0,.472l.236-.118c.118.118.118.236.236.354h.354v-.118a5.106,5.106,0,0,1,.589.118c-.118-.236-.589-.118-.943-.236,0-.236.589-.354.236-.472.118,0,.354-.118.472-.118.118.118-.118.236.118.118,0-.118.118-.118,0-.236-.354,0-.589-.118-.825-.118-.118-.118-.236-.236-.118-.354,0,.118.354.236.589.118-.354,0,.236-.236-.236-.236a.44.44,0,0,1,.354-.472c.118.118,0,.236,0,.354a.412.412,0,0,1,.236-.118v.236c.118-.118.236-.118.236-.354H7.545v-.118H7.9c-.118-.118.236-.354,0-.589h.118c0-.236-.589-.118-.707-.354h.472c-.236-.118.118-.118.118-.236-.236.118-.354,0-.472,0-.354,0-.354-.118-.354-.236.236-.118,0,.354.472.118,0-.118-.236-.118-.236,0a.632.632,0,0,1,.354-.472c-.354-.118-.118-.236-.589-.236,0,.118.354.118.118.236L6.838,30.3c0-.118.236-.354.236-.472l.118.118h0c.118,0,.118.236.354.118-.354-.118,0-.236-.236-.354h0c-.236-.236.472-.354-.236-.472a1.188,1.188,0,0,1-.354.118c.118-.118.118-.236.236-.236h.118c0-.118.118-.236,0-.236-.236,0-.354,0-.472-.118.118-.236.472.118.707-.118l-.236-.118.236-.118c.118-.354-.472-.589-.472-.943.354,0,.472.236.472.354.236-.118-.118-.236.118-.472a.9.9,0,0,0-.589-.236C6.72,27,7.074,27,7.074,27c-.354,0-.236-.236-.354-.354h.236l-.236-.236H6.366c-.589.236.472.472-.236.707a.163.163,0,0,0-.236,0A.115.115,0,0,1,6.013,27c-.118,0-.354-.118-.354,0-.472,0-.354-.236-.472-.354.236-.118.472.118.589.236,0-.118-.236-.118-.118-.236h.354c-.236-.236-.236,0-.589-.118-.472,0,0-.236,0-.236l.118.118c.118-.236-.236-.236-.236-.354l.236-.118c-.354.236.472.236.354.354.236-.354.707,0,.943.118-.118-.118,0-.236.118-.354-.472-.118.118-.354-.354-.589,0-.118.236.118.236,0a.649.649,0,0,0-.236-.589c0-.118.118-.118.236-.118.236-.472-.589-.707-.472-1.179H6.72c0-.118.118-.236-.118-.236.589-.118-.354-.472.236-.707.118-.236-.354-.236-.472-.472h.472A3.442,3.442,0,0,1,6.6,21.1h.236v-.236c.236.236.472-.236.707-.354a.8.8,0,0,1-.354.472c0,.354.118-.236.354-.118V21.1l.236-.236v.118c.354-.354.118-.472.472-.589-.236-.236-.236.236-.354.118-.118-.236.236-.354.354-.472.118.118.118.589.354.354-.236.118,0,.354-.236.236-.118.118,0,.118,0,.354.118,0,0-.354.118-.236h0l.354-.354c.236.236.589-.354.707,0v-.354a.709.709,0,0,0,.472-.118c0,.236-.118.236-.236.236.236.118.589-.118.707-.472a.906.906,0,0,0-.236-.354c.118-.472.236.236.472,0v.589c.118-.236.236-.236.354-.354.118.354,0,.589-.236.589-.236-.236-.354.236-.589,0l.118.236c-.236.118-.354,0-.472.236h0l-.118.354H9.9c-.118.236-.236.472-.354.472.354,0,.354-.589.472-.825.236,0,.354.589.472.354,0,.118.118.354.118.472-.118.118-.236-.118-.236.118.118,0,.118.118.354.118a2.5,2.5,0,0,1,.354-.825c.118-.118.354-.236.472-.118a.488.488,0,0,0-.236.589c.118-.354.354.236.236-.236.236,0,.589-.118.707.236-.236.118-.472,0-.589.118l.118.118h-.236c.236.118.236.236.472.236,0,0-.118-.118,0-.118h.236l.118.354c.118-.236.589.118.943-.236v.118c.354,0,.118-.707.472-.825,0,.236,0,.354.118.472.118-.236.236,0,.472,0-.236-.118,0-.354-.118-.472-.118-.354.118-.472.354-.472.236.354-.354.472,0,.707.118,0,.118-.236,0-.354a1.926,1.926,0,0,1,.825,0c.118-.354.236-.354.236-.707-.118.118,0,.354-.236.236V20.16c.236-.118.472,0,.707-.118l-.118.236h0c0,.118-.236.236-.118.354,0-.354.236-.118.354-.472h0c.118-.354.825,0,.589-.589,0,0-.354,0-.354-.118.118.118.354-.118.354,0v.118c.236-.118.354-.118.354-.236-.118-.236-.236-.236-.236-.472.354-.118.236.472.589.472l.118-.354.236.118c.472-.236.236-.943.589-1.415.236.236.118.589.118.707.354,0,.118-.354.472-.472a.319.319,0,0,0-.236-.472c0-.236.236,0,.354,0-.236-.236,0-.472,0-.707l.236.118-.118-.354c0,.118-.236-.118-.354-.118h0c-.589,0,0,.825-.707.707,0-.118-.118-.118-.236-.236h.118c-.118-.118-.236-.236-.236-.118-.354-.236-.118-.472-.118-.707.354,0,.236.354.472.472,0-.118-.118-.236,0-.236l.236.118c0-.354-.236-.236-.472-.354-.354-.236.118-.236.118-.236v.118c.236-.118-.118-.354,0-.472h.236c-.354.118.354.472.118.472.472-.236.589.354.707.589a.313.313,0,0,1,.354-.354c-.236-.354.354-.472,0-.825.118-.118.118.236.236,0a1,1,0,0,0,0-.825c0-.118.236-.118.354-.118.354-.589-.354-1.061-.118-1.65l.118.118c.118-.118.118-.236-.118-.354C19.924,12.379,19.1,11.789,19.688,11.671Zm-13.2,9.314ZM15.208,11.2l.118.118c-.236-.118-.118.118-.118.118-.354,0,0-.236-.472-.354,0,.118-.236,0-.354,0,0,.118.354.118.589.118-.118,0,0,.236-.354.118,0,.118.236.118.236.236h-.472c.118,0,0,.118,0,.118.118,0,.236.118.236,0,.236,0,0,.236.236.236-.236,0-.118.236-.236.236.707.118-.236-.236.354-.118.236.118,0,.472.236.707-.118.118-.236,0-.472-.118-.118-.236.118-.236,0-.354a.526.526,0,0,0,0,.589c0,.118-.707,0-.589.236H14.5c.118.118,0,.118,0,.118.118.118.236,0,.236.118a.163.163,0,0,1-.236,0h0c.118.236-.589,0-.236.236.118,0,0,0,.118-.118a.531.531,0,0,1,.354.354c-.118-.118,0,0-.118.118-.236,0,0-.118-.118-.236l-.118.118h0l.118.236c0-.118.354.118.354.118-.118.118-.236.236-.472,0,.236.118.118.236.236.354a.412.412,0,0,1,.236.118H14.5c0-.236-.236-.118-.354-.236-.236-.118,0-.236,0-.236-.472-.118.118.354-.118.354-.118-.118-.236-.118-.118-.236-.118,0,.118.236,0,.236.118,0,.354.118.354.236l-.354-.118c-.118.118.236.236.236.472h.236c.236.118-.118.118.118.354.118-.118-.118-.236,0-.236.236.118.118.236.118.354-.236.118-.236,0-.472,0-.354-.236-.354-.472-.825-.825,0,.118,0,.472-.236.354a.783.783,0,0,0,.472.589c0,.118,0,.118-.118,0v-.118a.883.883,0,0,1-.118.589.632.632,0,0,0,.354.472l-.118.118h0c.118.236,0,.236-.118.354-.118-.118,0-.118-.118-.236-.118,0-.236,0-.236.236-.118-.118-.236-.354,0-.354a.115.115,0,0,0,.118.118v-.236c0,.236-.354,0-.472-.236,0,.236.236.236.236.354-.472-.354-.354.354-.825-.354,0,.236,0,.589-.236.589.118.236-.118.118,0,.472.354.236.118-.589.472-.236,0-.118-.118-.354-.118-.472a.365.365,0,0,1,.236.118c-.118.236.236.589,0,.707.118.236.236,0,.354,0a.254.254,0,0,0,.236.236v.589c0-.118-.118-.118-.118-.236l-.118.472a.613.613,0,0,1-.236-.472c-.118,0-.354.354-.472,0-.118.118.118.236.236.236h0l.236-.118c.118.354-.236,0-.118.354.236.825-.354-.118-.472,0v-.589l-.118.118c0-.236-.118-.589,0-.825-.236,0-.472-.118-.589,0a1.063,1.063,0,0,1-.118-.589c-.118.354-.236-.118-.472-.118-.118.236.236.236.118.589-.118-.118-.118,0-.236,0,0-.118.236.118.354.118-.118,0,0,.236,0,.354h.118c0,.354-.236,0-.236.236V17.33a.359.359,0,0,1-.472,0c-.118-.118,0-.118.118-.236,0-.236-.118.118-.118-.118s.118,0,.118-.118l-.354-.118a.115.115,0,0,1,.118-.118c-.118-.118-.236-.118-.354.354a.894.894,0,0,1-.236-.472c-.118.118,0,.236,0,.354-.118-.118-.236.354-.354.354l.118.236c-.118-.236-.118.354-.236.236v-.825c0,.236-.118,0-.236,0,0,.236-.118.236-.118.472-.236.236-.236-.118-.354.118a2.029,2.029,0,0,1-.236,1.061c-.118,0-.236-.354-.118-.589,0,0,.118.118.118,0H8.017c0-.118-.118-.236-.118-.472-.118.354-.236-.236-.354.118.118-.236.118.118.236.118h0l-.236.472c.118.236.118-.354.236-.236.118.472-.472.589-.354.943.118.118.118-.236.354-.354h0l.236-.118a.412.412,0,0,1-.118.236c.236,0,.354.354.589.354,0-.118,0-.589.118-.589.118-.118.118.236.118.236s-.118.354-.236.118V19.1c-.236.354-.236.589-.589.707a.319.319,0,0,1-.472.236v.236c-.236.354,0-.354-.354,0a2.553,2.553,0,0,1,.236-1.415c-.236-.118-.236.118-.472,0,0-.354.118-.354.236-.707-.118,0-.236.118-.236.354l-.118-.236c0-.118.118,0,.118,0,0-.118-.236,0-.354.118H6.6a1.7,1.7,0,0,1-.354.236c.118-.118.118.236.236.118a.412.412,0,0,1-.118.236c0,.236.118.236.118.472,0-.236-.118,0-.236.118a.221.221,0,0,0,.354,0c-.118.354.354,0,.118.354,0-.118.236-.118.236,0s-.236.236-.354.354c-.118,0-.236,0-.118-.118h0c0-.118.236-.236.118-.354H6.366c-.118-.354-.354-.589-.236-.825-.118,0-.236-.236-.472-.118,0,.118-.354.118-.472.118-.236-.354.354-.118.354-.354.472-.118.236.118.707.118l-.354-.354c.118-.236-.118-.354.118-.472,0,.118.354,0,.118.118H6.013c0,.236.236.118.354.354a.78.78,0,0,1-.118-.707c-.354,0-.118-.236-.354-.236h0a.412.412,0,0,1-.236-.118h.354c0-.118-.236,0-.236,0a.382.382,0,0,1,.236-.589c0-.118-.236-.118-.236-.354h.236c.118-.354-.118-.707.118-.943a1.177,1.177,0,0,0-.472-.589c0,.118,0,.236-.236.118-.118,0-.118-.118-.236-.236.236,0,.118-.236.354-.118.472-.118,0-.472.354-.472-.118,0-.118-.354-.354-.472.236,0,.118.118.236.118l-.118-.118h.118c.118-.236-.472-.236-.472-.472h0l-.118-.118.354.118c-.118-.118-.354-.236-.472-.354h.118l-.118-.118h.118c-.354-.118-.236-.354-.472-.354,0-.118.472-.118.118-.236h.354c.118.236-.236.118-.118.354.825-.236.707-.707.589-1.061-.236-.236.118-.707-.472-.825h.236l.118-.472c-.118-.354,0-.825-.354-1.061l.236-.118c-.707-.236-.472-1.061-1.3-1.179.118-.236.354,0,.472,0,0-.118-.472-.236-.118-.472.118,0,.118.118.236.118.236-.118-.236-.118,0-.236a.666.666,0,0,1-.707-.236h0c-.236.118-.236,0-.236-.118H3.89a4.109,4.109,0,0,1-.707-2c.236.236.472.472.707.472,0-.236.472.354.589.118-.118-.354.472.118.354-.354.118.354.236,0,.354.354.236.118.118-.472.472-.236,0,.118.118.118.118.236,0-.236.236.118.354,0l-.236-.236c0-.118.118.118.118,0,0,0-.236-.118-.236-.236V4.716c.118,0,.118.118,0,.118,0,0,.118-.118.236.118v.354c.236,0,.118.118.354.236-.236-.354,0-.236.118-.354.118.118,0,.118,0,.236.589.472.236-.354.472-.354v.118c0-.118.236.118.236-.118.118,0,.236.354.354.236-.236-.354.236,0,0-.354l.236.118c0-.236-.354-.589-.118-.707.236,0,.236.589.472.825V4.951l.118.118h0c0-.118.118-.118.236,0v.236c0-.236.472.472.354-.236.118.118.118,0,.236.236,0-.236.236,0,.236-.118,0,.118.118.236.118.118-.118,0-.118-.118-.118-.354.118.236.118,0,.236.354A1.5,1.5,0,0,0,9.431,4.6c.118.236.354.118.354.589,0,0-.118-.118-.118.118.118.118,0-.118.118-.118,0,.118.118.236.118.354h.118c-.118-.118,0-.236,0-.472v.236c-.118,0,0-.236-.118-.354.118-.118.118-.472.236-.707,0,.118.118.118.118.236v.472c0-.236.118.236.118.354V4.951c.118-.236,0,.118.118.354.236,0,.236.472.472.236V5.187l-.118.118a1.7,1.7,0,0,1,.236-.825c0,.118.118.118,0,.236L11.2,4.6c0-.118-.118-.118,0-.236,0,.118.118.236,0,.354,0,0,.118,0,.236-.236.118,0-.118.354-.236.472.118,0,0,.354-.118.354H11.2a.412.412,0,0,1-.118.236c0,.118.118-.236.118.118l.118-.236c0,.236,0,.236.118.354l.118-.236c.236-.118-.118.472,0,.354.118,0,.236-.118.472-.354.118-.118,0,.118,0,.236.118-.118.472-.236.354-.118a.412.412,0,0,0-.236.118c-.236.236.118.118,0,.354a5.748,5.748,0,0,1,.825-.354.969.969,0,0,1,.707-.472c-.118.118,0,.236-.118.354s-.236.472-.472.354c0-.118.236-.236.118-.236-.118.118-.236.354-.354.472-.118,0-.236.118-.236,0,.118,0,.118-.118.236-.118-.236,0-.354.354-.589.472.118,0,.118.118.236,0-.354.354.354,0,.118.354a.412.412,0,0,1,.236-.118c.118,0-.118.118-.118.236a.163.163,0,0,1,.236,0c.118,0,.354-.354.589-.354.354-.118.118.118.236.118-.118.236-.236,0-.354,0l.354.236c-.118.118-.354.118-.354,0-.118.236.118.236.354.118v.236c-.118,0-.589.118-.707.118,0-.118.354-.118.354-.236l-.236.118c.118-.118-.118-.118-.118-.118,0-.118.118,0,.118,0-.118-.118,0-.236-.354-.118-.118.236.236.354,0,.472.118,0,.354.118.472.118s.236-.236.472-.236a.632.632,0,0,0-.354.472c.354-.118.354.118.589-.118-.236,0,.118-.118.118-.118.118.118.354-.118.354,0,0,.236-.236.118-.236.354-.118,0-.589,0-.707-.118-.118.118.118.118-.118.236.118-.118.354,0,.354-.118.236.118.589.236.707.472-.472.118-.472-.236-1.061,0,.118.118.354,0,.354.118-.236.118,0,.236.118.354l.118-.118c.118,0,.118.118,0,.236h0c.118,0,0,.236.118.354.236,0,0-.118,0-.236A.258.258,0,0,1,14.5,9.2c0,.236.354.236.354.472l.118-.118c.236,0,.118.118.118.236-.118.236-.354-.118-.472,0-.236,0,0-.236-.354-.118l-.354.118c.236.118-.118.236,0,.236h.236c.236,0,.118.118,0,.118l.354-.118c.118-.118-.354-.118-.118-.236.118.118.472.118.472.354h-.236c-.118.118.236.118.118.236-.118-.118-.236-.118-.472-.118h.354a.115.115,0,0,0-.118.118c0,.118.354,0,.236.118a.163.163,0,0,1-.236,0c0,.118.118.118.236.236.118-.118.589-.118.589,0C15.326,10.964,15.562,11.082,15.208,11.2Z" fill="#e73137"/>
            <path id="Tracé_654" data-name="Tracé 654" d="M5.4,30.5Z" transform="translate(0.966 5.457)" fill="#e73137"/>
            <path id="Tracé_655" data-name="Tracé 655" d="M.9,16.9Z" transform="translate(0.161 3.024)" fill="#e73137"/>
            <path id="Tracé_656" data-name="Tracé 656" d="M1.2,19.6Z" transform="translate(0.215 3.507)" fill="#e73137"/>
            <path id="Tracé_657" data-name="Tracé 657" d="M3.6,31Z" transform="translate(0.644 5.547)" fill="#e73137"/>
          </g>
          <g id="Groupe_460" data-name="Groupe 460" transform="translate(15.09 18.019)">
            <path id="Tracé_658" data-name="Tracé 658" d="M15.4,17.036c0-.118.118-.118.118-.236A.365.365,0,0,0,15.4,17.036Z" transform="translate(-12.335 -15.013)" fill="#e73137"/>
            <path id="Tracé_659" data-name="Tracé 659" d="M17.9,24.6Z" transform="translate(-11.887 -13.617)" fill="#e73137"/>
            <path id="Tracé_660" data-name="Tracé 660" d="M17.713,15.708h0C17.6,15.59,17.6,15.708,17.713,15.708Z" transform="translate(-11.937 -15.217)" fill="#e73137"/>
            <path id="Tracé_661" data-name="Tracé 661" d="M26.4,19.7Z" transform="translate(-10.367 -14.494)" fill="#e73137"/>
            <path id="Tracé_662" data-name="Tracé 662" d="M14.3,28.2h0Z" transform="translate(-12.532 -12.973)" fill="#e73137"/>
            <path id="Tracé_663" data-name="Tracé 663" d="M21.7,31.5Z" transform="translate(-11.208 -12.382)" fill="#e73137"/>
            <path id="Tracé_664" data-name="Tracé 664" d="M26.7,30.608Z" transform="translate(-10.313 -12.551)" fill="#e73137"/>
            <g id="Groupe_459" data-name="Groupe 459">
              <path id="Tracé_665" data-name="Tracé 665" d="M27.6,16.5Z" transform="translate(-10.152 -15.066)" fill="#e73137"/>
              <path id="Tracé_666" data-name="Tracé 666" d="M27.6,16.5l.118.118A.115.115,0,0,0,27.6,16.5Z" transform="translate(-10.152 -15.066)" fill="#e73137"/>
              <path id="Tracé_667" data-name="Tracé 667" d="M24.6,17.5Z" transform="translate(-10.689 -14.887)" fill="#e73137"/>
              <path id="Tracé_668" data-name="Tracé 668" d="M23.2,27Z" transform="translate(-10.939 -13.188)" fill="#e73137"/>
              <path id="Tracé_669" data-name="Tracé 669" d="M34.256,25.442c.472,0,.472.589,1.061.707,0-.472-.118-1.061.118-1.415-.118-.354-.472-.354-.707-.354v-.354l.118.118c-.118-.472-.354-.707-.354-1.179-.118-.236-.354-.118-.589,0l-.118-.236h0c-.354,0-.236-.236-.236-.472.118,0,.118.118.236,0,.118-.236,0-.354-.118-.472.118,0,.472,0,.354.236H33.9l.236.236c-.236-.354,0-.589.354-.707-.236-.354-.236.354-.472,0,.354-.825-.589-1.061.118-1.651-.236-.236-.707-.354-.943-.707-.236.118-.236-.236-.472,0,0,.472.825.354.589.943.236.118.354,0,.472,0,.118.118.118.354,0,.354-.354-.236-.589.118-.825-.236-.118.118.118.472.118.589a.254.254,0,0,0-.236.236,1.676,1.676,0,0,1-.707-.236c.118,0,.118-.118.236-.118-.118-.118-.354-.118-.472-.236q.177-.354.354-.354c-.118-.236-.589-.354-.236-.589-.236-.236-.118.236-.236.354h0l.236.236c-.354.236-.118-.354-.472-.118-.707.472,0-.472-.354-.589.236-.118.354-.118.589-.236l-.236-.118c.236,0,.589-.354.825-.236-.236-.236-.472-.825-.707-.825.118-.236.118-.354.354-.472-.589,0-.354-.589-.707-.707-.472,0,.118.472-.236.589,0-.236-.236-.236-.354-.236.118,0,.354.354.472.589-.118-.118-.354.118-.354.236l.236.236c-.236.236-.354-.236-.472-.118l.472-.472a.969.969,0,0,1-.707-.472c-.118-.236.118-.118.236-.118,0-.236-.354,0-.236-.236,0-.118.118-.118.118,0-.236-.118-.354-.236-.589-.354,0-.118.236-.118.354,0-.118-.236-.354-.236-.825,0-.236-.236-.472-.472-.354-.589-.118,0-.118.236-.118.354-.354-.118-.472.236-.707.236l.118.236c-.354-.354-.118.354-.354.118a1.748,1.748,0,0,0,.118-.825c-.118.236-.236,0-.354,0,.118.236-.354.236-.118.472-.354.118-.472-.118-.707.118.118.118-.236.236-.118.472-.118,0-.118,0-.236-.118h0a.115.115,0,0,0-.118-.118c0-.118-.118-.236,0-.236s.236.118.236-.118c-.236,0-.354.118-.472.118-.118-.118-.354-.118-.354-.472-.118.354-.589-.118-.589.236a.365.365,0,0,1,.236-.118v.236c-.118.118-.118-.118-.236-.118a.226.226,0,0,1,.118.354.433.433,0,0,1-.354.118c0-.118.118-.118.118-.236,0,0-.236-.118-.236-.236.118-.118.236-.118.354-.236-.354-.118,0-.118-.118-.354,0,.354-.354.118-.589.236,0-.118.118,0,.236-.118-.354-.707-.589.118-1.179-.118l.118-.118c-.236.118-.472-.236-.589,0-.236,0-.118-.472-.472-.354.118.354-.472,0-.472.354-.118-.118-.236-.118-.354-.236-.236.236.236.707-.236.825-.472,0-.118-.707-.472-.825v.236l-.236-.118h0a.359.359,0,0,1-.472,0c0-.118.118-.118.118-.236-.118.236-1.179-.236-1.179.472-.236,0-.472.118-.472-.118,0,.354-.707.236-.707.472,0-.118-.236-.118-.354,0,.236,0,.236.118.118.354-.236-.118-.589.354-.825.118-.118.354.118.472.236.707-.236,0-.707.354-.825,0,.118-.118.472-.236.236-.354-.354.118,0,.118-.118.354,0-.118-.236,0-.354-.118a1.627,1.627,0,0,1-.472.354c.354-.118.118.354.354.354v-.472c.236-.236.236.118.354.118-.354.589,0,.707-.236,1.3-.118,0-.354.118-.354.236.118-.118-.236-.354-.354-.354,0,.472-.472.354-.707.589.236-.118.354.118.354.236-.118.589-.236.118-.472.236-.354.825-1.061,1.179-.943,2l.472-.236-.236-.236c.354-.236.707.236.825.472-.118,0-.118.472-.236.236v.472c.118,0,.118-.236.236-.118-.118.118-.236.472-.354.236,0,.236,0,.472.236.472,0,.354-.354-.118-.472-.236-.118.236-.354.236-.354.118v.354c-.825-.118-.943-.118-1.061-.236-.118.236.236.472-.118.707l.236.118a2.991,2.991,0,0,0-.236,1.415l.236-.118c.354.472-.236.472,0,1.061.236.354.354.589.589.472.118.236,0,.236-.118.472.236.118.589.354.589.707a1.627,1.627,0,0,1-.354-.472c-.236.118.118.589.118.943a6.393,6.393,0,0,0,1.3.707.676.676,0,0,1,.825-.236c-.236.118,0,.472,0,.707-.236,0-.118.707-.472.354,0-.118.236-.354,0-.472a2.3,2.3,0,0,0-.118.943c-.118,0-.354,0-.354-.118.118,0,.118,0,.236-.118-.472-.354-.354.354-.589.472.118.118.354.354.354.118-.236.589.825.589.825,1.061a.231.231,0,0,1,.236-.236c.236.236.118.354.118.472a3.026,3.026,0,0,1,.589.236c.236,0,.118-.472.472-.472.354-.118.354.236.707.354.118.354-.354,0-.472,0l.707.354c.118.236-.236.236-.472,0a.522.522,0,0,0,.825.236c.118.118.236.118.354.354-.236,0-.472.472-.707.354-.472-.236.354-.236,0-.472l-.118.236c-.118-.236-.354-.118-.472-.236s.118-.118.118-.118c-.354-.236-.472-.472-.943-.354.236.472,1.061.707,1.179,1.061a3.264,3.264,0,0,0,1.061.118c0-.118-.118-.472.118-.472a.89.89,0,0,0,.472.825c0-.354.707-.118.589-.472-.118,0-.118-.236-.118-.354.354.118.118-.236.354-.236.589.236-.118.236.472.472a1.757,1.757,0,0,1-.943.354c0,.118.354.118.472.354-.118-.236.236-.236.118-.354.472,0,1.179-.236,1.65-.236-.118.472-1.061.236-.943.825.354,0,.354-.236.589-.236.118.354.707.118,1.061.236l-.118-.118c.118-.118.472,0,.589,0V34.4l.118-.118h0c.236-.118.589,0,.943-.118,0-.236-.354,0-.472,0,0-.118-.354-.118-.236-.354.472,0,.707-.236,1.179-.354l-.118-.118c.118-.236.354-.118.589-.118.354.118-.236.354,0,.472-.118.236-.472,0-.472.354l.236.354c.236-.236.472.118.589,0l-.118-.118c0-.118,0-.118.118-.118H26l-.118-.236h-.118v-.118c-.236,0-.354.354-.589.118.236-.118.236-.236.354-.354l.118-.118h.236c0,.118-.118.118-.118.236.118.118.236-.236.472-.118-.118.118-.354.354-.118.472l.118-.354a.115.115,0,0,1,.118.118c.236,0-.118-.354.236-.236l.118.118c.354,0,.118-.118.472-.354-.236.118-.354-.354-.118-.472.354,0,.589-.354.943-.118l.118-.236c0,.354.236,0,.354,0,.118.236-.589.236-.472.707.236,0,.236.118.118.354.236-.118,0-.354.118-.589,0,.118.472-.118.354.236.236-.118.118-.354.354-.354a.891.891,0,0,0,.118.472c0-.118.236-.118.354-.118-.118,0,0-.236-.236-.118,0-.236.472-.236.354-.354.118.236.472-.118.707-.118-.354-.589-.236.472-.589,0,.118-.354.943-.472,1.179-1.061.472-.118.118.236.354.354-.236.354-.472.236-.707.472a1.881,1.881,0,0,0,1.061-.825c.354-.236.825.236,1.061-.236-.236-.118-.236-.118-.354-.118,0-.118.236-.236.354-.354,0-.118-.236,0-.236-.236.118,0,.236-.118.354,0h0c.236-.472.589.118.589-.472-.118,0-.118.118-.236.118-.236,0-.236-.354-.118-.589.118.118.118-.118.236-.236.236.118-.118.354-.118.472l.236-.236H33.2v-.472c.118.236-.118-.118-.118-.236.236-.236.354-.354.589-.236-.236-.118,0-.472,0-.707-.236.236-.236-.118-.236-.236l.354-.236c-.118.354.236,0,.354.236.236.236,0,.472-.236.589.707-.236,0-.707.354-.943.118,0,.236.118.118.236.118,0-.118-.472.118-.589-.118,0-.354.118-.472-.236.118-.118.236-.118.354-.236.118-.354-.236-.236-.354-.589l-.236.118c-.236-.118.118-.354-.236-.472,0,.118.118.354,0,.472-.354,0-.118-.236-.236-.472C34.021,25.56,34.021,25.677,34.256,25.442Zm-7.427-8.135c0-.118-.118-.589.118-.589.236-.118.236.118.354.236-.118,0-.118.354-.236.118v.354a.894.894,0,0,0-.236.472h.118l-.118.118a.115.115,0,0,0-.118-.118h0l-.354-.589Zm-.707.118Zm.118,0Zm-1.3,1.651h.236c0,.118,0,.118-.118.236C24.825,19.547,24.943,19.193,24.943,19.075Zm1.061,0Zm5.305,7.781c-.354,0-.236-.354-.472-.472,0,.118.118.236,0,.236L30.6,26.5c0,.354.236.236.472.354.354.236-.118.236-.118.354v-.118c-.236.118,0,.354-.118.472l-.236-.118c.354,0-.236-.472,0-.472-.472.118-.472-.472-.707-.589,0,.118-.118.236-.236.118.236.354-.354.236,0,.589-.118,0-.118-.236-.236-.118a.693.693,0,0,0-.236.589c-.118.118-.118-.118-.236-.118-.472.118-.236.943-.825,1.061v-.236c-.118,0-.236,0-.236.236-.354-.472-.354.589-.825,0-.236,0-.118.472-.354.589,0-.118,0-.354-.118-.354a.894.894,0,0,1-.472.236l-.236.118a.433.433,0,0,0-.354.118h-.472a1.063,1.063,0,0,0-.589.118.115.115,0,0,1,.118-.118c-.589,0-1.179.472-1.533.236-.118.118-.354.118-.354.354.118,0,0,.354,0,.472-.472.118-.118-.472-.354-.472,0-.472.236-.236.354-.589-.118.118-.236.118-.472.118-.118-.236-.472,0-.472-.236,0,.118.118-.236.236-.118h0c.236.118.236-.118.472-.118-.236,0-.589,0-.707-.118-.118.236-.236,0-.354.236h0a.365.365,0,0,1-.236.118l.118-.354a.115.115,0,0,0-.118.118c-.118,0-.589-.236-.354-.589-.118-.118-.354.118-.354-.118l.118-.118c-.236-.236-.589-.472-.589-.825a1.264,1.264,0,0,0-.707-.236s.118.236-.118.236c-.118,0-.118-.118-.236-.236.236-.118,0-.354.236-.236.354-.236-.236-.354.118-.589-.118,0-.118-.354-.472-.354.118-.118.118.118.236.118L18.93,25.8h.118c0-.236-.472-.236-.589-.354h0l-.118-.118.354.118c-.118-.118-.354-.236-.472-.354h.118l-.118-.118h.118c-.354-.118-.236-.354-.472-.472,0-.118.472-.118.236-.236h.354c0,.236-.236.118-.118.354a1.026,1.026,0,0,0,.472-1.061c-.236-.354.354-.707-.118-1.061l.236.118.354-.354c.118-.472.472-.589.472-1.061l.236.118c-.236-.707.589-.943.472-1.768.236,0,.118.354.118.472.118,0,.118-.589.472-.354,0,.118-.118.236,0,.236.236.118,0-.236.236-.118a.724.724,0,0,1,.118-.707h-.118c-.118-.118.118-.236.118-.236v.118a4.64,4.64,0,0,1,2.476-.707v.118A.115.115,0,0,1,24,18.25h.354c0,.118,0,.118-.118.118.236.118.354.118.472.236h0c-.118,0-.118.118-.118.236h.118c.118,0,.236.118.354.118h-.118s0,.354.118.236c0,.236-.118.472-.354.354a.115.115,0,0,0,.118.118c0,.118,0,.589.236.589-.118,0,0-.236-.118-.354.118-.118.354,0,.354.236.118-.118.236-.354.354-.354.118.118,0,.118-.118.236l.236-.236-.354-.118c.236.118.354-.472.472-.589,0,.354-.118.354-.236.589.236.354,0-.236.236-.236v.236L26,19.311v.118a.891.891,0,0,0,.118-.472c.118,0,.236,0,.236-.118V18.6c.118.118.118.236.236.118-.118.118,0,.354-.236.354-.118.118.118.118.118.354,0-.118,0-.354.118-.354h0l.236-.354c.236.236.707-.354.707.118v-.354h.589c-.118.118-.236.118-.354.236a1.4,1.4,0,0,0,.943-.118c0-.236-.118-.236-.118-.472.354-.354.118.354.472.236-.118.354-.236.236-.236.589.236-.118.354,0,.589-.118-.118.354-.354.472-.589.354,0-.354-.472,0-.472-.236v.236c-.236,0-.236-.118-.472,0h0l-.118.354h.118a4.7,4.7,0,0,0-.354.472c.236,0,.354-.472.589-.707.236.118.118.707.354.472a.709.709,0,0,1-.118.472c-.118,0-.118-.118-.236,0,.118,0,0,.118.118.118a1.421,1.421,0,0,1,.589-.589c.236-.118.354,0,.472.236-.118-.118-.472.118-.472.354.236-.236.118.354.236,0,.118.118.354.236.118.589-.236,0-.118-.236-.354-.236a.115.115,0,0,1-.118.118l-.118-.118c0,.236-.118.236,0,.354v-.118l.118.118-.236.236c.236,0,0,.354.354.354h-.118c0,.118.589-.236.707-.118-.118,0-.236.118-.354.236.236,0,0,.236,0,.354.118-.236.354-.118.354-.236.236-.236.354,0,.472.118-.354.236-.354-.236-.707.236,0,.118.236,0,.236-.118a.6.6,0,0,1-.118.589c.354,0,.236.118.589.118,0-.118-.354,0-.236-.118h.354c.118.118-.118.354-.118.472l-.118-.118h0c-.118,0-.118-.118-.354-.118.354,0,.118.118.354.236h0c.354.236-.354.472.236.472a1.188,1.188,0,0,1,.354-.118c-.118.118-.118.236-.236.236h-.118v.236c.236,0,.354,0,.472.118-.118.236-.472-.118-.707.118l.236.236h-.236c-.236.236.354.589.354.943-.354-.118-.354-.354-.472-.472-.354,0,.118.236-.118.354-.118.118.118.236.354.354,0,.236-.236,0-.236,0,.354.118.118.354.118.472l-.236-.118c0,.118.118.236.118.354a1.188,1.188,0,0,0,.354.118h0c.589,0-.118-.589.589-.589,0,.118.236,0,.236.118H30.72c.118.118.236.236.236.118C31.545,26.267,31.309,26.5,31.309,26.856Z" transform="translate(-12.8 -15.284)" fill="#e73137"/>
            </g>
          </g>
          <g id="Groupe_464" data-name="Groupe 464" transform="translate(35.841 17.288)">
            <g id="Groupe_461" data-name="Groupe 461" transform="translate(16.739 12.421)">
              <path id="Tracé_670" data-name="Tracé 670" d="M54.108,27.8Z" transform="translate(-42.908 -24.735)" fill="#e73137"/>
              <path id="Tracé_671" data-name="Tracé 671" d="M54,28Z" transform="translate(-42.918 -24.699)" fill="#e73137"/>
              <path id="Tracé_672" data-name="Tracé 672" d="M53.5,27.508Z" transform="translate(-43.008 -24.796)" fill="#e73137"/>
              <path id="Tracé_673" data-name="Tracé 673" d="M52.513,25.3Z" transform="translate(-43.2 -25.182)" fill="#e73137"/>
              <path id="Tracé_674" data-name="Tracé 674" d="M53.5,27.5Z" transform="translate(-43.008 -24.788)" fill="#e73137"/>
              <path id="Tracé_675" data-name="Tracé 675" d="M44.6,25.2Z" transform="translate(-44.6 -25.2)" fill="#e73137"/>
              <path id="Tracé_676" data-name="Tracé 676" d="M52.513,29Z" transform="translate(-43.2 -24.52)" fill="#e73137"/>
            </g>
            <g id="Groupe_463" data-name="Groupe 463">
              <path id="Tracé_677" data-name="Tracé 677" d="M32.6,33.013Z" transform="translate(-30.008 -11.397)" fill="#e73137"/>
              <path id="Tracé_678" data-name="Tracé 678" d="M32.3,32.9Z" transform="translate(-30.062 -11.401)" fill="#e73137"/>
              <path id="Tracé_679" data-name="Tracé 679" d="M32.7,32.3h0C32.818,32.418,32.818,32.3,32.7,32.3Z" transform="translate(-29.99 -11.508)" fill="#e73137"/>
              <path id="Tracé_680" data-name="Tracé 680" d="M34.813,31.1Z" transform="translate(-29.628 -11.723)" fill="#e73137"/>
              <path id="Tracé_681" data-name="Tracé 681" d="M32.7,32.3Z" transform="translate(-29.99 -11.508)" fill="#e73137"/>
              <g id="Groupe_462" data-name="Groupe 462">
                <path id="Tracé_682" data-name="Tracé 682" d="M52.7,26.4Z" transform="translate(-26.412 -12.564)" fill="#e73137"/>
                <path id="Tracé_683" data-name="Tracé 683" d="M52.813,26.476l.236-.236h0c.118-.118.472-.354.472-.236-.236-.118-.589.236-.707.472Z" transform="translate(-26.407 -12.641)" fill="#e73137"/>
                <path id="Tracé_684" data-name="Tracé 684" d="M59.166,29.207s-.236.118-.236.236c-.118,0-.118-.236.118-.354h-.354c.118-.118.118,0,.118-.118h-.236l-.118.236c0-.236-.472.118-.589.118.236-.236.354-.236.472-.236.118-.354-.118.118-.236,0a.412.412,0,0,0,.118-.236l-.236.118a.115.115,0,0,1,.118-.118c-.354.118-.236.354-.589.354,0,.236.236-.118.354,0-.118.236-.354.236-.472.354,0-.118.236-.589,0-.354.236-.118.236-.236.354-.118.118-.118,0-.118.118-.354-.118,0-.236.236-.236.236h0l-.354.118c0-.236-.589.118-.354-.236l-.236.236c-.118,0-.236-.118-.354-.118a.433.433,0,0,1,.354-.118.526.526,0,0,0-.589,0c-.236.354-.236.236-.236.472-.354.354,0-.354-.236-.236a1.236,1.236,0,0,0,.354-.472c-.236.118-.236,0-.472.118.118-.236.354-.472.472-.354-.118.354.354,0,.236.236l.118-.236h.236c-.118-.118.118-.589-.118-.472.118-.118.118-.354.236-.354s0,.236.236,0c-.118,0,0-.118-.118-.236a2.466,2.466,0,0,1-.707.472c-.236.118-.236,0-.354-.118a.632.632,0,0,0,.472-.354c-.236.236,0-.354-.236,0-.118-.118-.236-.236-.118-.472.118,0,.118.236.236.236a.115.115,0,0,1,.118-.118l.118.118c0-.236.118-.236,0-.354v.118a.115.115,0,0,1-.118-.118l.236-.236c-.236.118-.118-.354-.354-.354h0c-.118-.118-.472.354-.707.354.118-.118.236-.236.236-.354-.118.118,0-.118-.118-.236,0,.236-.236.236-.236.354-.236.236-.354.118-.354.118.236-.354.354,0,.472-.472,0-.118-.236.118-.236.236-.118-.118-.118-.236-.118-.472-.354.236-.236,0-.589.354.118,0,.236-.236.236,0v.118c-.118,0,0-.354-.118-.472h.118c.118-.118.118,0,.236-.118-.236.236-.118-.118-.354,0h0c-.354.118,0-.589-.472-.118a.582.582,0,0,1-.118.354c0-.118-.118-.118,0-.354H54.1l-.118-.118c-.118.118-.236.354-.354.354-.118-.236.354-.354.354-.589l-.236.118.118-.236c-.118-.354-.707.118-.943-.118a.642.642,0,0,1,.589-.354c.118-.236-.236,0-.236-.236-.118-.118-.354.118-.354.236-.236,0,0-.236,0-.236-.236.236-.354.118-.472.118l.118-.118-.236.118-.236.236h0c-.118.589.589-.118.354.472-.118,0-.118.118-.236.236V25.2c-.118.118-.236.236-.118.236-.236.354-.354.118-.472.236.118-.236.354-.236.472-.472,0,0-.236.118-.236,0l.236-.236c-.236,0-.236.236-.354.472-.236.354-.118-.118-.236-.118h.118c0-.236-.236.118-.354,0l.118-.236c0,.354.354-.236.354-.118,0-.354.354-.472.589-.707-.118,0-.118-.118-.118-.236-.354.236-.118-.354-.589,0,0-.118.236-.118.118-.236s-.236-.118-.472-.118c-.118,0,0-.118.118-.236-.236-.354-.825.236-1.061-.236l.118-.118c0-.118-.118-.118-.236,0,.236-.472-.472.118-.354-.472-.118-.236-.354.236-.589.236.118-.118.236-.236.236-.354-.472-.118-.825-.236-1.179-.354a1,1,0,0,0,.589-.354c0-.354.589-.236.354-.825l.118.236.472-.118c.236-.236.589-.354.589-.707l.236.118c-.236-.707.589-.825.236-1.533.236.118.118.236.236.354.118,0,0-.589.236-.354.118.118-.118.236,0,.236.236.118,0-.236.236-.118-.118-.118-.236-.472-.118-.589h0c-.118-.118,0-.118,0-.236v.118a2.868,2.868,0,0,1,1.768-1.533v.236c0-.118.236-.236.354-.236h0c.354.236,0-.472.354-.118h0c.236-.118.589.118.589-.236.236,0,.354.118.589.236.118-.118,0-.236,0-.354h0c-.236-.118,0-.236,0-.354-.236-.236-.589-.707-.943-.825,0,.236-.472-.354-.589-.236.236.472-.472-.118-.354.354-.118-.354-.236,0-.354-.354-.236-.118-.118.472-.354.236,0-.118-.118-.118-.118-.236,0,.236-.236-.118-.354,0l.236.236c0,.118-.118-.118-.118,0,0,0,.236.118.236.236v.236a.365.365,0,0,1-.118-.236s-.118.118-.236-.118v-.354c-.236,0-.118-.118-.354-.236.236.354,0,.236-.118.354-.118-.118,0-.118,0-.236-.589-.472-.118.236-.472.354V15.06c0,.118-.354-.118-.236.118-.118,0-.236-.354-.354-.236.236.236-.236,0,0,.354l-.236-.118c0,.236.472.589.236.707-.236,0-.354-.589-.589-.707l.118.236-.236-.118h0c0,.118-.118.118-.236,0V15.06c0,.236-.707-.236-.354.354a.433.433,0,0,1-.354-.118c.118.236-.236.118-.236.236,0-.118-.236-.118-.236-.118.118,0,.118.118.236.354-.236-.118-.236.118-.472-.118,0,.236.236.354.354.589-.236-.118-.354,0-.589-.236.118,0,.236,0,.118-.236-.236,0,0,.118,0,.236,0-.118-.236-.118-.236-.236,0,.118-.118.118-.236.118,0,.118-.118.354,0,.354l-.118-.354c.118-.118.118.118.236.236-.118.236.118.472,0,.825-.118,0-.236-.118-.236,0,0-.118-.118-.354-.236-.354.118.354-.354,0-.472,0,.118,0,.236.236.236.354-.118.354-.118,0-.354-.118-.236.236-.707,0-.825.354l.354.236-.118-.236c.236.118.354.589.472.825-.118-.118-.236.118-.236-.118l-.118.236c.118.118.118,0,.236.118-.118,0-.236,0-.354-.236-.118,0-.118.236,0,.354-.118.118-.236-.354-.236-.472a.254.254,0,0,1-.236-.236l-.118.118a.412.412,0,0,0-.118-.236c-.118,0,0,.354-.236.118l.118.236a.883.883,0,0,0-.589.118l.118.118c0,.354-.354-.118-.472.118,0,.236-.118.354.118.589,0,.118-.118,0-.236,0,0,.236.118.589-.118.472v-.354c-.236-.236-.236.118-.472,0a2.655,2.655,0,0,0,.118.825h-.354c.118-.118.118,0,.236-.118h-.118l.118-.118c-.118-.118-.236,0-.354.118l-.118-.118.118-.118h-.118c-.118-.118-.236-.118-.236-.236,0,.118-.118.118,0,.236-.236-.236-.236,0-.236.118a.433.433,0,0,0-.354.118c0-.118.118-.472-.118-.236l.236-.354c.236,0-.118.236.118.236a.53.53,0,0,0-.472-.707c-.354.118-.472-.354-.825.118l.118-.236-.236-.354c-.354,0-.472-.354-.825-.118v-.236c-.472.472-.825-.118-1.415.589,0-.236.118-.236.236-.354-.118-.118-.472.354-.354-.118,0-.118.236,0,.118-.118,0-.236-.236.118-.118-.118-.118.236-.354.472-.472.472h0c0,.236-.118.118-.236.118h0a3.875,3.875,0,0,1-2-.472l.118-.118c-.118.118-.236,0-.354-.118h0c0-.472-.354.236-.354-.118h0c-.236,0-.236-.472-.589-.354a1.063,1.063,0,0,1-.118-.589c-.118,0-.236.236-.236.236h0c0,.236-.118.118-.236.236a4.42,4.42,0,0,0-.118,1.3c.118-.118,0,.589.118.589.236-.472.118.354.354,0-.118.236.118.236-.118.472,0,.236.354-.236.354.118,0,.118,0,.118-.118.118.236-.118,0,.236.118.236L35,19.422c.118-.118,0,.118.118.118v-.354c.118-.118.118-.118.236-.118,0,.118-.118.118-.118.236a.163.163,0,0,1,0,.236L35,19.776c.118.118,0,.118,0,.354.118-.354.118-.118.236-.118,0,.118-.118,0-.118.118-.118.707.236,0,.354.118a.115.115,0,0,1-.118.118c.118-.118,0,.236.236.118,0,.118-.118.472,0,.472.118-.354.118.118.236-.236v.236c.118-.236.236-.707.472-.589.118.236-.236.589-.236.943l.118-.236v.236h0c.118,0,.118,0,.118.118a.115.115,0,0,1-.118.118c.118-.118.118.707.354.118,0,.118.118.118,0,.354.118-.236.118.118.236,0v.236c0-.118.118-.236.118-.354,0,.236.236.118.118.472a2.577,2.577,0,0,0,.354-.589c0,.236.118.236,0,.589,0-.118-.118-.236-.236.118,0,.118.118-.118.118-.118a.433.433,0,0,1-.118.354c.118,0,.118,0,.118.118,0-.236.236-.236.236-.354l-.236.236c-.118,0,.118-.236.118-.354.236,0,.354-.354.589-.472v.236c-.118,0-.236.354-.236.354.236-.236.118.236.118.354a1.187,1.187,0,0,1,.118-.354c.236-.118,0,.118,0,.354.236.118.236.589.589.472v-.118h0c.118,0,0-.354.236-.236-.118.236.118.472,0,.589-.118-.118,0-.118,0-.236-.118,0,0,.236-.236.236a.471.471,0,0,0-.236-.472l.118.236a.115.115,0,0,1-.118-.118c-.118,0,.236.236,0,.236a.115.115,0,0,1-.118-.118c-.118.118,0,.118,0,.354.118-.118.354.236.354.354-.236.118-.118.354-.472.118l.118.236c-.118-.236-.118,0-.236,0-.236-.236.236-.236-.118-.589a.254.254,0,0,1-.236-.236c-.118.118.236.354.236.472-.118-.118-.236.118-.354-.118-.118.118.118.354,0,.354.707.236.707.118.589,0,.118.118-.118.118-.118.118s.118.236.118.118c.118.236-.236.118,0,.354-.236-.236-.236.118-.354.118.472.472,0-.354.354.118,0,.236-.354.354-.354.707-.236,0-.118-.236-.354-.354.118-.236.236-.118.236-.236-.236,0-.354.236-.354.472-.118.118-.589-.354-.707,0,.118.118.236.118.354.236a.115.115,0,0,1-.118.118c.118.118.236,0,.236.236a.365.365,0,0,1-.236-.118h0c0,.354-.472-.236-.354.118.118.118,0-.118.118,0a.894.894,0,0,1,.236.472c-.118-.118-.118,0-.118,0-.236-.118.118-.118,0-.354l-.118.118h0v.354c0-.118.236.236.236.236-.118,0-.236.118-.472-.118.236.236,0,.354,0,.472.118,0,.118.118.236.236l-.354-.118c.118-.236-.236-.118-.354-.354s0-.236.118-.236c-.472-.236,0,.354-.354.354-.118-.118-.236-.236-.118-.236-.118,0,0,.236-.118.236a.376.376,0,0,1,.354.354l-.354-.118c-.236.118.236.236.236.472l.236.118c.236.236-.118.118.118.354.118-.118,0-.236.118-.236.236.236,0,.236.118.354H35.7c-.354-.354-.236-.589-.707-.943-.118.236-.236.472-.472.472a.783.783,0,0,0,.472.589.115.115,0,0,1-.118.118v-.118c0,.236,0,.472-.236.589,0,.118.236.354.354.472l-.118.118h0c.236.236,0,.236,0,.354-.118-.118-.118-.118-.118-.236-.118,0-.236.118-.118.236-.118-.118-.236-.354-.118-.354a.115.115,0,0,1,.118.118V29.8c0,.236-.354.118-.589-.118,0,.236.354.118.236.354-.707-.118-.236.589-1.061.118,0,.236.118.589,0,.707.236.118,0,.236.236.354.354,0-.118-.589.354-.472,0-.118-.236-.236-.236-.354s.118-.118.236,0c0,.236.472.472.236.589.236.118.236-.118.354-.118.118.118.236.118.354.236.118.236.118.354.236.589-.118-.118-.118-.118-.236-.118l.118.472c-.118,0-.354-.118-.354-.236-.118,0,0,.472-.354.236-.118.118.236.118.354.118h0l.118-.118c.354.236-.236.118.118.354.589.472-.354,0-.354.236l-.354-.472v.236c-.118-.236-.472-.472-.589-.707-.118.118-.472.236-.472.354-.236-.118-.354-.118-.472-.354.118.354-.354.118-.472.236.118.236.354,0,.472.354-.118,0-.118.118-.118.236,0-.118.236-.118.354-.236-.118.118.118.236.236.354l.118-.118c.236.236-.118.118,0,.354l-.472-.472a.313.313,0,0,1-.354.354c-.118,0-.118-.118-.118-.236-.236-.118,0,.236-.236.118-.118-.118,0-.118,0-.118l-.354.354c-.118-.118-.118-.236,0-.236-.236,0-.236.118.118.472-.236,0-.472.118-.589,0,0,.118.118.118.236.236-.118.118.236.354.118.472H31.7c-.354,0,.354.236.118.236l-.707-.354c.236.118,0,.118-.118.236.236.118.118.236.354.236.118.236-.236.118,0,.354.118,0,.118.236.354.236,0,.118-.354.118-.589,0,0,0,.236-.118,0-.118l-.118.236c-.118,0-.236.118-.472,0,.236.236-.354.236,0,.354-.236-.236.118-.118.236-.118v.118h0l.354.354c.236,0-.236-.118-.236-.354.472,0,.472.589.825.589.236,0-.236-.236-.354-.354h0l-.118-.236a.412.412,0,0,1,.236.118c.118-.236.354-.236.589-.354-.118,0-.472-.236-.472-.354s.236,0,.236-.118c0,.118.236.236,0,.236l.236.118c.236.354.589.472.589.707a.292.292,0,0,1,.118.472h.236c.354.354-.354-.118-.118.236a4.178,4.178,0,0,1-1.3-.354c-.118.118,0,.236,0,.354-.354,0-.354-.118-.707-.236,0,.118.118.236.354.236l-.236.118c-.118,0,0-.118,0-.118-.118,0,0,.236.118.354v-.118c.118.118.236.236.236.354-.118-.118.236,0,0-.236a.412.412,0,0,1,.236.118c.236,0,.236-.118.472-.118-.236,0,0,.118.118.118s.118-.118,0-.236c.354.118,0-.236.354,0-.118-.118-.118-.118,0-.118l.354.354c.118.236-.236-.118-.472-.118v.236c.118,0,.236.118.236,0,.236.118.354.236.118.354h.118c.118,0,.472.236.589.118a.516.516,0,0,0-.354-.118q0-.177.354,0c0-.118-.118-.236-.236-.354.236,0,0,.118.118.118v-.236h-.236c.236-.118-.236-.354-.354-.472.236.118.236.236.354.354.354.118-.118-.118-.118-.236.118,0,.118,0,.236.118l-.236-.236h.118c-.236-.354-.472-.236-.472-.472-.236,0,.118.236.118.354-.236,0-.354-.354-.472-.354.118-.118.589.118.354-.118.118.118.236.118.236.236.118.118.118,0,.354.118,0-.118-.354-.118-.236-.236h0l-.236-.354c.236-.118-.118-.589.236-.472l-.354-.118c0-.118.118-.236.118-.354a.433.433,0,0,1,.118.354c.118-.118.118-.354-.118-.707h-.472c-.354-.354.354,0,.236-.236a1.236,1.236,0,0,0,.472.354c-.118-.236,0-.236-.118-.472.236.118.472.354.354.589-.354,0,0,.354-.236.236h.236v.236c.118-.118.589.118.472-.118.118.118.354.118.354.236s-.236.118,0,.236c0-.118.118,0,.236-.118-.236-.236-.354-.472-.589-.707-.118-.236,0-.236.118-.354a.632.632,0,0,0,.354.472c-.236-.236.354,0,0-.236.118-.118.236-.236.472,0,0,.118-.236.118-.236.236a.115.115,0,0,1,.118.118l-.118.118c.236,0,.236.118.354,0h-.118l.118-.118.236.236c0-.236.354-.118.354-.354h0c.118-.118-.354-.472-.354-.707l.354.354c-.118-.118.118,0,.236,0-.236,0-.236-.236-.354-.236-.236-.236-.118-.354,0-.354.354.236,0,.354.472.589.118,0-.118-.236-.236-.236.118,0,.236-.118.472,0C37,32.744,37.238,32.744,37,32.39c0,.118.236.236,0,.236l-.118-.236c.118-.118.354,0,.472-.118v.118h0c.118.118-.118.118.118.354-.118-.236.118-.118,0-.354h0c0-.354.589.118.236-.472a1.188,1.188,0,0,0-.354-.118c.118.118.236-.118.354.118v.118c.118,0,.236-.118.118-.118l-.354-.354c.236-.118.354.354.589.472v-.354l.118.118c.354-.118,0-.707.236-.943a.6.6,0,0,1,.118.589c.236.118.118-.236.354-.236.118,0,0-.354-.118-.472,0-.236.236.118.236.118-.236-.236,0-.354,0-.472l.118.118V30.15l-.236-.236h0c-.472-.236,0,.589-.589.236,0-.118-.118-.118-.118-.236H38.3c-.118-.118-.118-.354-.236-.236-.354-.354-.118-.354-.118-.589.236.118.236.354.354.589,0-.118-.118-.236,0-.236l.236.236c0-.236-.118-.236-.354-.472-.236-.354.118-.118.118-.118v.118c.236,0,0-.236.118-.354l.236.118c-.354-.118.118.472,0,.472.354,0,.472.472.589.825,0-.118.118-.118.354-.118-.118-.472.354-.118.118-.589.118,0,.118.236.118.118a.613.613,0,0,0,.236-.472c.118,0,.118.118.236.118.472-.118,0-.825.589-1.061l.118.236c.118,0,.236,0,.118-.236.472.354.118-.589.589-.236.236,0-.118-.472,0-.589.118.118.236.354.354.354a5.14,5.14,0,0,1,1.061-1.3v.118c.354-.236.236-.825.707-.943v-.354c0-.118.118-.118.118-.236h0c-.118.236-.118.354,0,.472,0-.118.118-.118.118-.236v.118a.115.115,0,0,0-.118.118c-.118.118.118,0,.118.236,0-.236.236-.236.236-.354.118,0,.118,0,.236-.118v.118c0-.118,0-.118.118-.236a.891.891,0,0,1,.472-.118c-.354.472-.472.118-.825.707.118,0,.236-.236.354-.118-.118.354.236.118.354.236v-.118c.118-.118.118,0,.236.118h.118c.118-.118.236.118.354.118.118-.236-.118-.118-.118-.118a.582.582,0,0,1,.118-.354c.118.118.354-.118.589,0v-.118c.118-.118.118,0,.236,0,0,.236-.236.236-.236.354-.118.118-.118-.118-.354.118l-.118.354c.236-.118.118.236.118.236v-.118c.118-.236.118,0,.118,0l.236-.354c0-.118-.236.118-.236-.118.236,0,.354-.354.472-.236-.118.118-.118,0-.118.118s.236-.118.236.118q-.177,0-.354.354l.236-.236c0,.118-.118.118,0,.118,0,.118.118-.236.236-.118a.365.365,0,0,1-.118.236c.118.118.118,0,.236-.118-.118-.118.118-.472.236-.472.118.118.354,0,.236.354l.118-.118c-.236.236,0,.118,0,.236-.118.236-.236-.118-.472.236.118.118-.118.236-.118.354.118,0,.236-.236.354-.472-.118.118.118.118-.118.354.118.118.236-.236.236-.118-.118.118-.118.236-.236.354.118-.118.118.118.118.118s.118-.236,0-.118c.118-.236.236.118.236-.118-.118.236.118.118.118.354.354-.589-.236.118,0-.354.236-.118.354.236.707.118.118.236-.118.236-.236.472-.236,0-.118-.236-.236-.118a.292.292,0,0,0,.472.118c.118.118-.236.707,0,.589.118-.236.118-.236.118-.354a.115.115,0,0,1,.118.118c.118-.118,0-.236.118-.236v.236h0c.236-.118-.118.472.236.236v-.118c.118-.118.236-.354.354-.354-.118.118,0,.118,0,.118-.118.236-.118,0-.236.118l.118.118h0l.236-.118c-.118,0,.118-.236.236-.236.118.118.118.236,0,.472.118-.236.236-.118.354-.118a.254.254,0,0,1,.236-.236v.354c-.236,0-.118.236-.236.354-.236.236-.236,0-.236,0-.236.354.236-.236.236.118-.118.118-.118.236-.236.118,0,.118.236-.118.236,0,0-.118.118-.354.236-.354l-.118.354c.118.118.236-.236.472-.354V27.91c.118-.236.118.118.354-.118-.118,0-.236.118-.236,0,.118-.236.118-.118.354-.118.118.236,0,.236,0,.472-.236.354-.472.354-.825.825.236,0,.472,0,.472.236.236,0,.354-.354.472-.589.118,0,.118,0,.118.118l-.118.118c.236,0,.354-.118.589,0,.118,0,.236-.236.354-.472h.118c.236-.236.236-.118.236,0l-.118.118c0,.118.118.118.236.118-.118.118-.236.354-.236.236v-.118h-.236c.236,0,.118.236-.118.472.236,0,.118-.354.354-.354-.118.589.472.118.118.943.236-.118.472-.236.589-.118.118-.236.118,0,.354-.236,0-.354-.589.236-.354-.236-.118,0-.236.236-.354.354-.118,0-.118-.118,0-.236.236,0,.354-.472.589-.354.118-.236-.118-.236-.118-.354a.433.433,0,0,0,.118-.354c.118-.118.354-.236.472-.354-.118.118-.118.118-.118.236l.354-.118a.894.894,0,0,1-.236.472c0,.118.472,0,.236.236.118,0,.118-.236.118-.354h0l-.118-.118c.236-.354.118.236.354-.118.472-.589,0,.354.236.354l-.472.354h.118c-.236.118-.354.472-.589.589.118.118.236.354.354.354-.118.236-.118.354-.354.472.354-.236.118.236.236.354.236-.118,0-.354.354-.472a.115.115,0,0,0,.118.118c-.118.118-.118-.236-.118-.354,0,0,.236-.236.354-.236l-.118-.118c.236-.236.118.118.354,0l-.472.472c.118,0,.354.118.236.236,0,.118-.118.118-.236.118-.118.236.118,0,0,.236-.118.118-.118,0-.118,0l.236.236c-.118.118-.118.118-.236,0,0,.236.118.118.472-.118a.709.709,0,0,1-.118.472c.118,0,.118-.118.236-.236.118.118.354-.236.472-.118l.118-.236c0,.236.236-.236.236-.118a2.571,2.571,0,0,1-.472.589c.118-.236.118,0,.118.118.118-.236.236-.118.354-.354.236-.118.118.236.354,0,0-.118.236-.118.354-.354.118.118,0,.354-.236.589,0,0,0-.118-.118,0l.236.118a.891.891,0,0,1-.118.472c.236-.236,0,.354.354,0-.236.118,0-.118-.118-.236h.118l.354-.354c0-.236-.236.236-.354.118.236-.472.589-.354.707-.707,0-.236-.236.236-.354.236h-.236l.236-.236c-.236-.118-.118-.354-.236-.589,0,0-.236.472-.354.472s0-.236,0-.236c.118,0,.236-.236.236,0l.236-.236c.354-.236.472-.472.825-.472a.246.246,0,0,1,.472,0l.118-.236c.354-.236-.236.236.118.118-.236.354-.354.943-.707,1.179,0,.118.236,0,.354.118-.118.354-.236.236-.472.589.118,0,.236,0,.354-.236v.236c0,.118-.118,0-.118,0,0,.118.236,0,.354,0h-.118c.118,0,.354-.118.354-.236-.236.118,0-.236-.118-.118.118-.118.236-.236.236-.118.118-.236,0-.236.118-.472,0,.236.118,0,.236,0,0-.118-.118-.118-.236-.118.236-.354-.236-.118.118-.354-.118.118-.236.118-.118,0s.236-.118.472-.236c.354,0-.236.236-.236.354l.118.118s.236-.236.118-.236c.236-.118.354-.236.354,0,.118-.118,0-.118,0-.118C58.812,29.679,59.166,29.325,59.166,29.207Zm-14.972-8.96h0c-.118.118-.118,0-.236.118.118-.118-.118-.236.118-.354h0C44.193,20.012,44.193,20.13,44.193,20.247Zm-.943-.589Zm-3.419,3.655h.118a.115.115,0,0,1-.118.118Zm.236-.943Zm-.707.825Zm.354,0c-.118-.236.236-.118,0-.354l-.118-.118c.118-.118.236-.236.236-.354,0,.118.118.118,0,.236h0c.118.118.118,0,.118,0h0c0,.118,0,.118-.118.236a.365.365,0,0,0,.236-.118h0a.531.531,0,0,1-.354.354c.118.118,0,.236-.118.354C39.831,23.195,39.713,23.195,39.713,23.195Zm3.89,2a.115.115,0,0,1-.118-.118h0l-.236-.236c0-.236.118-.118.236,0-.118,0-.118.118-.118,0,0,.236.118.118.236.118s.118.118.118,0v.118C43.722,24.963,43.6,25.081,43.6,25.2Zm.472.236h0c.118-.118.118-.236.236-.354-.118.118-.118,0,0,0,.118-.118.118-.236.354-.118v.118h0a.115.115,0,0,0-.118.118C44.311,25.317,44.193,25.317,44.075,25.435Zm3.655-3.773c0-.118.118-.118,0-.236.118,0,.354.236.236,0l.236.354h-.118C48.084,21.662,47.966,21.662,47.73,21.662Z" transform="translate(-30.402 -14.664)" fill="#e73137"/>
                <path id="Tracé_685" data-name="Tracé 685" d="M33.7,31.4l.236.236h0c.118.118.354.354.354.472,0-.236-.354-.472-.589-.707Z" transform="translate(-29.811 -11.669)" fill="#e73137"/>
                <path id="Tracé_686" data-name="Tracé 686" d="M33.7,31.4Z" transform="translate(-29.811 -11.669)" fill="#e73137"/>
              </g>
              <path id="Tracé_687" data-name="Tracé 687" d="M30.9,31.7Z" transform="translate(-30.312 -11.616)" fill="#e73137"/>
            </g>
          </g>
        </g>
        <path id="Tracé_688" data-name="Tracé 688" d="M79.189,33.845a19.813,19.813,0,0,1-8.017,1.415c-8.606,0-14.972-5.423-14.972-15.444C56.2,10.266,62.684,3.9,72.116,3.9a17.708,17.708,0,0,1,7.191,1.3L78.364,8.38a13.96,13.96,0,0,0-6.13-1.3c-7.074,0-11.907,4.6-11.907,12.5,0,7.427,4.244,12.261,11.671,12.261a15.112,15.112,0,0,0,6.484-1.3Z" transform="translate(10.056 0.698)"/>
        <path id="Tracé_689" data-name="Tracé 689" d="M80.8,2.9h4.008V34.849H80.8Z" transform="translate(14.457 0.519)"/>
        <rect id="Rectangle_1337" data-name="Rectangle 1337" width="4.008" height="21.81" transform="translate(107.165 13.676)"/>
        <path id="Tracé_690" data-name="Tracé 690" d="M101.036,17.566a45.483,45.483,0,0,0-.236-5.895h3.537l.236,3.537h.118a8.121,8.121,0,0,1,7.191-4.008c3.065,0,7.663,1.768,7.663,9.314V33.482h-4.008V20.867c0-3.537-1.3-6.484-5.069-6.484a5.735,5.735,0,0,0-5.305,4.008,4.6,4.6,0,0,0-.236,1.886v13.2h-3.89Z" transform="translate(18.036 2.004)"/>
        <g id="Groupe_467" data-name="Groupe 467" transform="translate(105.701 2.527)">
          <path id="Tracé_691" data-name="Tracé 691" d="M95.2,7.1Z" transform="translate(-88.667 -1.256)" fill="#e73137"/>
          <path id="Tracé_692" data-name="Tracé 692" d="M96.036,5.3h0Z" transform="translate(-88.559 -1.578)" fill="#e73137"/>
          <path id="Tracé_693" data-name="Tracé 693" d="M95.4,4.418c.118,0,.354,0,.354-.118A.433.433,0,0,0,95.4,4.418Z" transform="translate(-88.631 -1.757)" fill="#e73137"/>
          <path id="Tracé_694" data-name="Tracé 694" d="M96.072,6.754c.236,0-.354-.236-.118-.236-.118-.118-.236,0-.354-.118C95.836,6.518,95.718,6.518,96.072,6.754Z" transform="translate(-88.595 -1.382)" fill="#e73137"/>
          <path id="Tracé_695" data-name="Tracé 695" d="M95.6,6.408Z" transform="translate(-88.595 -1.389)" fill="#e73137"/>
          <path id="Tracé_696" data-name="Tracé 696" d="M92.3,8.736h0v0Z" transform="translate(-89.186 -1.006)" fill="#e73137"/>
          <g id="Groupe_466" data-name="Groupe 466">
            <path id="Tracé_697" data-name="Tracé 697" d="M90.236,7H90C90,7.118,90.118,7,90.236,7Z" transform="translate(-89.597 -1.274)" fill="#e73137"/>
            <path id="Tracé_698" data-name="Tracé 698" d="M94.9,4.9Z" transform="translate(-88.72 -1.65)" fill="#e73137"/>
            <path id="Tracé_699" data-name="Tracé 699" d="M90.713,4.608h0C90.6,4.49,90.6,4.608,90.713,4.608Z" transform="translate(-89.485 -1.712)" fill="#e73137"/>
            <path id="Tracé_700" data-name="Tracé 700" d="M95.289,7.189,94.7,6.6a6.542,6.542,0,0,1,.707.943C95.172,7.072,95.172,7.072,95.289,7.189Z" transform="translate(-88.756 -1.346)" fill="#e73137"/>
            <path id="Tracé_701" data-name="Tracé 701" d="M96.9,6.572l.354.354c-.472-.118-1.179-.589-1.061-.707a2.251,2.251,0,0,1,.943.354c-.118-.118-.236-.236-.118-.236l.118.118c.236,0-.589-.236-.118-.236,0,0,.589,0,.354-.118a10.99,10.99,0,0,1-1.65-.236V5.747h0V5.629c.354,0,.943.118,1.179.118-.118,0-.236-.118-.354-.118H96.9c-.472,0,0-.118-.354-.118-.118-.118.118-.118.118-.118a2.93,2.93,0,0,1-.943-.118V5.157h0c0-.118.236-.236.236-.236.118,0,.236-.118.472-.118h-.236c.354-.118.118.118.589-.118h-.589c-.472.118,0,.118.118.118a1.063,1.063,0,0,0-.589.118.433.433,0,0,0-.118-.354c.118-.118,0-.236.118-.472-.118,0-.236,0-.236.118,0-.118-.118-.118-.118-.236h0l-.118-.118.118-.118-.118.118h0a.412.412,0,0,1,.236-.118c-.118.118-.118.118-.236.118h0a1.131,1.131,0,0,0-1.061-.236V2.918c-.118.589-.118-.943-.354,0V2.564c0,.236-.118.354-.118.236V2.682c-.236.118-.354-.236-.589-.354l.118.354c-.118,0-.118-.118-.118-.236,0,.472.118,0,.236.589-.236-.707-.354.118-.589-.589-.118,0,.118.354.118.354l-.472-.236.118.236c-.118,0-.236-.236-.236-.472V2.21c-.236-.236-.236.236-.236.118l.118.118c-.118.236-.589.236-.589.707l.118.118c0,.354-.236,0-.236.236h0a.365.365,0,0,1,.118.236c-.118-.118-.354-.118-.472-.354.118.354.118.236.472.707l-.236-.118a1.459,1.459,0,0,0,.236.354c-.118-.236-.354-.118-.589-.354-.589-.118.354.589-.472.236.589.354.472,0,.589.118.236.118.472.354.354.354,0,0-.943-.354-.943-.118h0c-.236,0,.236.236-.118.236.354.118,0,.118.472.236l-.118-.118c.118.118.707.354.354.354-.118,0-.236-.118-.354-.118s.118.118-.118.118c-.589-.118-.118-.236-.472-.354-.236,0,.354.236-.236.118.707.236-.118.118.472.354l-.354-.118.236.118-.472-.118c.354.118-.354.118-.118.354,0-.236.354,0,.707-.118.472.236-.943.118-.707.354a1.188,1.188,0,0,1,.354-.118c-.118,0-.236.118-.354.118.118.236.354,0,.589,0-.354.118.118.118.354.118H90.3c-.236.236.707,0,.472.118H90.3l.118.118h-.354c.354.118.236.118.118.236a1.578,1.578,0,0,1,.589-.118c-.236.118-.354,0-.236.118-.236,0-.472.118-.236-.118l-.236.354c-.236.118,0,.236,0,.236V6.808h.472a.433.433,0,0,1-.354.118h.236a.78.78,0,0,1-.707.118.433.433,0,0,1,.354.118c-.118.118-.236.236-.354.236-.118.236.589,0,.472.236H90.3c0,.118-.118.472.236.354l-.354.354c.236,0,.354-.472.707-.472.236,0-.236.354-.354.472.236-.118.707-.472.472,0h-.118l-.118.236c-.354.236-.354,0-.589.472.589-.707.472.236,1.061-.589v.236h0c-.118.472.472-.589.472-.354a.433.433,0,0,1-.118.354l.236-.118s0,.236-.118.118h.236l.236-.472c0,.118,0,.118-.118.236l.118-.236c0,.236-.236.472-.236.354-.236.943.118-.236.236.354l.236.354c-.118.589.118.354.118.707a2.928,2.928,0,0,1,.118-1.061c0,.118,0,.118.118,0-.118.354,0,.236.118.236l-.118.472c.118-.118.118-.354.236-.589.118,0,0,.354,0,.707.118.118,0-.589.118-.589.118.236.236,0,.354-.236a.433.433,0,0,1,.118.354l.118-.354v.118c0-.118,0-.472.118-.589,0-.472.236.707.236.118V8.93h.118V8.341l.118.236a3.264,3.264,0,0,1-.118-1.061V7.4h0v.118h0a.891.891,0,0,0,.118.472l-.118-.236c0,.236.118.589.118.825v0l.118.472V8.812l.236.236c0-.589-.118-1.3-.118-1.533.118.354.236.589.354.943-.236-.354,0,.236-.236.236.118,0,.118.236.118.354V8.576c.118.354.118.236.236.354-.354-.589-.118-.472-.118-.707.118.236.236.472.118.472.354.472-.236-.825,0-.472v.118c-.118-.236.118-.118.236.118h0c.118,0,.354-.236,0-.707,0,0,.472.589.589.707-.236-.354-.589-.825-.825-1.179h0c.354.354.943.825.943,1.061.118,0,.236,0,.118-.118-.118,0-.589-.472-.589-.472.472.354.236.118.707.354-.118,0-.707-.589-.707-.589.118.118.589.472.707.589-.118-.236-.354-.354-.589-.589.118.118.589.354.707.472-.118-.118.118-.118,0-.236h-.236c.236-.118-.825-.707-.825-.825a2.913,2.913,0,0,0,1.061.472,10.627,10.627,0,0,1-1.061-.589V6.69a5.154,5.154,0,0,1,1.179.707c.236,0,.236.118.236,0a.231.231,0,0,1,.236.236l.236-.236C97.135,6.808,97.253,6.572,96.9,6.572ZM94.423,8.1h0C94.541,8.223,94.423,8.223,94.423,8.1Zm-2.594-2Zm.707,2.947c.118-.354.118-.236.118-.118S92.537,9.284,92.537,9.048Z" transform="translate(-89.658 -2.143)" fill="#e73137"/>
            <path id="Tracé_702" data-name="Tracé 702" d="M90.318,6.9h0l-.118.118Z" transform="translate(-89.561 -1.292)" fill="#e73137"/>
            <path id="Tracé_703" data-name="Tracé 703" d="M94.6,4.018v0Z" transform="translate(-88.774 -1.829)" fill="#e73137"/>
            <path id="Tracé_704" data-name="Tracé 704" d="M95.336,4.2c-.118,0-.118.118-.236.118l.472-.118Z" transform="translate(-88.685 -1.775)" fill="#e73137"/>
            <path id="Tracé_705" data-name="Tracé 705" d="M91.3,8.154l.236-.354Z" transform="translate(-89.364 -1.131)" fill="#e73137"/>
            <path id="Tracé_706" data-name="Tracé 706" d="M90.3,7.931a.115.115,0,0,1,.118.118C90.3,7.931,90.654,7.46,90.3,7.931Z" transform="translate(-89.543 -1.144)" fill="#e73137"/>
          </g>
        </g>
        <g id="Groupe_468" data-name="Groupe 468" transform="translate(115.417 2.345)">
          <path id="Tracé_707" data-name="Tracé 707" d="M100.218,2.354,100.1,2C100.1,2.118,100.218,2.236,100.218,2.354Z" transform="translate(-97.506 -1.987)" fill="#ef7c6b"/>
          <path id="Tracé_708" data-name="Tracé 708" d="M101.5,7.2Z" transform="translate(-97.256 -1.056)" fill="#ef7c6b"/>
          <path id="Tracé_709" data-name="Tracé 709" d="M102.5,3.213h0C102.618,3.1,102.5,3.1,102.5,3.213Z" transform="translate(-97.077 -1.785)" fill="#ef7c6b"/>
          <path id="Tracé_710" data-name="Tracé 710" d="M99.4,7.2Z" transform="translate(-97.632 -1.056)" fill="#ef7c6b"/>
          <path id="Tracé_711" data-name="Tracé 711" d="M99.1,7.389c.354-.118.354-.118.236,0l.707-.589A10.88,10.88,0,0,0,99.1,7.389Z" transform="translate(-97.685 -1.128)" fill="#ef7c6b"/>
          <path id="Tracé_712" data-name="Tracé 712" d="M105.681,4.831l-.118.118c-.236-.236-.118-.589-.707-.707l-.118.118c-.354,0,.118-.236-.118-.354h0c-.118.118-.236.118-.236,0,.236-.118.236-.354.354-.354-.354,0-.236.118-.707.354l.118-.236c-.236.118-.236.236-.354.236.236-.118.236-.354.472-.472.236-.589-.589.236-.236-.472-.472.589-.118.472-.236.472a.88.88,0,0,1-.354.354s.472-.825.236-.943h0c0-.236-.236.118-.118-.118-.236.354-.118-.118-.354.472h.236c-.118.118-.472.707-.472.354a.254.254,0,0,1,.236-.236c0-.118-.118.118-.118-.118.236-.472.236,0,.472-.354,0-.236-.354.236,0-.236-.354.707-.118-.118-.472.354l.118-.354s-.118.236-.118.118l.236-.354c-.236.354-.118-.354-.236-.236.236,0,0,.354,0,.707-.354.354,0-.943-.354-.825,0,0,.118.236,0,.354,0-.118-.118-.236-.118-.354-.236,0,0,.354-.118.589,0-.472-.118.118-.236.236V2.591c-.236-.236-.118.707-.236.472l.118-.472-.118.118V2.356c-.118.236-.118.236-.236.118v.589c-.118-.236,0-.354-.118-.236,0-.236,0-.472.118-.236V2.238c-.118-.236-.236,0-.236,0l.118.118c0,.118-.118.354-.118.472V2.474s0,.236-.118.236c0-.236-.118-.589-.118-.707,0,.118-.118.236-.118.354,0-.118-.236-.236-.236-.354-.236-.118-.118.589-.354.472v.118c-.118,0-.472-.236-.354.236L99.9,2.474c0,.118.472.472.354.707,0,.236-.354-.354-.472-.354.118.236.354.707,0,.472,0-.118,0-.118.118-.118l-.236-.118c-.236-.472,0-.354-.354-.589.589.707-.354.472.354,1.061l-.236-.118h0c-.472-.236.472.472.236.589a.433.433,0,0,1-.354-.118l.118.236-.118-.118v.236h0l.354.354c-.118,0-.118-.118-.236-.118l.118.236c-.236-.118-.472-.236-.354-.354-.943-.354.118.236-.472.118l-.118-.118c-.472-.118-.354,0-.707,0,.354,0,1.061,0,1.3.236-.118,0-.118,0,0,.118-.354-.118-.236,0-.236,0L98.489,4.6a.894.894,0,0,0,.472.236c-.118.118-.354,0-.707-.118-.118.118.589,0,.589.236-.236.118,0,.236.236.354h-.354l.354.236h-.118s.354,0,.472.118c.472.118-.707.118-.236.236h-.354V6.01h.589l-.236.118a3.205,3.205,0,0,1,1.061,0H99.079c-.118.118-.236.118-.236.236.472.118,1.3,0,1.533.118-.354.118-.589.118-1.061.236.589.118-.118.118,0,0,0,.118-.236.118-.354.118.118,0,.354.118.472.118-.354.118-.236.118-.354.236.707-.236.472,0,.707,0-.236.118-.472.118-.472,0-.472.236.825-.118.472.118h-.118c.236,0,.118.118-.118.236h0c0,.118.236.472.707.118a2.466,2.466,0,0,0-.707.472,7.042,7.042,0,0,0,1.3-.707h0a11.576,11.576,0,0,1-1.179.825c0,.118-.118.118.118.118,0-.118.589-.472.589-.472A2.466,2.466,0,0,0,99.9,8.6c0-.118.707-.589.707-.589-.118.118-.589.589-.707.589.236-.118.472-.354.707-.472a3.739,3.739,0,0,0-.589.707c.118-.118.118.118.236.118l.118-.236c.118.236.825-.707.943-.707a4.136,4.136,0,0,0-.589.943c.118-.118.472-.589.825-1.061a.115.115,0,0,1,.118.118,11.421,11.421,0,0,1-.825,1.061c0,.236-.118.236,0,.236-.118.236-.236.236-.236.236l.118.236c.236-.472.354-.354.589-.707a1.627,1.627,0,0,1-.472.354c.236-.354.825-1.061.825-.943,0,.236-.354.707-.472.943.118-.118.236-.236.236-.118l-.118.236c0,.236.354-.589.354-.118,0,0-.118.589,0,.354.118-.354.236-1.061.472-1.65h.118v.236h0V8.132h.118c-.118.354-.236.825-.354,1.179,0-.118.118-.236.118-.354,0,.118-.118.354,0,.354.118-.472.118.118.118-.354.118-.118,0,.118.118.118a2.186,2.186,0,0,1,.236-.825h.118c.118,0,.118.236.236.236,0,.118.118.236,0,.472,0-.118,0-.236.118-.236.118.472-.118.118,0,.589,0-.236.118-.354.118-.589,0-.472-.118-.118-.118.118V8.25h.354c.118.118.236,0,.354.236V8.25a.412.412,0,0,0,.236-.118h.118a.115.115,0,0,0,.118.118V8.132h0c0,.118.118.118.118.236,0-.118-.118-.118-.118-.236h0a1.494,1.494,0,0,0,.472-1.061c.236,0,.472.118.707.118-.589-.236.943,0,.118-.236.118,0,.236.118.354.118-.236-.118-.354-.118-.236-.236h.118c0-.236.236-.236.472-.589h-.354a.412.412,0,0,1,.236-.118c-.472,0,0,.118-.589.118.707-.118,0-.354.707-.589,0-.118-.354.118-.354,0l.236-.118h-.236c0-.118.236-.118.472-.236h.118C106.035,4.949,105.681,4.949,105.681,4.831ZM99.2,4.6s-.236-.236,0-.118S99.315,4.6,99.2,4.6Zm.472,1.886c-.118,0,0-.118,0,0C99.786,6.364,99.786,6.482,99.668,6.482Zm2.476-2.358Z" transform="translate(-97.9 -1.989)" fill="#ef7c6b"/>
          <path id="Tracé_713" data-name="Tracé 713" d="M100.318,2.418h0L100.2,2.3Z" transform="translate(-97.489 -1.933)" fill="#ef7c6b"/>
          <path id="Tracé_714" data-name="Tracé 714" d="M102.5,7.1h0Z" transform="translate(-97.077 -1.074)" fill="#ef7c6b"/>
          <path id="Tracé_715" data-name="Tracé 715" d="M102.218,7.954V7.836c0-.118,0-.118-.118-.236Z" transform="translate(-97.149 -0.985)" fill="#ef7c6b"/>
          <path id="Tracé_716" data-name="Tracé 716" d="M102.008,8.154c0-.118.118-.236,0-.354C102.008,7.918,101.89,8.154,102.008,8.154Z" transform="translate(-97.174 -0.949)" fill="#ef7c6b"/>
          <path id="Tracé_717" data-name="Tracé 717" d="M99.7,8.172c0,.236.236-.354.236-.118.118-.118,0-.236.118-.354C99.936,7.936,99.936,7.818,99.7,8.172Z" transform="translate(-97.578 -0.967)" fill="#ef7c6b"/>
          <path id="Tracé_718" data-name="Tracé 718" d="M98.436,4.1h-.118C98.436,4.218,98.436,4.1,98.436,4.1Z" transform="translate(-97.846 -1.611)" fill="#ef7c6b"/>
          <path id="Tracé_719" data-name="Tracé 719" d="M98.9,3.3h0l.354.236Z" transform="translate(-97.721 -1.754)" fill="#ef7c6b"/>
          <path id="Tracé_720" data-name="Tracé 720" d="M99.318,2.2a.115.115,0,0,1-.118.118C99.318,2.2,99.672,2.672,99.318,2.2Z" transform="translate(-97.667 -1.951)" fill="#ef7c6b"/>
        </g>
        <g id="Groupe_469" data-name="Groupe 469" transform="translate(126.971 2.594)">
          <path id="Tracé_721" data-name="Tracé 721" d="M111.6,7.3v0Z" transform="translate(-107.002 -1.287)" fill="#f7b9aa"/>
          <path id="Tracé_722" data-name="Tracé 722" d="M109.818,8l-.118.354C109.818,8.354,109.818,8.118,109.818,8Z" transform="translate(-107.342 -1.162)" fill="#f7b9aa"/>
          <path id="Tracé_723" data-name="Tracé 723" d="M111.3,3.213Z" transform="translate(-107.056 -2.034)" fill="#f7b9aa"/>
          <path id="Tracé_724" data-name="Tracé 724" d="M108.308,6.1h0C108.19,6.218,108.308,6.218,108.308,6.1Z" transform="translate(-107.601 -1.502)" fill="#f7b9aa"/>
          <path id="Tracé_725" data-name="Tracé 725" d="M113.1,4.3Z" transform="translate(-106.734 -1.824)" fill="#f7b9aa"/>
          <path id="Tracé_726" data-name="Tracé 726" d="M113.461,4.418c-.354,0-.354-.118-.236-.118l-.825.118Z" transform="translate(-106.859 -1.824)" fill="#f7b9aa"/>
          <path id="Tracé_727" data-name="Tracé 727" d="M114.066,4.522c-.118,0-.707.118-.825.118a2.375,2.375,0,0,0,.707-.236c-.118,0-.943.118-.943.118.118,0,.825-.118.825-.118h-.825a2.186,2.186,0,0,0,.825-.236c-.118,0,0-.118-.118-.118l-.118.118c0-.236-1.061.236-1.061.118a4.188,4.188,0,0,0,1.061-.472c-.236.118-.707.236-1.179.472V4.168c.472-.236,1.061-.354,1.3-.472.118-.118.236-.118.118-.236a.582.582,0,0,1,.354-.118V2.989c-.354.236-.472.118-.825.354h.589c-.472.236-1.3.589-1.179.354.118-.118.707-.472.825-.589-.118.118-.354,0-.236,0l.236-.118c.118-.236-.589.236-.236-.118,0,0,.354-.472.236-.354a15.913,15.913,0,0,1-1.3,1.061h0l.118-.118h0l-.118.118h0c.236-.236.707-.589.943-.825-.118.118-.236.118-.236.236,0-.118.354-.236.236-.236-.354.354-.118-.118-.354.236-.118,0,0-.118,0-.118l-.589.589h0c0-.118,0-.354-.118-.354,0-.118.118-.236.236-.472-.118.118-.118.236-.236.236.118-.354.118,0,.354-.472-.118.236-.236.236-.354.472-.236.354,0,.118.236,0-.118.118-.236.354-.354.472a.411.411,0,0,1-.236-.118c0-.118-.236-.118-.236-.354,0,.118-.118.118-.118.236h-.354v0h0v0h-.236a1.37,1.37,0,0,0-.943.707c-.236-.118-.354-.354-.589-.472.354.472-.707-.472-.236.236l-.236-.236c.236.236.236.236,0,.236h0c-.118.236-.354.118-.707.236l.354.118h-.236c.472.236.118-.118.589.236-.589-.236-.118.354-.943.118,0,.118.354.118.354.236h-.236l.236.118a.709.709,0,0,1-.472-.118V4.4c-.236,0,0,.236-.118.236l.118-.118c.118.354-.236.589.236.943h.118c.236.236-.118.118,0,.354h0a.412.412,0,0,1,.236.118c-.236,0-.354.118-.589.118a1.515,1.515,0,0,0,.825.118l-.236.118h.472c-.236,0-.354.118-.707.118-.472.354.589.118-.118.472.707-.236.354-.354.472-.354A1.175,1.175,0,0,1,109,6.408s-.825.472-.707.589h-.118c-.118.118.236,0,.118.236.354-.236,0,.118.472-.236h-.236c.118,0,.707-.354.589,0a.433.433,0,0,1-.354.118c-.118.118.118,0,0,.118-.472.354-.236-.118-.589.118-.118.236.472-.118-.118.236.707-.354,0,.236.589-.118l-.589-.118.236-.118-.354.236c.354-.118-.118.354.118.354-.118-.118.236-.354.354-.589.472-.118-.472.707-.118.825-.118,0,0-.236.118-.354a.433.433,0,0,1-.118.354c.236.118.236-.236.354-.354-.236.354.118-.118.354-.118l-.236.236c0,.354.472-.589.472-.236l-.354.354H109l-.236.354c.236-.236.236-.118.236,0,.118-.236.236-.589.354-.472,0,.236-.118.236,0,.236-.118.236-.236.472-.236.118L109,8.413c0,.236.118.118.236.118V8.413l.354-.354c0,.118-.118.236-.118.354a.412.412,0,0,1,.236-.118c-.118.236-.236.589-.354.589.118-.118.236-.118.354-.236V9.12c.118.236.472-.472.472-.236a.115.115,0,0,1,.118-.118c.118.118.236.472.472,0l.118.472c.118-.118-.118-.589,0-.825C111,8.295,111,8.884,111,9c.118-.236.118-.825.354-.354,0,.118-.118,0-.118.118l.118.236c0,.472-.236.354,0,.707-.118-.943.472-.236.236-1.179l.118.118h0c.236.354-.118-.707.118-.589.118,0,.118.118.236.236V8.059l.118.118.118-.118h0l-.118-.472c.118.118,0,.118.118.236V7.587c.118.236.236.472.118.472.589.825,0-.236.472.118v.118c.354.354.354.236.589.354-.118-.118-.707-.589-.707-.825.118,0,.118,0,0-.118.236.236.236.118.236.118l.236.354a.894.894,0,0,0-.236-.472c.118,0,.354.236.589.472.118,0-.472-.354-.354-.472.236,0,.118-.118,0-.472.118,0,.236.236.354.236l-.236-.236.118.118c-.118-.118-.354-.236-.354-.472-.354-.354.707.354.236-.118.118,0,.236.118.354.236l-.118-.118h0l.118-.118h0l-.236-.118-.354-.236.236.118a4.136,4.136,0,0,1-.943-.589h.118l-.118-.118h0c.118.118.236.118.354.236l-.236-.118c.236.118.472.354.707.472l-.118-.118a.115.115,0,0,1,.118.118l-.118-.118.472.236-.118-.118h.354c-.354-.354-1.061-.707-1.179-.943.354.118.589.236.943.354-.472-.118.118.236,0,.236a.433.433,0,0,1,.354.118l-.354-.354c.354.118.236,0,.472,0-.707-.118-.472-.236-.589-.354.236,0,.472.118.354.236.589,0-.825-.354-.354-.354h.118c-.236-.118,0-.118.236-.118h0c.118-.118,0-.472-.589-.472h.825a5.74,5.74,0,0,0-1.415-.118V4.522a7.362,7.362,0,0,1,1.415-.118C114.184,4.64,114.184,4.522,114.066,4.522Zm-.943,1.533c.118.118,0,.118,0,0Zm-3.3.707Zm2.829,1.179c0,.118.118.236,0,.118C112.416,7.705,112.534,7.941,112.651,7.941Z" transform="translate(-107.7 -2.164)" fill="#f7b9aa"/>
          <path id="Tracé_728" data-name="Tracé 728" d="M109.8,8Z" transform="translate(-107.324 -1.162)" fill="#f7b9aa"/>
          <path id="Tracé_729" data-name="Tracé 729" d="M112.2,2.718a.115.115,0,0,0,.118-.118Z" transform="translate(-106.895 -2.128)" fill="#f7b9aa"/>
          <path id="Tracé_730" data-name="Tracé 730" d="M110.418,2.818,110.3,2.7v.118Z" transform="translate(-107.235 -2.111)" fill="#f7b9aa"/>
          <path id="Tracé_731" data-name="Tracé 731" d="M111.018,2.418c0,.118,0,.118-.118.236l.118-.354Z" transform="translate(-107.127 -2.182)" fill="#f7b9aa"/>
          <path id="Tracé_732" data-name="Tracé 732" d="M111.325,2.2c-.118.118-.236.118-.118.236C111.325,2.318,111.443,2.2,111.325,2.2Z" transform="translate(-107.081 -2.2)" fill="#f7b9aa"/>
          <path id="Tracé_733" data-name="Tracé 733" d="M113.136,3.4c-.118,0-.118.118-.236.236.236,0,.118.118.589-.118C113.489,3.282,113.018,3.518,113.136,3.4Z" transform="translate(-106.77 -1.985)" fill="#f7b9aa"/>
          <path id="Tracé_734" data-name="Tracé 734" d="M112.3,7.5l.236.118-.118-.118Z" transform="translate(-106.877 -1.252)" fill="#f7b9aa"/>
          <path id="Tracé_735" data-name="Tracé 735" d="M111.418,7.954h0L111.3,7.6Z" transform="translate(-107.056 -1.234)" fill="#f7b9aa"/>
          <path id="Tracé_736" data-name="Tracé 736" d="M110.5,8.64l.118-.118C110.618,8.64,110.5,8.051,110.5,8.64Z" transform="translate(-107.199 -1.095)" fill="#f7b9aa"/>
        </g>
        <g id="Groupe_470" data-name="Groupe 470" transform="translate(137.345 3.065)">
          <path id="Tracé_737" data-name="Tracé 737" d="M119.212,2.6A2.653,2.653,0,1,1,116.5,5.194,2.644,2.644,0,0,1,119.212,2.6Zm0,.589a2.016,2.016,0,0,0-2,2.122,2.113,2.113,0,0,0,2.122,2.122,2.016,2.016,0,0,0,2-2.122,2.192,2.192,0,0,0-2.122-2.122Zm-.472,3.419h-.589V4.015c.236,0,.589-.118,1.061-.118a1.826,1.826,0,0,1,.943.236.9.9,0,0,1,.236.589.557.557,0,0,1-.589.589h0a.83.83,0,0,1,.472.589c.118.354.118.589.236.589h-.589c-.118-.118-.118-.354-.236-.589,0-.236-.236-.354-.589-.354h-.236V6.608Zm0-1.415h.236c.354,0,.589-.118.589-.354s-.236-.354-.589-.354h-.354v.707Z" transform="translate(-116.5 -2.6)"/>
        </g>
      </g>
    </g>
    <rect id="Rectangle_1599" data-name="Rectangle 1599" width="238" height="99" transform="translate(1203 534)" fill="none"/>
  </g>
</svg>
