<svg xmlns="http://www.w3.org/2000/svg" viewBox="0 0 1920 101.5"><defs><style>.cls-1{fill:#5ec4ef;}.cls-2{fill:#fff;}</style></defs><title>Fichier 1</title><g id="Calque_2" data-name="Calque 2"><g id="Calque_1-2" data-name="Calque 1"><path class="cls-1" d="M378.8,29.9c142.4-9.3,293.6-14,449.3-14,45.1,0,91,.4,136.5,1.2,97.1,1.7,194.1,5.2,288.3,10.4,91.8,5.1,182.1,11.8,268.3,20.1,84.7,8.1,166.3,17.7,242.6,28.6,54.5,7.8,107.1,16.3,156.2,25.3h0V68.2c-63.5-10.6-132.6-20.2-205.2-28.5-73.4-8.4-151.3-15.6-231.5-21.5-81.7-5.9-166.8-10.5-253.2-13.5C1141.7,1.6,1050.8,0,960,0,862.9,0,765.9,1.8,671.6,5.4,579.7,8.8,489.4,14,403,20.7,318.2,27.3,236.4,35.5,159.9,45,104.1,52,50.2,59.8,0,68.2V69c55.8-8.4,116-15.9,179-22.5C242.5,40,309.7,34.4,378.8,29.9Z"/><path class="cls-2" d="M1920,101.5c-49.1-9-101.7-17.6-156.2-25.4-76.3-10.9-157.9-20.5-242.6-28.6-86.2-8.2-176.5-15-268.3-20.1-94.2-5.2-191.2-8.7-288.3-10.4-45.5-.8-91.4-1.2-136.5-1.2-155.7,0-306.9,4.7-449.3,14C309.7,34.4,242.5,40,179,46.6,116,53.1,55.8,60.6,0,69v32.5Z"/></g></g></svg>