<svg xmlns="http://www.w3.org/2000/svg" width="238" height="99" viewBox="0 0 238 99">
  <g id="Groupe_761" data-name="Groupe 761" transform="translate(-1611 -1181)">
    <g id="Groupe_727" data-name="Groupe 727" transform="translate(1595.686 1040.794)">
      <g id="Groupe_715" data-name="Groupe 715" transform="translate(151.487 172.261)">
        <path id="Tracé_946" data-name="Tracé 946" d="M493.058,229.87a11.529,11.529,0,0,1,4.336,4.357,12.213,12.213,0,0,1,1.582,6.156v10.188a1.592,1.592,0,0,1-.477,1.171,1.644,1.644,0,0,1-1.214.477,1.686,1.686,0,0,1-1.214-.455,1.571,1.571,0,0,1-.477-1.192v-2.6a10.723,10.723,0,0,1-3.859,3.273,11.2,11.2,0,0,1-5.159,1.192,11.419,11.419,0,0,1-10.167-5.918,12.354,12.354,0,0,1-1.539-6.135,12.2,12.2,0,0,1,1.583-6.156,11.516,11.516,0,0,1,4.335-4.357,12.683,12.683,0,0,1,12.269,0Zm-1.669,18.361a8.44,8.44,0,0,0,3.143-3.23,9.85,9.85,0,0,0,0-9.234,8.739,8.739,0,0,0-15.261,0,9.852,9.852,0,0,0,0,9.234,8.386,8.386,0,0,0,3.165,3.23,8.773,8.773,0,0,0,4.487,1.171A8.659,8.659,0,0,0,491.389,248.231Z" transform="translate(-474.871 -218.36)" fill="#299639"/>
        <path id="Tracé_947" data-name="Tracé 947" d="M578.5,226.009a8.415,8.415,0,0,1-1.669-5.4V195.9a1.572,1.572,0,0,1,.477-1.192,1.63,1.63,0,0,1,1.171-.455,1.563,1.563,0,0,1,1.647,1.647v24.712a5.49,5.49,0,0,0,.759,3.035,2.242,2.242,0,0,0,1.93,1.17H583.9a1.3,1.3,0,0,1,1.04.456,1.767,1.767,0,0,1,.39,1.192,1.482,1.482,0,0,1-.542,1.192,2.117,2.117,0,0,1-1.409.455h-.563A5.256,5.256,0,0,1,578.5,226.009Z" transform="translate(-547.091 -194.251)" fill="#299639"/>
        <path id="Tracé_948" data-name="Tracé 948" d="M631.772,229.784a10.207,10.207,0,0,1,3.837,4.141,12.946,12.946,0,0,1,1.365,6.026,1.454,1.454,0,0,1-.433,1.106,1.568,1.568,0,0,1-1.127.412H617.9a8.529,8.529,0,0,0,8.844,7.977,9.647,9.647,0,0,0,3.143-.542,7.621,7.621,0,0,0,2.536-1.365,1.9,1.9,0,0,1,1.171-.434,1.619,1.619,0,0,1,.953.347,1.566,1.566,0,0,1,.564,1.171,1.314,1.314,0,0,1-.477,1,11.781,11.781,0,0,1-3.641,2.016,12.566,12.566,0,0,1-10.449-.737,10.975,10.975,0,0,1-4.27-4.292,12.523,12.523,0,0,1-1.539-6.221,13.22,13.22,0,0,1,1.453-6.265,10.7,10.7,0,0,1,4.032-4.292,11.245,11.245,0,0,1,5.875-1.539A10.75,10.75,0,0,1,631.772,229.784Zm-11.142,3.534a8.833,8.833,0,0,0-2.645,5.376h15.868a8.48,8.48,0,0,0-2.428-5.376,7.3,7.3,0,0,0-5.333-2.038A7.661,7.661,0,0,0,620.63,233.317Z" transform="translate(-573.938 -218.36)" fill="#299639"/>
        <path id="Tracé_949" data-name="Tracé 949" d="M723.9,228.617a1.489,1.489,0,0,1,1.062,1.344,1.485,1.485,0,0,1-.585,1.214,2.01,2.01,0,0,1-1.019.217q-.39,0-1.344-.087a9.288,9.288,0,0,0-1.04-.043A7.964,7.964,0,0,0,715.66,233,5.616,5.616,0,0,0,713.6,237.5v12.963a1.65,1.65,0,1,1-3.295,0v-20.42a1.65,1.65,0,1,1,3.295,0v1.907a8.608,8.608,0,0,1,3.208-2.818,9.111,9.111,0,0,1,4.206-1A7.172,7.172,0,0,1,723.9,228.617Z" transform="translate(-641.632 -218.255)" fill="#299639"/>
      </g>
      <g id="Groupe_719" data-name="Groupe 719" transform="translate(95.961 163.206)" opacity="0.2">
        <g id="Groupe_717" data-name="Groupe 717" transform="translate(25.166 20.145)">
          <path id="Tracé_950" data-name="Tracé 950" d="M412.527,239a.54.54,0,0,1-.145.211c-.079.026-.18-.049-.317-.087-.271-.1-.657-.238-1.121-.4-.929-.327-2.163-.794-3.4-1.269l-3.385-1.358c-.461-.189-.848-.33-1.114-.456a1.187,1.187,0,0,1-.4-.362l.4-2.985a.634.634,0,0,1,.439.051c.264.139.64.374,1.09.637l3.3,1.958c1.2.73,2.4,1.47,3.291,2.047.449.284.823.522,1.084.689.13.095.237.122.3.217a1.158,1.158,0,0,1,.073.323Z" transform="translate(-393.358 -232.269)" fill="#002858"/>
          <g id="Groupe_716" data-name="Groupe 716" transform="translate(0 0.003)">
            <path id="Tracé_951" data-name="Tracé 951" d="M370.831,238.321a.53.53,0,0,0,.127.219c.078.031.184-.037.325-.065l1.152-.326c.956-.262,2.226-.643,3.5-1.031l3.492-1.12c.477-.156.875-.27,1.15-.377a1.221,1.221,0,0,0,.427-.332l-.158-2.983a.639.639,0,0,0-.441.022c-.276.12-.671.327-1.142.558L375.8,234.6c-1.257.644-2.513,1.3-3.454,1.808-.472.252-.864.463-1.139.611-.138.085-.247.106-.317.195a1.166,1.166,0,0,0-.1.315Z" transform="translate(-370.789 -232.279)" fill="#002858"/>
          </g>
        </g>
        <g id="Groupe_718" data-name="Groupe 718" transform="translate(0 0)">
          <path id="Tracé_952" data-name="Tracé 952" d="M287.828,318.326c-.217,1.464-.4,2.93-.494,4.382-.2,2.478-.193,4.954-.142,7.365q.11,3.6.215,7.076c.015.574.033,1.15.047,1.72l.024.853c0,.026.023.62.042.657a6.152,6.152,0,0,0,.182.989,5.321,5.321,0,0,0,.343.9c.978,2.173,3.483.691,5.234-1.634a43.042,43.042,0,0,1,5.842-5.827,39.129,39.129,0,0,1,4.8-3.433,23.042,23.042,0,0,1,3.222-1.639c.759-.3,1.164-.432,1.164-.432.172-.054.334.119.366.391a.6.6,0,0,1-.2.57s-.378.234-1.075.723-1.706,1.245-2.954,2.313-2.747,2.432-4.4,4.139a55.017,55.017,0,0,0-5.268,6.251,11.129,11.129,0,0,1-3.7,3.572,3.354,3.354,0,0,1-2.634.343,4.65,4.65,0,0,1-2.524-2.295,11.258,11.258,0,0,1-1.271-4.219c-.058-.527-.05-.516-.083-1.073l-.031-.9c-.018-.6-.026-1.208-.027-1.816a71.712,71.712,0,0,1,.392-7.44c.429-3.974,1-7.992,1.642-12Z" transform="translate(-284.511 -272.753)" fill="#002858"/>
          <path id="Tracé_953" data-name="Tracé 953" d="M332.664,210.138s-.473-10.515-.715-26.29c-.007-.492-.015-.99-.022-1.493s-.024-.983-.033-1.482c-.031-1.024-.059-2.068-.09-3.131-.026-1.043-.051-2.105-.079-3.184a13.949,13.949,0,0,0-.367-2.55,11.974,11.974,0,0,0-.853-2.356,7.523,7.523,0,0,0-1.087-1.745,2.03,2.03,0,0,0-3.151-.219c-.142.132-.289.256-.428.4l-.463.509c-.3.34-.6.7-.9,1.066a23.052,23.052,0,0,0-1.674,2.392c-.529.846-.979,1.781-1.491,2.813-.506,1.01-.963,2-1.441,3.041-.569,1.257-.541.79-1.078,2.1l-1.6-.273c.628-1.714.7-1.642,1.388-3.277.459-1.083.934-2.194,1.409-3.221.461-1.008.961-2.139,1.533-3.124a27.924,27.924,0,0,1,1.788-2.761c.312-.425.629-.832.951-1.227l.479-.571.548-.6a6.3,6.3,0,0,1,2.557-1.639,3.347,3.347,0,0,1,2.892.592,7.11,7.11,0,0,1,2.14,2.857,18.086,18.086,0,0,1,1.181,3.623,21.3,21.3,0,0,1,.449,3.965c.011,1.2,0,2.208-.005,3.3q-.019,1.6-.032,3.134c-.005.528-.014,1.049-.021,1.566s-.022,1-.035,1.494c-.378,15.775-.942,26.295-.942,26.295-.019.362-.218.634-.442.6-.2-.024-.359-.284-.373-.6" transform="translate(-307.664 -163.206)" fill="#002858"/>
          <path id="Tracé_954" data-name="Tracé 954" d="M455.9,210.287c.027.158.228.754.254.913.451,2.625.818,5.332,1.061,8.042s.363,5.455.384,8.192c.008,1.369-.029,2.736-.091,4.1l-.12,2.045a16.527,16.527,0,0,1-.267,2.327,7.9,7.9,0,0,1-2.166,4.311,3.566,3.566,0,0,1-1.913.912,3.9,3.9,0,0,1-1.8-.293l-.062-.022a9.162,9.162,0,0,1-1.969-1.389c-.575-.517-1.135-1.048-1.691-1.581s-1.114-1.045-1.679-1.542l-.837-.7a10.8,10.8,0,0,1-.919-.742,10.251,10.251,0,0,1-1.685-1.881,10.379,10.379,0,0,1-1.315-2.52c-.118-.342-.229-.691-.323-1.053-.037-.143-.071-.289-.1-.437a3.055,3.055,0,0,1-.086-.41c-.052-.342-.152-.787-.206-1.277-.091-.812,0-1.724-.052-2.6a42.254,42.254,0,0,0-.647-5.26c-.175-.875-.343-1.675-.577-2.541l-.176-.652-.172-.565a11.9,11.9,0,0,0-.429-1.121,13.239,13.239,0,0,0-2.495-3.815,13.7,13.7,0,0,0-1.59-1.447,10.923,10.923,0,0,0-1.705-1.114l-.017-.008a.784.784,0,0,1-.1-.062,2.918,2.918,0,0,1-1.4-2.022,22.585,22.585,0,0,1-.126-2.264c-.046-1.311-.127-2.628-.211-3.959-.177-2.632-.345-5.458-.36-8.132-.025-2.711-.127-5.31-.038-8.11l.112-4.022.083-2.011a21.439,21.439,0,0,1,.22-2.3,16.59,16.59,0,0,1,1.3-4.4c.152-.333.314-.654.483-.968l.271-.484.263-.421a9.16,9.16,0,0,1,1.34-1.661,4.357,4.357,0,0,1,3.536-1.33,5.453,5.453,0,0,1,3.165,1.826,27.217,27.217,0,0,1,4.138,6.084c1.088,2.29,2.089,4.559,3.029,6.93.252.636.537,1.676.781,2.319l-1.236.358q-.259-.7-.526-1.389c-.886-2.287-1.862-4.561-2.87-6.7a23.764,23.764,0,0,0-3.73-5.345,3.124,3.124,0,0,0-2.059-1.122,2.3,2.3,0,0,0-1.875,1.008,7.2,7.2,0,0,0-.725,1.187l-.182.384-.149.348c-.1.249-.2.5-.283.756a15.356,15.356,0,0,0-.692,3.172c-.072.565-.088,1.045-.12,1.7l-.11,2.007-.277,4.016-.152,1.947-.129,2.008-.293,4.018c-.221,2.687-.39,5.224-.5,7.949-.065,1.348-.135,2.713-.239,4.084-.046.672-.139,1.467-.127,1.749.072.234-.12.837.217,1.1l-.109-.071a11.6,11.6,0,0,1,1.9,1.179,14.4,14.4,0,0,1,1.743,1.535,15.09,15.09,0,0,1,2.905,4.182c.2.414.372.851.536,1.3.077.233.156.436.235.7l.192.636c.259.851.495,1.819.7,2.717a45.363,45.363,0,0,1,.846,5.67c.077.974.116,4.629.177,5.021.022.137.056.481.085.617l.019.089a7.248,7.248,0,0,0,1.816,3.549,8.1,8.1,0,0,0,.779.678l.886.677a19.9,19.9,0,0,0,1.8,1.136c.609.344,1.226.669,1.837.97a14.242,14.242,0,0,0,1.685.781l-.063-.022a1.867,1.867,0,0,0,1.047.059,1.582,1.582,0,0,0,.791-.422,4.089,4.089,0,0,0,1.085-2.191c.173-.822.225-2.375.319-3.622l.224-3.937q.222-3.939.224-7.88c-.008-2.63-.091-5.243-.322-7.874-.024-.295-.049-.881-.074-1.174Z" transform="translate(-387.735 -165.175)" fill="#002858"/>
        </g>
      </g>
      <g id="Groupe_723" data-name="Groupe 723" transform="translate(116.305 163.206)">
        <g id="Groupe_721" data-name="Groupe 721" transform="translate(4.822 20.145)">
          <path id="Tracé_955" data-name="Tracé 955" d="M412.527,239a.538.538,0,0,1-.145.211c-.079.026-.18-.049-.317-.087-.271-.1-.657-.238-1.121-.4-.929-.327-2.163-.794-3.4-1.269l-3.385-1.358c-.461-.188-.848-.33-1.114-.455a1.19,1.19,0,0,1-.4-.362l.4-2.985a.633.633,0,0,1,.439.051c.264.139.64.373,1.09.637l3.3,1.957c1.2.73,2.4,1.47,3.291,2.047.449.284.823.522,1.084.689.13.095.237.122.3.217a1.158,1.158,0,0,1,.073.323Z" transform="translate(-393.358 -232.269)" fill="#002858"/>
          <g id="Groupe_720" data-name="Groupe 720" transform="translate(0 0.003)">
            <path id="Tracé_956" data-name="Tracé 956" d="M370.831,238.321a.528.528,0,0,0,.127.219c.078.031.184-.037.325-.065l1.152-.326c.956-.262,2.226-.643,3.5-1.031l3.492-1.12c.477-.156.875-.27,1.15-.377a1.222,1.222,0,0,0,.427-.332l-.158-2.983a.639.639,0,0,0-.441.022c-.276.12-.671.327-1.142.558L375.8,234.6c-1.257.644-2.513,1.3-3.454,1.808-.472.252-.864.463-1.139.611-.138.085-.247.105-.317.195a1.162,1.162,0,0,0-.1.314Z" transform="translate(-370.789 -232.279)" fill="#002858"/>
          </g>
        </g>
        <g id="Groupe_722" data-name="Groupe 722" transform="translate(0 0)">
          <path id="Tracé_957" data-name="Tracé 957" d="M358.914,210.138s-.473-10.515-.715-26.29c-.007-.493-.015-.991-.022-1.493s-.024-.983-.033-1.483c-.031-1.024-.059-2.068-.09-3.131-.026-1.043-.051-2.105-.079-3.184a13.945,13.945,0,0,0-.367-2.55,11.968,11.968,0,0,0-.853-2.356,7.524,7.524,0,0,0-1.087-1.745,2.3,2.3,0,0,0-1.409-.851l.113-3.8a3.335,3.335,0,0,1,2.623.649,7.107,7.107,0,0,1,2.14,2.857,18.1,18.1,0,0,1,1.181,3.623,21.309,21.309,0,0,1,.449,3.965c.011,1.2,0,2.208-.005,3.3q-.019,1.6-.032,3.134c-.005.529-.014,1.049-.021,1.566s-.022,1-.035,1.494c-.378,15.775-.942,26.295-.942,26.295-.019.362-.218.634-.442.6-.2-.024-.359-.284-.373-.6" transform="translate(-354.259 -163.206)" fill="#002858"/>
          <path id="Tracé_958" data-name="Tracé 958" d="M432.527,208.173l-.017-.008a.788.788,0,0,1-.1-.062,2.918,2.918,0,0,1-1.4-2.022,22.589,22.589,0,0,1-.126-2.264c-.046-1.311-.127-2.628-.211-3.959-.177-2.632-.345-5.458-.36-8.132-.025-2.711-.127-5.31-.038-8.11l.112-4.022.083-2.011a21.437,21.437,0,0,1,.22-2.3,16.6,16.6,0,0,1,1.3-4.4c.152-.332.314-.654.483-.967l.271-.484.263-.421a9.172,9.172,0,0,1,1.34-1.661,4.358,4.358,0,0,1,3.536-1.33l.18,3.008a2.711,2.711,0,0,0-1.365.965,7.215,7.215,0,0,0-.725,1.187l-.182.383-.149.348c-.1.249-.2.5-.283.756a15.36,15.36,0,0,0-.692,3.172c-.072.565-.088,1.045-.12,1.7l-.11,2.007-.277,4.016-.152,1.946-.129,2.008-.293,4.018c-.221,2.687-.39,5.224-.5,7.949-.065,1.348-.135,2.713-.239,4.084-.046.671-.139,1.468-.127,1.749Z" transform="translate(-408.08 -165.175)" fill="#002858"/>
        </g>
      </g>
      <g id="Groupe_724" data-name="Groupe 724" transform="translate(238.437 174.044)">
        <path id="Tracé_959" data-name="Tracé 959" d="M781.17,201.106a5.587,5.587,0,0,1,2,2,5.254,5.254,0,0,1,.742,2.723,5.5,5.5,0,0,1-8.233,4.76,5.343,5.343,0,0,1-1.988-1.988,5.441,5.441,0,0,1-.728-2.772,5.327,5.327,0,0,1,.735-2.73,5.472,5.472,0,0,1,1.988-2,5.341,5.341,0,0,1,2.751-.735A5.287,5.287,0,0,1,781.17,201.106Zm-.462,8.653a4.617,4.617,0,0,0,1.666-1.659,4.509,4.509,0,0,0,0-4.55,4.626,4.626,0,0,0-1.666-1.659,4.51,4.51,0,0,0-4.551,0,4.623,4.623,0,0,0-1.666,1.659,4.511,4.511,0,0,0,0,4.55,4.627,4.627,0,0,0,1.659,1.659,4.52,4.52,0,0,0,4.557,0Zm.07-1.33a.711.711,0,0,1,.112.336.34.34,0,0,1-.126.273.51.51,0,0,1-.336.1.45.45,0,0,1-.406-.224l-1.484-2.38h-1.232v2.142a.459.459,0,0,1-.126.329.441.441,0,0,1-.336.133.463.463,0,0,1-.343-.133.445.445,0,0,1-.133-.329v-5.937a.436.436,0,0,1,.14-.329.49.49,0,0,1,.35-.133h1.582a2.386,2.386,0,0,1,1.673.6,2.1,2.1,0,0,1,.3,2.681,2.242,2.242,0,0,1-.938.77Zm-3.472-2.744h1.162a1.44,1.44,0,0,0,.994-.336,1.188,1.188,0,0,0,.378-.938,1.211,1.211,0,0,0-.378-.945,1.42,1.42,0,0,0-.994-.343h-1.162Z" transform="translate(-772.965 -200.364)" fill="#299639"/>
      </g>
      <g id="Groupe_725" data-name="Groupe 725" transform="translate(18.314 171.743)">
        <path id="Tracé_960" data-name="Tracé 960" d="M44.977,192.908a1.527,1.527,0,0,1,.433,1.127,1.47,1.47,0,0,1-.433,1.084,1.525,1.525,0,0,1-1.127.433H33.531v29.091a1.664,1.664,0,0,1-.477,1.192,1.609,1.609,0,0,1-1.214.5,1.7,1.7,0,0,1-1.691-1.691V195.553H19.875a1.522,1.522,0,0,1-1.127-.433,1.469,1.469,0,0,1-.433-1.084,1.487,1.487,0,0,1,1.561-1.561H43.85A1.528,1.528,0,0,1,44.977,192.908Z" transform="translate(-18.314 -192.475)" fill="#299639"/>
        <path id="Tracé_961" data-name="Tracé 961" d="M126.894,199.629a2.336,2.336,0,0,1-.672-1.691,2.212,2.212,0,0,1,.694-1.691,2.38,2.38,0,0,1,1.691-.65,2.329,2.329,0,0,1,1.648.65,2.214,2.214,0,0,1,.694,1.691,2.369,2.369,0,0,1-2.385,2.385A2.228,2.228,0,0,1,126.894,199.629Zm.5,28.441a1.644,1.644,0,0,1-.477-1.214V206.522a1.632,1.632,0,0,1,1.691-1.691,1.574,1.574,0,0,1,1.192.477,1.688,1.688,0,0,1,.455,1.214v20.334a1.687,1.687,0,0,1-.455,1.214,1.572,1.572,0,0,1-1.192.477A1.642,1.642,0,0,1,127.392,228.07Z" transform="translate(-94.746 -194.686)" fill="#299639"/>
        <path id="Tracé_962" data-name="Tracé 962" d="M187.362,228.095a11.527,11.527,0,0,1,4.336,4.357,12.21,12.21,0,0,1,1.582,6.156,12.36,12.36,0,0,1-1.539,6.135,11.417,11.417,0,0,1-10.167,5.918,11.194,11.194,0,0,1-5.159-1.192,10.711,10.711,0,0,1-3.858-3.273v12.7a1.632,1.632,0,0,1-1.691,1.691,1.572,1.572,0,0,1-1.192-.477,1.689,1.689,0,0,1-.455-1.214v-9.711a1.319,1.319,0,0,1-.043-.39V238.608a12.2,12.2,0,0,1,1.582-6.156,11.517,11.517,0,0,1,4.335-4.357,12.68,12.68,0,0,1,12.269,0Zm-1.647,18.361a8.391,8.391,0,0,0,3.165-3.23,9.849,9.849,0,0,0,0-9.234,8.554,8.554,0,0,0-3.165-3.252,8.653,8.653,0,0,0-4.487-1.192,8.547,8.547,0,0,0-7.609,4.444,9.311,9.311,0,0,0-1.149,4.617,9.525,9.525,0,0,0,.043,1.084.492.492,0,0,1,.043.217,8.7,8.7,0,0,0,2.84,5.549,8.4,8.4,0,0,0,5.831,2.168A8.774,8.774,0,0,0,185.715,246.455Z" transform="translate(-125.171 -216.584)" fill="#299639"/>
        <path id="Tracé_963" data-name="Tracé 963" d="M274.22,249.75a10,10,0,0,1-3.989-2.558,1.587,1.587,0,0,1-.433-1,1.648,1.648,0,0,1,.694-1.3,1.782,1.782,0,0,1,1.084-.39,1.6,1.6,0,0,1,1.257.607,6.644,6.644,0,0,0,2.753,1.864,10.6,10.6,0,0,0,3.793.65,8.094,8.094,0,0,0,4.552-1.04,3.287,3.287,0,0,0,1.561-2.731,3.073,3.073,0,0,0-1.517-2.6,12.123,12.123,0,0,0-4.813-1.561,13.476,13.476,0,0,1-6.351-2.406,5.171,5.171,0,0,1-2.1-4.141,5.652,5.652,0,0,1,2.45-4.9,10.358,10.358,0,0,1,6.135-1.734,11.851,11.851,0,0,1,4.986.975,8.767,8.767,0,0,1,3.425,2.71,1.973,1.973,0,0,1,.347,1,1.325,1.325,0,0,1-.694,1.171,1.389,1.389,0,0,1-.823.217,1.988,1.988,0,0,1-1.517-.65,7.322,7.322,0,0,0-5.81-2.428,6.664,6.664,0,0,0-3.815.975,2.895,2.895,0,0,0-.087,4.943,12.475,12.475,0,0,0,4.769,1.5q4.639.78,6.633,2.536a5.575,5.575,0,0,1,1.994,4.357,5.7,5.7,0,0,1-1.192,3.555,7.737,7.737,0,0,1-3.317,2.428,12.623,12.623,0,0,1-4.813.867A14.794,14.794,0,0,1,274.22,249.75Z" transform="translate(-196.443 -216.584)" fill="#299639"/>
      </g>
    </g>
    <rect id="Rectangle_1597" data-name="Rectangle 1597" width="238" height="99" transform="translate(1611 1181)" fill="none"/>
  </g>
</svg>
